<?xml version="1.0" encoding="UTF-8"?>
<svg width="24px" height="24px" viewBox="0 0 24 24" version="1.1" xmlns="http://www.w3.org/2000/svg" xmlns:xlink="http://www.w3.org/1999/xlink">
    <g id="Page-1" stroke="none" stroke-width="1" fill="none" fill-rule="evenodd">
        <g id="TASK-SUBMIT---POPUP" transform="translate(-648.000000, -1136.000000)" fill="#fff" fill-rule="nonzero">
            <g id="Group-5" transform="translate(0.000000, 1032.000000)">
                <g id="Path-5" transform="translate(648.000000, 104.000000)">
                    <path d="M20.9454545,0 L3.05454545,0 C1.36756658,0 0,1.36756658 0,3.05454545 L0,20.9454545 C0,22.6324334 1.36756658,24 3.05454545,24 L11.8183636,24 L11.8183636,14.0140364 L9.82118182,14.0140364 L9.82118182,10.0196727 L11.8018364,10.0196727 L11.8018364,8.21454545 C11.8018364,6.5808 12.5800909,4.0284 16.0050545,4.0284 L19.0904182,4.04078182 L19.0904182,7.46301818 L16.8498,7.46301818 C16.4854909,7.46301818 15.9670909,7.64443636 15.9670909,8.42258182 L15.9670909,10.0199455 L19.1413636,10.0199455 L18.777,14.0143091 L15.8127273,14.0143091 L15.8127273,24 L20.9454545,24 C21.7555704,24 22.532506,23.6781827 23.1053443,23.1053443 C23.6781827,22.532506 24,21.7555704 24,20.9454545 L24,3.05454545 C24,2.24442963 23.6781827,1.46749404 23.1053443,0.89465565 C22.532506,0.321817258 21.7555704,0 20.9454545,0 L20.9454545,0 Z" id="Path"></path>
                </g>
            </g>
        </g>
    </g>
</svg>