<?xml version="1.0" encoding="UTF-8"?>
<svg width="24px" height="24px" viewBox="0 0 24 24" version="1.1" xmlns="http://www.w3.org/2000/svg" xmlns:xlink="http://www.w3.org/1999/xlink">
    <g id="Page-1" stroke="none" stroke-width="1" fill="none" fill-rule="evenodd">
        <g id="TASK-SUBMIT---POPUP" transform="translate(-768.000000, -1136.000000)" fill-rule="nonzero">
            <g id="Group-5" transform="translate(0.000000, 1032.000000)">
                <g id="Group-6" transform="translate(768.000000, 104.000000)">
                    <path d="M20.9454545,0 L3.05454545,0 C1.36756658,0 0,1.36756658 0,3.05454545 L0,20.9454545 C0,22.6324334 1.36756658,24 3.05454545,24 L20.9454545,24 C22.6324334,24 24,22.6324334 24,20.9454545 L24,3.05454545 C24,1.36756658 22.6324334,0 20.9454545,0 Z" id="Path" fill="#fff"></path>
                    <g id="Group-27" transform="translate(4.850830, 4.851013)" fill="#24163c">
                        <path d="M13.9470919,2.00604734 C13.8073614,1.62740791 13.5844416,1.28468594 13.2947847,1.00337127 C13.0134701,0.713714413 12.6709798,0.490794551 12.2921087,0.351064085 C11.9848407,0.231725459 11.5232436,0.0896777674 10.6730429,0.0509796009 C9.75332459,0.00903730772 9.47757127,0 7.14919386,0 C4.82058473,0 4.54483141,0.0088055971 3.62534479,0.0507478903 C2.77514409,0.0896777674 2.31331527,0.231725459 2.00627905,0.351064085 C1.62740791,0.490794551 1.28468594,0.713714413 1.00360298,1.00337127 C0.713946124,1.28468594 0.491026262,1.6271762 0.351064085,2.00604734 C0.231725459,2.31331527 0.0896777674,2.77514409 0.0509796009,3.62534479 C0.00903730772,4.54483141 0,4.82058473 0,7.14919386 C0,9.47757127 0.00903730772,9.75332459 0.0509796009,10.6730429 C0.0896777674,11.5232436 0.231725459,11.9848407 0.351064085,12.2921087 C0.491026262,12.6709799 0.713714413,13.0134701 1.00337127,13.2947847 C1.28468594,13.5844416 1.62717614,13.8073615 2.00604728,13.9470919 C2.31331527,14.0666623 2.77514409,14.2087099 3.62534479,14.2474081 C4.54483141,14.2893505 4.82035302,14.298156 7.14896214,14.298156 C9.47780298,14.298156 9.7535563,14.2893505 10.6728112,14.2474081 C11.5230119,14.2087099 11.9848407,14.0666623 12.2921087,13.9470919 C13.0526316,13.6537275 13.6537275,13.0526316 13.9470919,12.2921087 C14.0664305,11.9848407 14.2084782,11.5232436 14.2474081,10.6730429 C14.2893504,9.75332459 14.298156,9.47757127 14.298156,7.14919386 C14.298156,4.82058473 14.2893504,4.54483141 14.2474081,3.62534479 C14.2087099,2.77514409 14.0666623,2.31331527 13.9470919,2.00604734 L13.9470919,2.00604734 Z M7.14919386,11.6268249 C4.67598805,11.6268249 2.67109938,9.62216795 2.67109938,7.14896214 C2.67109938,4.67575634 4.67598805,2.67109938 7.14919386,2.67109938 C9.62216795,2.67109938 11.6270566,4.67575634 11.6270566,7.14896214 C11.6270566,9.62216795 9.62216795,11.6268249 7.14919386,11.6268249 Z M11.8040949,3.5405333 C11.2261715,3.5405333 10.7576227,3.07198445 10.7576227,2.49406113 C10.7576227,1.9161378 11.2261715,1.44758896 11.8040949,1.44758896 C12.3820182,1.44758896 12.850567,1.9161378 12.850567,2.49406113 C12.8503353,3.07198445 12.3820182,3.5405333 11.8040949,3.5405333 Z" id="Shape"></path>
                        <path d="M10.055958,7.14896214 C10.055958,8.75435612 8.75458783,10.0557263 7.14919386,10.0557263 C5.54379988,10.0557263 4.2424297,8.75435612 4.2424297,7.14896214 C4.2424297,5.54356817 5.54379988,4.24219799 7.14919386,4.24219799 C8.75458783,4.24219799 10.055958,5.54356817 10.055958,7.14896214 Z" id="Path"></path>
                    </g>
                </g>
            </g>
        </g>
    </g>
</svg>