<?xml version="1.0" encoding="UTF-8"?>
<svg width="24px" height="24px" viewBox="0 0 24 24" version="1.1" xmlns="http://www.w3.org/2000/svg" xmlns:xlink="http://www.w3.org/1999/xlink">
    <title>Shape 3</title>
    <g id="Page-1" stroke="none" stroke-width="1" fill="none" fill-rule="evenodd">
        <g id="TASK-SUBMIT---POPUP" transform="translate(-728.000000, -1136.000000)" fill="#fff" fill-rule="nonzero">
            <g id="Group-5" transform="translate(0.000000, 1032.000000)">
                <g id="Shape-3" transform="translate(728.000000, 104.000000)">
                    <path d="M20.9454545,0 L3.05454545,0 C1.36756658,0 0,1.36756658 0,3.05454545 L0,20.9454545 C0,22.6324334 1.36756658,24 3.05454545,24 L20.9454545,24 C22.6324334,24 24,22.6324334 24,20.9454545 L24,3.05454545 C24,1.36756658 22.6324334,0 20.9454545,0 Z M8.11025455,19.2932182 L4.70661818,19.2932182 L4.70661818,9.56890909 L8.11025455,9.56890909 L8.11025455,19.2932182 Z M6.40843636,8.11025455 C5.46854813,8.11025455 4.70661818,7.34832459 4.70661818,6.40843636 C4.70661818,5.46854813 5.46854813,4.70661818 6.40843636,4.70661818 C7.34832459,4.70661818 8.11025455,5.46854813 8.11025455,6.40843636 C8.11025455,7.34828199 7.34839108,8.1101943 6.40854545,8.11025455 L6.40843636,8.11025455 Z M19.2932182,19.2932182 L16.3759636,19.2932182 L16.3759636,14.5550727 C16.3759636,13.425 16.2505091,11.9714727 14.7016909,11.9714727 C13.1291455,11.9714727 12.8888182,13.2024 12.8888182,14.4732545 L12.8888182,19.2932182 L10.0551273,19.2932182 L10.0551273,9.56890909 L12.7663636,9.56890909 L12.7663636,10.8813273 L12.8081455,10.8813273 C13.2117818,10.1150727 14.1984,9.56890909 15.6684545,9.56890909 C18.7272,9.56890909 19.2932182,11.3252727 19.2932182,13.9489091 L19.2932182,19.2932182 Z" id="Shape"></path>
                </g>
            </g>
        </g>
    </g>
</svg>