<?xml version="1.0" encoding="UTF-8"?>
<svg width="24px" height="24px" viewBox="0 0 24 24" version="1.1" xmlns="http://www.w3.org/2000/svg" xmlns:xlink="http://www.w3.org/1999/xlink">
    <title>Shape 2</title>
    <g id="Page-1" stroke="none" stroke-width="1" fill="none" fill-rule="evenodd">
        <g id="TASK-SUBMIT---POPUP" transform="translate(-688.000000, -1136.000000)" fill="#fff" fill-rule="nonzero">
            <g id="Group-5" transform="translate(0.000000, 1032.000000)">
                <g id="Shape-2" transform="translate(688.000000, 104.000000)">
                    <path d="M20.9454545,0 L3.05454545,0 C1.36756658,0 0,1.36756658 0,3.05454545 L0,20.9454545 C0,22.6324334 1.36756658,24 3.05454545,24 L20.9454545,24 C22.6324334,24 24,22.6324334 24,20.9454545 L24,3.05454545 C24,1.36756658 22.6324334,0 20.9454545,0 Z M18.6964909,8.61818182 C18.7515893,9.9880861 18.5145202,11.3540315 18.0010364,12.6252545 C17.0574,14.9861455 15.2228727,16.9515273 12.8737636,17.9504182 C9.88974545,19.2192 6.32149091,18.9344727 3.58058182,17.2060364 C5.40375436,17.4168694 7.23760715,16.9120383 8.69601818,15.7978364 C7.22752084,15.7768261 5.93292895,14.829393 5.46878182,13.4360182 C5.9869693,13.5328907 6.52023787,13.5129896 7.02976364,13.3777636 C5.42093049,13.0530973 4.26249923,11.6414594 4.25803636,10.0002 C4.73900834,10.2628957 5.27511354,10.4085592 5.82289091,10.4253818 C4.33641818,9.44694545 3.84114545,7.42669091 4.7538,5.88561818 C6.52283211,8.01753649 9.10704523,9.30700026 11.8742182,9.43854545 C11.7165029,8.76149825 11.7705198,8.05234782 12.0289636,7.407 C12.4407824,6.40875171 13.294244,5.65940914 14.3373818,5.3802 C15.5676181,5.05731478 16.8763554,5.42316404 17.7608182,6.3372 C18.5336752,6.18754721 19.2756623,5.90828317 19.9554,5.51121818 C19.6950636,6.30248772 19.1548071,6.97149485 18.4360909,7.3926 C19.120301,7.31327341 19.7889597,7.13289218 20.4202364,6.85734545 C19.9551044,7.54226286 19.3713522,8.13857596 18.6964909,8.61818182 L18.6964909,8.61818182 Z" id="Shape"></path>
                </g>
            </g>
        </g>
    </g>
</svg>