<?xml version="1.0" encoding="UTF-8"?>
<svg width="18px" height="16px" viewBox="0 0 18 16" version="1.1" xmlns="http://www.w3.org/2000/svg" xmlns:xlink="http://www.w3.org/1999/xlink">
    <title>Shape 10</title>
    <g id="Page-1" stroke="none" stroke-width="1" fill="none" fill-rule="evenodd">
        <g id="Group-39" transform="translate(-16.000000, -248.000000)" fill="#24163C" fill-rule="nonzero">
            <g id="Shape-10" transform="translate(16.000000, 248.000000)">
                <path d="M14.25,3.2 L9.75,3.2 C8.35388886,3.2054573 7.07684104,4.03985691 6.438,5.364 C5.98829767,4.99983049 5.43961425,4.80184108 4.875,4.8 C3.42525253,4.8 2.25,6.0536027 2.25,7.6 C2.25219507,8.01600625 2.3421698,8.42614747 2.51325,8.8 L1.5,8.8 L1.5,0.8 C1.5,0.3581722 1.16421356,0 0.75,0 C0.335786438,0 0,0.3581722 0,0.8 L0,15.2 C0,15.6418278 0.335786438,16 0.75,16 C1.16421356,16 1.5,15.6418278 1.5,15.2 L1.5,13.6 L16.5,13.6 L16.5,15.2 C16.5,15.6418278 16.8357864,16 17.25,16 C17.6642136,16 18,15.6418278 18,15.2 L18,7.2 C17.9975204,4.99195748 16.3200399,3.20264489 14.25,3.2 Z M7.5,7.2 C7.5,5.8745166 8.50735931,4.8 9.75,4.8 L14.25,4.8 C15.4926407,4.8 16.5,5.8745166 16.5,7.2 L16.5,8.8 L7.5,8.8 L7.5,7.2 Z M3.75,7.6 C3.75,6.9372583 4.25367966,6.4 4.875,6.4 C5.49632034,6.4 6,6.9372583 6,7.6 C6,8.2627417 5.49632034,8.8 4.875,8.8 C4.25367966,8.8 3.75,8.2627417 3.75,7.6 Z M1.5,12 L1.5,10.4 L16.5,10.4 L16.5,12 L1.5,12 Z" id="Shape"></path>
            </g>
        </g>
    </g>
</svg>