<?xml version="1.0" encoding="UTF-8"?>
<svg width="148px" height="84px" viewBox="0 0 148 84" version="1.1" xmlns="http://www.w3.org/2000/svg" xmlns:xlink="http://www.w3.org/1999/xlink">
    <title>bike copy</title>
    <defs>
        <linearGradient x1="48.7826122%" y1="47.9844879%" x2="54.0556739%" y2="56.6576506%" id="linearGradient-1">
            <stop stop-color="#D4F7FF" offset="0%"></stop>
            <stop stop-color="#A2E3E9" offset="100%"></stop>
        </linearGradient>
        <linearGradient x1="48.7003618%" y1="47.8799348%" x2="53.9735878%" y2="56.5534529%" id="linearGradient-2">
            <stop stop-color="#D4F7FF" offset="0%"></stop>
            <stop stop-color="#A2E3E9" offset="100%"></stop>
        </linearGradient>
        <linearGradient x1="-5.58608424%" y1="-7.24730892%" x2="97.3954195%" y2="98.8135536%" id="linearGradient-3">
            <stop stop-color="#D4F7FF" offset="0%"></stop>
            <stop stop-color="#A2E3E9" offset="100%"></stop>
        </linearGradient>
        <linearGradient x1="105.585671%" y1="107.249796%" x2="2.60482979%" y2="1.18839567%" id="linearGradient-4">
            <stop stop-color="#D4F7FF" offset="0%"></stop>
            <stop stop-color="#A2E3E9" offset="100%"></stop>
        </linearGradient>
        <linearGradient x1="24.5465324%" y1="23.7858397%" x2="84.3593405%" y2="85.4008192%" id="linearGradient-5">
            <stop stop-color="#4F4A72" offset="0%"></stop>
            <stop stop-color="#3B395F" offset="100%"></stop>
        </linearGradient>
        <linearGradient x1="24.5465324%" y1="23.7712112%" x2="84.3593405%" y2="85.3861908%" id="linearGradient-6">
            <stop stop-color="#4F4A72" offset="0%"></stop>
            <stop stop-color="#3B395F" offset="100%"></stop>
        </linearGradient>
        <linearGradient x1="75.4534676%" y1="23.7858397%" x2="15.6406595%" y2="85.4008192%" id="linearGradient-7">
            <stop stop-color="#4F4A72" offset="0%"></stop>
            <stop stop-color="#3B395F" offset="100%"></stop>
        </linearGradient>
        <linearGradient x1="75.4676716%" y1="23.7858397%" x2="15.6406595%" y2="85.4008192%" id="linearGradient-8">
            <stop stop-color="#4F4A72" offset="0%"></stop>
            <stop stop-color="#3B395F" offset="100%"></stop>
        </linearGradient>
        <linearGradient x1="46.2938561%" y1="13.4423932%" x2="46.2938561%" y2="100.565974%" id="linearGradient-9">
            <stop stop-color="#4F4A72" offset="0%"></stop>
            <stop stop-color="#3B395F" offset="100%"></stop>
        </linearGradient>
        <linearGradient x1="46.3650819%" y1="13.3711673%" x2="46.3650819%" y2="100.494748%" id="linearGradient-10">
            <stop stop-color="#4F4A72" offset="0%"></stop>
            <stop stop-color="#3B395F" offset="100%"></stop>
        </linearGradient>
        <linearGradient x1="46.4751777%" y1="13.4423932%" x2="46.4651355%" y2="100.555632%" id="linearGradient-11">
            <stop stop-color="#4F4A72" offset="0%"></stop>
            <stop stop-color="#3B395F" offset="100%"></stop>
        </linearGradient>
        <linearGradient x1="46.4060187%" y1="13.3711673%" x2="46.3959765%" y2="100.484406%" id="linearGradient-12">
            <stop stop-color="#4F4A72" offset="0%"></stop>
            <stop stop-color="#3B395F" offset="100%"></stop>
        </linearGradient>
        <linearGradient x1="35.6757862%" y1="31.3010492%" x2="59.1621372%" y2="61.9649549%" id="linearGradient-13">
            <stop stop-color="#4F4A72" offset="0%"></stop>
            <stop stop-color="#3B395F" offset="100%"></stop>
        </linearGradient>
        <linearGradient x1="64.3272147%" y1="68.7050525%" x2="40.8384717%" y2="38.0384029%" id="linearGradient-14">
            <stop stop-color="#4F4A72" offset="0%"></stop>
            <stop stop-color="#3B395F" offset="100%"></stop>
        </linearGradient>
        <radialGradient cx="40.6859103%" cy="38.6908183%" fx="40.6859103%" fy="38.6908183%" r="60.1961903%" gradientTransform="translate(0.406859,0.386908),scale(0.977739,1.000000),translate(-0.406859,-0.386908)" id="radialGradient-15">
            <stop stop-color="#A34A9E" offset="0%"></stop>
            <stop stop-color="#9B489A" offset="15.51%"></stop>
            <stop stop-color="#84438F" offset="40.19%"></stop>
            <stop stop-color="#5E3B7D" offset="70.73%"></stop>
            <stop stop-color="#343168" offset="100%"></stop>
        </radialGradient>
        <linearGradient x1="35.7611481%" y1="30.7064918%" x2="59.1019493%" y2="62.3388075%" id="linearGradient-16">
            <stop stop-color="#4F4A72" offset="0%"></stop>
            <stop stop-color="#3B395F" offset="100%"></stop>
        </linearGradient>
        <linearGradient x1="105.588499%" y1="107.249796%" x2="2.60482979%" y2="1.18839567%" id="linearGradient-17">
            <stop stop-color="#D4F7FF" offset="0%"></stop>
            <stop stop-color="#A2E3E9" offset="100%"></stop>
        </linearGradient>
        <linearGradient x1="24.5465324%" y1="23.7858397%" x2="84.3735444%" y2="85.4008192%" id="linearGradient-18">
            <stop stop-color="#4F4A72" offset="0%"></stop>
            <stop stop-color="#3B395F" offset="100%"></stop>
        </linearGradient>
        <linearGradient x1="24.5465324%" y1="23.7712112%" x2="84.3735444%" y2="85.3861908%" id="linearGradient-19">
            <stop stop-color="#4F4A72" offset="0%"></stop>
            <stop stop-color="#3B395F" offset="100%"></stop>
        </linearGradient>
        <linearGradient x1="75.4534676%" y1="23.7858397%" x2="15.6264556%" y2="85.4008192%" id="linearGradient-20">
            <stop stop-color="#4F4A72" offset="0%"></stop>
            <stop stop-color="#3B395F" offset="100%"></stop>
        </linearGradient>
        <linearGradient x1="47.0370977%" y1="13.4423932%" x2="47.0370977%" y2="100.565974%" id="linearGradient-21">
            <stop stop-color="#4F4A72" offset="0%"></stop>
            <stop stop-color="#3B395F" offset="100%"></stop>
        </linearGradient>
        <linearGradient x1="47.1083236%" y1="13.3711673%" x2="47.1083236%" y2="100.494748%" id="linearGradient-22">
            <stop stop-color="#4F4A72" offset="0%"></stop>
            <stop stop-color="#3B395F" offset="100%"></stop>
        </linearGradient>
        <linearGradient x1="47.1968517%" y1="13.4423932%" x2="47.1868095%" y2="100.555632%" id="linearGradient-23">
            <stop stop-color="#4F4A72" offset="0%"></stop>
            <stop stop-color="#3B395F" offset="100%"></stop>
        </linearGradient>
        <linearGradient x1="47.1276927%" y1="13.3711673%" x2="47.1176505%" y2="100.484406%" id="linearGradient-24">
            <stop stop-color="#4F4A72" offset="0%"></stop>
            <stop stop-color="#3B395F" offset="100%"></stop>
        </linearGradient>
        <linearGradient x1="35.6750291%" y1="31.3010492%" x2="59.1621372%" y2="61.9649549%" id="linearGradient-25">
            <stop stop-color="#4F4A72" offset="0%"></stop>
            <stop stop-color="#3B395F" offset="100%"></stop>
        </linearGradient>
        <radialGradient cx="40.6865857%" cy="38.6908183%" fx="40.6865857%" fy="38.6908183%" r="60.1961903%" gradientTransform="translate(0.406866,0.386908),scale(0.977739,1.000000),translate(-0.406866,-0.386908)" id="radialGradient-26">
            <stop stop-color="#A34A9E" offset="0%"></stop>
            <stop stop-color="#9B489A" offset="15.51%"></stop>
            <stop stop-color="#84438F" offset="40.19%"></stop>
            <stop stop-color="#5E3B7D" offset="70.73%"></stop>
            <stop stop-color="#343168" offset="100%"></stop>
        </radialGradient>
        <linearGradient x1="35.7611481%" y1="30.7064918%" x2="59.1073002%" y2="62.3388075%" id="linearGradient-27">
            <stop stop-color="#4F4A72" offset="0%"></stop>
            <stop stop-color="#3B395F" offset="100%"></stop>
        </linearGradient>
        <linearGradient x1="43.63349%" y1="39.8109612%" x2="63.3856923%" y2="76.6035516%" id="linearGradient-28">
            <stop stop-color="#C4F8B6" offset="0%"></stop>
            <stop stop-color="#3B8EAC" offset="100%"></stop>
        </linearGradient>
        <linearGradient x1="48.2862457%" y1="48.6279825%" x2="52.9750518%" y2="52.3706244%" id="linearGradient-29">
            <stop stop-color="#D4F7FF" offset="0%"></stop>
            <stop stop-color="#A2E3E9" offset="100%"></stop>
        </linearGradient>
        <linearGradient x1="46.158575%" y1="44.9519386%" x2="55.2133884%" y2="56.8492582%" id="linearGradient-30">
            <stop stop-color="#4F4A72" offset="0%"></stop>
            <stop stop-color="#3B395F" offset="100%"></stop>
        </linearGradient>
        <linearGradient x1="31.1387962%" y1="16.6458428%" x2="66.0120794%" y2="78.3128881%" id="linearGradient-31">
            <stop stop-color="#D4F7FF" offset="0%"></stop>
            <stop stop-color="#A2E3E9" offset="100%"></stop>
        </linearGradient>
        <linearGradient x1="31.4885047%" y1="42.7584724%" x2="78.1347829%" y2="75.3789779%" id="linearGradient-32">
            <stop stop-color="#C4F8B6" offset="0%"></stop>
            <stop stop-color="#3B8EAC" offset="100%"></stop>
        </linearGradient>
        <linearGradient x1="41.1856781%" y1="50.2063535%" x2="-113.67786%" y2="45.441463%" id="linearGradient-33">
            <stop stop-color="#A34A9E" stop-opacity="0" offset="0%"></stop>
            <stop stop-color="#343168" offset="100%"></stop>
        </linearGradient>
        <linearGradient x1="22.9004655%" y1="11.8797376%" x2="61.5504692%" y2="66.2494426%" id="linearGradient-34">
            <stop stop-color="#4F4A72" offset="0%"></stop>
            <stop stop-color="#3B395F" offset="100%"></stop>
        </linearGradient>
        <linearGradient x1="1.17529513%" y1="40.0512201%" x2="99.1772474%" y2="60.1880482%" id="linearGradient-35">
            <stop stop-color="#4F4A72" offset="0%"></stop>
            <stop stop-color="#3B395F" offset="100%"></stop>
        </linearGradient>
        <linearGradient x1="8.82300939%" y1="35.2070427%" x2="92.0479249%" y2="65.9782858%" id="linearGradient-36">
            <stop stop-color="#4F4A72" offset="0%"></stop>
            <stop stop-color="#3B395F" offset="100%"></stop>
        </linearGradient>
        <linearGradient x1="48.0765345%" y1="48.1311668%" x2="55.238489%" y2="55.0883084%" id="linearGradient-37">
            <stop stop-color="#4F4A72" offset="0%"></stop>
            <stop stop-color="#3B395F" offset="100%"></stop>
        </linearGradient>
        <linearGradient x1="48.2536287%" y1="48.6644457%" x2="54.7557853%" y2="53.6364013%" id="linearGradient-38">
            <stop stop-color="#D4F7FF" offset="0%"></stop>
            <stop stop-color="#A2E3E9" offset="100%"></stop>
        </linearGradient>
        <linearGradient x1="52.7508981%" y1="76.4092673%" x2="-40.0352762%" y2="11.1577928%" id="linearGradient-39">
            <stop stop-color="#A34A9E" stop-opacity="0" offset="0%"></stop>
            <stop stop-color="#343168" offset="100%"></stop>
        </linearGradient>
        <linearGradient x1="42.0101723%" y1="25.595016%" x2="60.6419609%" y2="70.9138746%" id="linearGradient-40">
            <stop stop-color="#C4F8B6" offset="0%"></stop>
            <stop stop-color="#3B8EAC" offset="100%"></stop>
        </linearGradient>
        <linearGradient x1="20.1262933%" y1="38.198802%" x2="95.257295%" y2="66.8573299%" id="linearGradient-41">
            <stop stop-color="#A34A9E" stop-opacity="0" offset="0%"></stop>
            <stop stop-color="#343168" offset="100%"></stop>
        </linearGradient>
        <linearGradient x1="51.6741867%" y1="45.2513713%" x2="49.7993976%" y2="54.7935121%" id="linearGradient-42">
            <stop stop-color="#C4F8B6" offset="0%"></stop>
            <stop stop-color="#3B8EAC" offset="100%"></stop>
        </linearGradient>
        <linearGradient x1="46.4370952%" y1="46.2227976%" x2="74.7276522%" y2="62.1345077%" id="linearGradient-43">
            <stop stop-color="#C4F8B6" offset="0%"></stop>
            <stop stop-color="#3B8EAC" offset="100%"></stop>
        </linearGradient>
        <linearGradient x1="46.031746%" y1="33.1717039%" x2="98.8703643%" y2="119.284536%" id="linearGradient-44">
            <stop stop-color="#FF4974" offset="0%"></stop>
            <stop stop-color="#FB3F6C" offset="22.31%"></stop>
            <stop stop-color="#F12357" offset="60.75%"></stop>
            <stop stop-color="#E4003D" offset="100%"></stop>
        </linearGradient>
        <linearGradient x1="43.9243351%" y1="22.7838986%" x2="65.1022805%" y2="75.732066%" id="linearGradient-45">
            <stop stop-color="#FFE548" offset="0%"></stop>
            <stop stop-color="#FFDE50" offset="17.58%"></stop>
            <stop stop-color="#FFCA65" offset="44.46%"></stop>
            <stop stop-color="#FFAA87" offset="77.09%"></stop>
            <stop stop-color="#FF90A4" offset="100%"></stop>
        </linearGradient>
        <linearGradient x1="41.07213%" y1="20.5816952%" x2="58.0428165%" y2="78.1826766%" id="linearGradient-46">
            <stop stop-color="#4F4A72" offset="0%"></stop>
            <stop stop-color="#3B395F" offset="100%"></stop>
        </linearGradient>
        <linearGradient x1="35.0860821%" y1="-15.2720866%" x2="63.601283%" y2="102.610915%" id="linearGradient-47">
            <stop stop-color="#FFE548" offset="0%"></stop>
            <stop stop-color="#FFDE50" offset="17.58%"></stop>
            <stop stop-color="#FFCA65" offset="44.46%"></stop>
            <stop stop-color="#FFAA87" offset="77.09%"></stop>
            <stop stop-color="#FF90A4" offset="100%"></stop>
        </linearGradient>
        <linearGradient x1="50.9833252%" y1="55.0904511%" x2="-19.2186657%" y2="73.2713063%" id="linearGradient-48">
            <stop stop-color="#A34A9E" stop-opacity="0" offset="0%"></stop>
            <stop stop-color="#343168" offset="100%"></stop>
        </linearGradient>
        <linearGradient x1="40.5200571%" y1="23.1847513%" x2="73.2013893%" y2="123.076954%" id="linearGradient-49">
            <stop stop-color="#4F4A72" offset="0%"></stop>
            <stop stop-color="#3B395F" offset="100%"></stop>
        </linearGradient>
        <linearGradient x1="48.2397301%" y1="48.9961903%" x2="162.647412%" y2="34.0606045%" id="linearGradient-50">
            <stop stop-color="#A34A9E" stop-opacity="0" offset="0%"></stop>
            <stop stop-color="#343168" offset="100%"></stop>
        </linearGradient>
        <linearGradient x1="47.0200969%" y1="49.8792921%" x2="157.865091%" y2="35.3336401%" id="linearGradient-51">
            <stop stop-color="#4F4A72" offset="0%"></stop>
            <stop stop-color="#3B395F" offset="100%"></stop>
        </linearGradient>
        <linearGradient x1="46.4689115%" y1="24.3757245%" x2="63.6548292%" y2="119.357944%" id="linearGradient-52">
            <stop stop-color="#D4F7FF" offset="0%"></stop>
            <stop stop-color="#A2E3E9" offset="100%"></stop>
        </linearGradient>
        <linearGradient x1="118.715716%" y1="112.807091%" x2="22.0349665%" y2="21.3043139%" id="linearGradient-53">
            <stop stop-color="#A2E3E9" stop-opacity="0" offset="0%"></stop>
            <stop stop-color="#518CD2" offset="100%"></stop>
        </linearGradient>
        <linearGradient x1="42.4801238%" y1="26.9744108%" x2="69.998367%" y2="77.6449058%" id="linearGradient-54">
            <stop stop-color="#D4F7FF" offset="0%"></stop>
            <stop stop-color="#A2E3E9" offset="100%"></stop>
        </linearGradient>
        <linearGradient x1="49.1404675%" y1="48.3768206%" x2="50.5773912%" y2="51.7787909%" id="linearGradient-55">
            <stop stop-color="#C4F8B6" offset="0%"></stop>
            <stop stop-color="#3B8EAC" offset="100%"></stop>
        </linearGradient>
    </defs>
    <g id="Page-1" stroke="none" stroke-width="1" fill="none" fill-rule="evenodd" >
        <g id="PERSONAL-INFORMATION_1" transform="translate(-646.000000, -1512.000000)" fill-rule="nonzero">
            <g id="bike-copy" style="mix-blend-mode: luminosity;" transform="translate(646.000000, 1512.000000)">
                <path d="M146.996937,43.050335 L129.275841,48.7939726 C128.517559,49.0395857 127.706752,48.6152109 127.464729,47.8456819 L126.719216,45.4767222 C126.477192,44.7074877 126.895365,43.8843596 127.653646,43.6387464 L145.374742,37.8954033 C146.133024,37.6497902 146.943831,38.074165 147.185854,38.843694 L147.931367,41.2126537 C148.173391,41.9815937 147.754928,42.8044273 146.996937,43.050335 L146.996937,43.050335 Z" id="Path" fill="url(#linearGradient-1)"></path>
                <path d="M138.750153,48.8696591 L101.398472,60.9756792 C99.8003639,61.4937051 98.0914009,60.5987189 97.5809465,58.9772008 L96.0095363,53.9842442 C95.4990819,52.3624316 96.3809869,50.6281199 97.9788049,50.110094 L135.330486,38.0040739 C136.928594,37.4860481 138.637557,38.3810342 139.148011,40.0025523 L140.719421,44.9955089 C141.229876,46.617027 140.348261,48.3516332 138.750153,48.8696591 L138.750153,48.8696591 Z" id="Path" fill="url(#linearGradient-2)"></path>
                <ellipse id="Oval" fill="url(#linearGradient-3)" cx="126.515788" cy="62.9941836" rx="8.57296406" ry="8.70012516"></ellipse>
                <ellipse id="Oval" fill="url(#linearGradient-4)" cx="126.515788" cy="62.9941836" rx="4.98150095" ry="5.05539058"></ellipse>
                <ellipse id="Oval" fill="url(#linearGradient-5)" cx="126.515788" cy="56.1570668" rx="1" ry="1.00660171"></ellipse>
                <ellipse id="Oval" fill="url(#linearGradient-6)" cx="126.515788" cy="69.831595" rx="1" ry="1.00660171"></ellipse>
                <ellipse id="Oval" fill="url(#linearGradient-7)" cx="133.252974" cy="62.9941836" rx="1" ry="1.00660171"></ellipse>
                <ellipse id="Oval" fill="url(#linearGradient-8)" cx="119.778313" cy="62.9941836" rx="1" ry="1.00660171"></ellipse>
                <ellipse id="Oval" fill="url(#linearGradient-9)" cx="131.279643" cy="58.1596682" rx="1" ry="1.00660171"></ellipse>
                <ellipse id="Oval" fill="url(#linearGradient-10)" cx="121.751644" cy="67.8289935" rx="1" ry="1.00660171"></ellipse>
                <ellipse id="Oval" fill="url(#linearGradient-11)" cx="121.751644" cy="58.1596682" rx="1" ry="1.00660171"></ellipse>
                <ellipse id="Oval" fill="url(#linearGradient-12)" cx="131.279643" cy="67.8289935" rx="1" ry="1.00660171"></ellipse>
                <path d="M128.885237,44.401502 L128.885237,44.2539573 L124.14605,44.2539573 L124.14605,44.401502 C114.679283,45.5435738 107.348356,53.4294058 107.348356,62.9944781 C107.348356,73.344688 115.929736,81.7349989 126.515498,81.7349989 C137.10126,81.7349989 145.68264,73.3443935 145.68264,62.9944781 C145.68264,53.4291113 138.352004,45.5435738 128.885237,44.401502 Z M139.712732,62.9941836 C139.712732,63.512504 139.681101,64.0234618 139.61987,64.5252902 C139.508144,65.4423639 138.537439,65.9765872 137.70835,65.5946205 L128.885527,61.5272781 L128.885527,52.0617469 C128.885527,51.1284757 129.780781,50.4602547 130.657173,50.7432694 C135.916391,52.4413576 139.712732,57.2829411 139.712732,62.9941836 Z M124.14605,52.0617469 L124.14605,61.5272781 L115.323227,65.5946205 C114.494138,65.9768817 113.523433,65.4423639 113.411707,64.5252902 C113.350476,64.0231673 113.318845,63.5122095 113.318845,62.9941836 C113.318845,57.2829411 117.115186,52.4413576 122.374404,50.7432694 C123.250796,50.4605492 124.14605,51.1284757 124.14605,52.0617469 Z M126.515788,75.8974158 C122.854388,75.8974158 119.542384,74.4384617 117.152041,72.0836381 C116.470371,71.4121776 116.686857,70.2483128 117.551931,69.8495595 L126.515788,65.717427 L135.479646,69.8495595 C136.34472,70.2483128 136.561206,71.4118831 135.879536,72.0836381 C133.489193,74.4384617 130.177189,75.8974158 126.515788,75.8974158 Z" id="Shape" fill="url(#linearGradient-13)"></path>
                <path d="M126.515788,82.9191842 C137.770452,82.9191842 146.894207,73.9984784 146.894207,62.9944781 C146.894207,51.9904778 137.770452,43.069772 126.515788,43.069772 C115.261125,43.069772 106.137369,51.9904778 106.137369,62.9944781 C106.137369,73.9984784 115.261125,82.9191842 126.515788,82.9191842 Z M126.515788,49.2757749 C134.264887,49.2757749 140.546465,55.4175768 140.546465,62.9941836 C140.546465,70.5707905 134.264596,76.7125923 126.515788,76.7125923 C118.76669,76.7125923 112.485112,70.5707905 112.485112,62.9941836 C112.484822,55.4178713 118.76669,49.2757749 126.515788,49.2757749 Z" id="Shape" fill="url(#linearGradient-14)"></path>
                <path d="M126.515788,41.9883672 C114.650553,41.9883672 105.031723,51.3932314 105.031723,62.9941836 C105.031723,74.5951358 114.650553,84 126.515788,84 C138.381024,84 147.999853,74.5954303 147.999853,62.9941836 C147.999853,51.3929369 138.381024,41.9883672 126.515788,41.9883672 Z M126.515788,77.4570889 C118.346197,77.4570889 111.723638,70.9819128 111.723638,62.9941836 C111.723638,55.0064545 118.346197,48.5312784 126.515788,48.5312784 C134.68538,48.5312784 141.307939,55.0064545 141.307939,62.9941836 C141.307939,70.9819128 134.68509,77.4570889 126.515788,77.4570889 Z" id="Shape" fill="url(#radialGradient-15)"></path>
                <ellipse id="Oval" fill="url(#linearGradient-16)" cx="126.515788" cy="62.9941836" rx="2.63294641" ry="2.67200039"></ellipse>
                <ellipse id="Oval" fill="url(#linearGradient-3)" cx="21.484065" cy="62.9941836" rx="8.57296406" ry="8.70012516"></ellipse>
                <ellipse id="Oval" fill="url(#linearGradient-17)" cx="21.484065" cy="62.9941836" rx="4.98150095" ry="5.05539058"></ellipse>
                <ellipse id="Oval" fill="url(#linearGradient-18)" cx="21.484065" cy="56.1570668" rx="1" ry="1.00660171"></ellipse>
                <ellipse id="Oval" fill="url(#linearGradient-19)" cx="21.484065" cy="69.831595" rx="1" ry="1.00660171"></ellipse>
                <ellipse id="Oval" fill="url(#linearGradient-20)" cx="28.2215407" cy="62.9941836" rx="1" ry="1.00660171"></ellipse>
                <ellipse id="Oval" fill="url(#linearGradient-7)" cx="14.7468795" cy="62.9941836" rx="1" ry="1.00660171"></ellipse>
                <ellipse id="Oval" fill="url(#linearGradient-21)" cx="26.2482093" cy="58.1596682" rx="1" ry="1.00660171"></ellipse>
                <ellipse id="Oval" fill="url(#linearGradient-22)" cx="16.7202109" cy="67.8289935" rx="1" ry="1.00660171"></ellipse>
                <ellipse id="Oval" fill="url(#linearGradient-23)" cx="16.7202109" cy="58.1596682" rx="1" ry="1.00660171"></ellipse>
                <ellipse id="Oval" fill="url(#linearGradient-24)" cx="26.2482093" cy="67.8289935" rx="1" ry="1.00660171"></ellipse>
                <path d="M23.8538038,44.401502 L23.8538038,44.2539573 L19.1146164,44.2539573 L19.1146164,44.401502 C9.64784927,45.5435738 2.3169232,53.4294058 2.3169232,62.9944781 C2.3169232,73.344688 10.8983029,81.7349989 21.484065,81.7349989 C32.0698271,81.7349989 40.6512068,73.3443935 40.6512068,62.9944781 C40.6512068,53.4291113 33.3205709,45.5435738 23.8538038,44.401502 Z M34.6810088,62.9941836 C34.6810088,63.512504 34.6493775,64.0234618 34.5881461,64.5252902 C34.4764208,65.4423639 33.5057158,65.9765872 32.6766265,65.5946205 L23.8538038,61.5272781 L23.8538038,52.0617469 C23.8538038,51.1284757 24.7490578,50.4602547 25.6254491,50.7432694 C30.8846675,52.4413576 34.6810088,57.2829411 34.6810088,62.9941836 L34.6810088,62.9941836 Z M19.1146164,52.0617469 L19.1146164,61.5272781 L10.2917937,65.5946205 C9.46270436,65.9768817 8.49199943,65.4423639 8.38027406,64.5252902 C8.31904274,64.0231673 8.2874114,63.5122095 8.2874114,62.9941836 C8.2874114,57.2829411 12.0837527,52.4413576 17.3429711,50.7432694 C18.2193624,50.4605492 19.1146164,51.1284757 19.1146164,52.0617469 Z M21.484065,75.8974158 C17.8226647,75.8974158 14.5106601,74.4384617 12.1203174,72.0836381 C11.4386475,71.4121776 11.6551336,70.2483128 12.5202072,69.8495595 L21.484065,65.717427 L30.4479228,69.8495595 C31.3129964,70.2483128 31.5294825,71.4118831 30.8478126,72.0836381 C28.4574699,74.4384617 25.1454653,75.8974158 21.484065,75.8974158 Z" id="Shape" fill="url(#linearGradient-25)"></path>
                <path d="M21.484065,82.9191842 C32.7387284,82.9191842 41.862484,73.9984784 41.862484,62.9944781 C41.862484,51.9904778 32.7387284,43.069772 21.484065,43.069772 C10.2294016,43.069772 1.10564596,51.9904778 1.10564596,62.9944781 C1.10564596,73.9984784 10.2294016,82.9191842 21.484065,82.9191842 Z M21.484065,49.2757749 C29.2331632,49.2757749 35.5147413,55.4175768 35.5147413,62.9941836 C35.5147413,70.5707905 29.232873,76.7125923 21.484065,76.7125923 C13.7349668,76.7125923 7.4533887,70.5707905 7.4533887,62.9941836 C7.4533887,55.4178713 13.735257,49.2757749 21.484065,49.2757749 Z" id="Shape" fill="url(#linearGradient-14)"></path>
                <path d="M21.484065,41.9883672 C9.61882969,41.9883672 0,51.3929369 0,62.9941836 C0,74.5954303 9.61882969,84 21.484065,84 C33.3493003,84 42.96813,74.5954303 42.96813,62.9941836 C42.96813,51.3929369 33.3495905,41.9883672 21.484065,41.9883672 Z M21.484065,77.4570889 C13.3144731,77.4570889 6.69191494,70.9819128 6.69191494,62.9941836 C6.69191494,55.0064545 13.3144731,48.5312784 21.484065,48.5312784 C29.6536569,48.5312784 36.2762151,55.0064545 36.2762151,62.9941836 C36.2762151,70.9819128 29.6536569,77.4570889 21.484065,77.4570889 Z" id="Shape" fill="url(#radialGradient-26)"></path>
                <ellipse id="Oval" fill="url(#linearGradient-27)" cx="21.484065" cy="62.9941836" rx="2.63294641" ry="2.67200039"></ellipse>
                <path d="M9.3077398,44.459224 L17.9027587,47.8692419 C19.6044669,48.5445309 20.7246226,50.2090461 20.7246226,52.0635139 C20.7246226,53.8823472 21.8029902,55.5227133 23.4576866,56.2215623 L26.0444919,57.3135691 C27.2563495,57.825116 28.6559638,57.4455052 29.4545826,56.3885439 C30.9653419,54.389182 33.5628844,53.587847 35.9146311,54.3953665 L41.0737319,56.1673743 C42.3349228,56.6005841 43.5807333,55.4735318 43.3004042,54.1524039 C40.652948,41.665595 27.5059179,34.6635581 15.8757411,39.545488 L9.28684571,42.311434 C8.33761527,42.7098928 8.35067408,44.0796132 9.3077398,44.459224 L9.3077398,44.459224 Z" id="Path" fill="url(#linearGradient-28)"></path>
                <path d="M21.1474379,64.1156404 C20.0725527,63.7481042 19.495063,62.5659803 19.8572274,61.4751515 L27.7023804,37.7039782 C28.0645448,36.6131494 29.2293907,36.027094 30.3042759,36.3946303 C31.3791611,36.7621665 31.9566507,37.9442904 31.5944864,39.0351191 L23.7493333,62.8062925 C23.387169,63.8968268 22.2220329,64.4831767 21.1474379,64.1156404 L21.1474379,64.1156404 Z" id="Path" fill="url(#linearGradient-29)"></path>
                <path d="M87.7137092,29.0297691 C89.0854647,29.9009007 90.821416,29.9235772 92.2146459,29.0880801 L98.6410317,25.2342504 C102.049962,23.1901244 105.937134,22.1116647 109.896566,22.1116647 L116.327885,22.1116647 L96.028399,42.7122488 L76.202803,42.7122488 L81.4721782,30.9384249 C82.5557692,28.5173387 85.4925506,27.6191131 87.7137092,29.0297691 L87.7137092,29.0297691 Z" id="Path" fill="url(#linearGradient-30)"></path>
                <ellipse id="Oval" fill="url(#linearGradient-31)" cx="33.8693312" cy="21.5780303" rx="7.66465123" ry="7.77833951"></ellipse>
                <path d="M39.3769571,22.6208555 L47.3904237,19.1601836 C58.0609229,14.5518443 70.3910519,16.5794782 79.0815452,24.3713648 L81.305896,26.3657202 C82.5926241,27.5192775 82.9463728,29.4108523 82.1654559,30.9628684 L77.2324176,40.7673694 C76.8545827,41.5183449 76.0939796,41.9907232 75.263149,41.9907232 L32.650799,41.9907232 L32.650799,32.9442658 C32.650799,28.4457751 35.2982552,24.3825558 39.3769571,22.6208555 Z" id="Path" fill="url(#linearGradient-32)"></path>
                <path d="M81.305896,26.3657202 L79.0815452,24.3713648 C77.2486686,22.7280536 75.2524118,21.3441971 73.1453001,20.2218568 L57.0118651,28.6928608 C54.0568014,30.2445824 52.2009993,33.3391906 52.2009993,36.7156355 L52.2009993,41.9907232 L75.263149,41.9907232 C76.0939796,41.9907232 76.8545827,41.5180504 77.2324176,40.7673694 L82.1654559,30.9628684 C82.9463728,29.4108523 82.5926241,27.5192775 81.305896,26.3657202 L81.305896,26.3657202 Z" id="Path" fill="url(#linearGradient-33)"></path>
                <ellipse id="Oval" fill="url(#linearGradient-34)" cx="39.5249569" cy="22.4306084" rx="4.55578372" ry="4.62335877"></ellipse>
                <path d="M49.6850018,29.1941002 L39.3958198,25.6232851 C37.8473351,25.0858223 37.0211477,23.3762486 37.550755,21.8045009 C38.0803623,20.2330478 39.7649489,19.3946057 41.3137238,19.9320686 L51.6026156,23.5028836 C53.1511003,24.0403465 53.9772877,25.7499202 53.4476804,27.3216679 C52.9180731,28.893121 51.2334865,29.7312686 49.6850018,29.1941002 Z" id="Path" fill="url(#linearGradient-35)"></path>
                <path d="M49.6850018,29.1941002 L50.0901151,29.3345768 C48.5416304,28.7971139 47.715443,27.0875402 48.2450503,25.5160871 C48.7746576,23.944634 50.4592442,23.1061919 52.0080191,23.6436547 L51.6029058,23.5031781 C53.1513905,24.040641 53.9775779,25.7502147 53.4479706,27.3219624 C52.9180731,28.893121 51.2334865,29.7312686 49.6850018,29.1941002 Z" id="Path" fill="url(#linearGradient-36)"></path>
                <path d="M125.752574,69.3282941 L76.475587,69.3282941 C73.0286414,69.3282941 70.2343461,66.4925516 70.2343461,62.9944781 C70.2343461,59.4964046 73.0286414,56.6606621 76.475587,56.6606621 L125.752283,56.6606621 C129.199229,56.6606621 131.993524,59.4964046 131.993524,62.9944781 C131.993524,66.4925516 129.199519,69.3282941 125.752574,69.3282941 Z" id="Path" fill="url(#linearGradient-37)"></path>
                <path d="M76.475587,67.725035 C73.9050327,67.725035 71.8138818,65.6028665 71.8138818,62.9941836 C71.8138818,60.3857953 73.9050327,58.2633323 76.475587,58.2633323 L125.752574,58.2633323 C128.323128,58.2633323 130.413989,60.3857953 130.413989,62.9941836 C130.413989,65.6028665 128.323128,67.725035 125.752574,67.725035 L76.475587,67.725035 Z" id="Path" fill="url(#linearGradient-38)"></path>
                <polygon id="Path" fill="url(#linearGradient-39)" points="97.4753152 69.3282941 115.408835 69.3282941 102.9516 56.6859892 102.919969 56.6603676 97.4753152 56.6603676"></polygon>
                <path d="M38.4036404,8.33750326e-15 C32.4642031,8.33750326e-15 26.7934872,2.76123396 22.8508872,7.6296169 C18.9773538,12.4131838 15.0553576,18.9879009 15.0553576,26.0011289 C15.0553576,29.4273443 41.7928371,65.0327141 41.7928371,65.0327141 C45.1652023,70.0654281 50.5207657,73.0398802 56.21876,73.0398802 L95.9886422,73.0398802 C98.9370314,73.0398802 101.327084,70.4200064 101.327084,67.1890446 C101.327084,54.6330282 108.380293,43.3728127 119.072557,38.8604805 C126.84487,35.5803372 135.147952,32.0763737 139.385972,30.2881685 C141.10306,29.5636979 142.233953,27.7560557 142.233953,25.7399072 C142.233953,22.1808722 139.603038,19.2956537 136.355457,19.2953592 C129.563425,19.2947702 118.597216,19.2947702 112.931143,19.2947702 C110.592745,19.2947702 108.352434,20.3125629 106.698898,22.1246227 L102.069695,29.3183793 C97.1964371,36.8914521 89.2677077,41.3961273 80.8116925,41.3961273 L60.7214379,41.3961273 C54.207413,41.3961273 47.9844544,38.4372837 43.5345922,33.224041 L37.3960806,26.0329349 C33.5660766,21.5459298 33.6540059,14.5450708 37.5954451,10.1752767 C39.4883923,8.10081724 40.5516697,5.28745675 40.5516697,2.35394017 C40.5510893,1.05372175 39.5896706,8.33750326e-15 38.4036404,8.33750326e-15 Z" id="Path" fill="url(#linearGradient-40)"></path>
                <path d="M37.7924881,2.35335117 C37.7924881,5.28686774 36.7289205,8.10022824 34.8362635,10.1746877 C30.8948243,14.5444818 30.806895,21.5453408 34.636899,26.0323459 L40.7754106,33.223452 C45.2255631,38.4366947 51.4482314,41.3955383 57.9622563,41.3955383 L60.7211477,41.3955383 C54.2071228,41.3955383 47.9841643,38.4366947 43.534302,33.223452 L37.3957904,26.0323459 C33.5657864,21.5453408 33.6537157,14.5444818 37.5948647,10.1746877 C39.4878119,8.10022824 40.5510893,5.28686774 40.5510893,2.35335117 C40.5510893,1.05372175 39.5896706,1.25062549e-14 38.4036404,1.25062549e-14 C37.701947,1.25062549e-14 37.0046065,0.0415245294 36.3127797,0.117505583 C37.1717593,0.425552801 37.7924881,1.30964243 37.7924881,2.35335117 L37.7924881,2.35335117 Z" id="Path" fill="url(#linearGradient-41)"></path>
                <path d="M135.088753,22.1116647 L111.870477,22.1116647 C111.870477,18.5387881 114.724553,15.6423786 118.245208,15.6423786 L128.714312,15.6423786 C132.234677,15.6423786 135.088753,18.5387881 135.088753,22.1116647 L135.088753,22.1116647 Z" id="Path" fill="url(#linearGradient-42)"></path>
                <path d="M43.5340118,33.2237465 L39.4611139,28.4525487 C39.9181722,29.5460279 40.5383206,30.5785457 41.3279434,31.5035708 L47.466455,38.6946769 C51.9166074,43.9079196 58.1392758,46.8664687 64.6533007,46.8664687 L84.7435553,46.8664687 C93.1998607,46.8664687 101.1283,42.3617935 106.001848,34.7887206 L110.631051,27.594964 C112.284587,25.7829043 114.524898,24.7651115 116.863296,24.7651115 C122.529369,24.7651115 133.495578,24.765406 140.28761,24.7657005 C140.960284,24.7657005 141.603648,24.8955751 142.205224,25.1235183 C141.922283,21.8536825 139.41296,19.2950647 136.355167,19.2947702 C129.563134,19.2941812 118.596926,19.2941812 112.930853,19.2941812 C110.592455,19.2941812 108.352144,20.3119739 106.698608,22.1240337 L102.069405,29.3177903 C97.1961469,36.8908631 89.2674175,41.3955383 80.8114023,41.3955383 L60.7211477,41.3955383 C54.2068326,41.3955383 47.9841643,38.4366947 43.5340118,33.2237465 Z" id="Path" fill="url(#linearGradient-43)"></path>
                <path d="M134.244863,28.0034358 C134.244863,30.1229538 136.368806,31.5609984 138.297447,30.7472943 L139.386262,30.287874 C141.10335,29.5634034 142.234243,27.7557612 142.234243,25.7396127 C142.234243,25.407711 142.204353,25.0840553 142.159953,24.765406 L137.435856,24.765406 C135.673207,24.765406 134.244863,26.2152306 134.244863,28.0034358 L134.244863,28.0034358 Z" id="Path" fill="url(#linearGradient-44)"></path>
                <path d="M137.757973,24.765406 L137.554256,24.765406 C135.786673,24.765406 134.394314,25.8989373 134.258502,27.7045181 C134.245734,27.8741502 134.24051,28.0396594 134.250957,28.2010455 C134.393443,30.4560336 137.757973,30.2775664 137.757973,28.0178663 L137.757973,24.765406 Z" id="Path" fill="url(#linearGradient-45)"></path>
                <path d="M16.4114426,18.6200702 L16.425372,18.6244877 C19.2959887,19.5389108 22.4109504,18.4510271 24.1402271,15.9521928 C27.2711495,11.4280806 32.926485,4.45048715 40.0519525,0.845804599 C39.6581568,0.329251233 39.0661574,0 38.4036404,0 C32.4642031,0 26.7934872,2.76123396 22.8508872,7.6296169 C20.37987,10.6812281 17.8911509,14.4620217 16.4114426,18.6200702 Z" id="Path" fill="url(#linearGradient-46)"></path>
                <path d="M24.0952467,26.048838 L24.5787129,24.9565367 C25.5621865,22.7342381 23.9603057,20.2218568 21.5598061,20.2218568 L15.8966352,20.2218568 C15.3652867,22.0937001 15.0553576,24.030039 15.0553576,26.0011289 C15.0553576,26.5459543 15.7329648,27.9062508 16.8696617,29.8051881 L18.3746171,29.8051881 C20.8438931,29.8051881 23.083334,28.3347486 24.0952467,26.048838 Z" id="Path" fill="url(#linearGradient-47)"></path>
                <path d="M106.137369,22.9963433 L102.069405,29.3177903 C97.1961469,36.8908631 89.2674175,41.3955383 80.8114023,41.3955383 L76.8925984,41.3955383 L69.6475703,54.7914693 C67.9037837,58.0156576 68.877971,62.057673 71.8916543,64.1009154 L85.0752491,73.0395857 L95.9886422,73.0395857 C98.9370314,73.0395857 101.327084,70.4203009 101.327084,67.1893391 C101.327084,60.9479962 103.071161,55.0276585 106.137369,50.096547 L106.137369,22.9963433 Z" id="Path" fill="url(#linearGradient-48)"></path>
                <path d="M69.6469899,54.9787714 C67.870121,58.0981177 68.7883005,62.0815275 71.7442348,64.0773554 L79.9704149,69.6322183 C80.7954416,70.1947137 81.7913935,70.4394434 82.7786396,70.3225268 C85.0656726,70.0515866 86.7035377,67.9503276 86.4365576,65.6293715 L86.2606989,64.1006209 C85.6982995,59.2104449 82.3395734,55.120426 77.7010838,53.6776695 L73.3870332,52.3356321 C72.2761637,51.9901833 71.0770747,52.4684517 70.4955224,53.4894839 L69.6469899,54.9787714 Z" id="Path" fill="url(#linearGradient-49)"></path>
                <path d="M42.2815268,46.3051513 L25.2899828,42.3918325 C28.0314624,46.2839473 30.958087,50.3347977 33.5750726,53.9173927 C34.20857,54.6792647 34.792444,55.4776548 35.3252435,56.3069674 C39.0510672,61.3809115 41.7931272,65.0324196 41.7931272,65.0324196 C41.9901702,65.3266253 42.1953386,65.611996 42.4057306,65.8917712 L46.7279067,54.8821754 C48.15567,51.2445088 46.0447858,47.1718654 42.2815268,46.3051513 L42.2815268,46.3051513 Z" id="Path" fill="url(#linearGradient-50)"></path>
                <path d="M42.2815268,46.3051513 L37.5847079,45.223452 C36.999383,45.0885709 36.6383794,45.8513265 37.1084966,46.2306427 L40.4788305,48.9506467 C42.6140911,50.6737674 44.1727327,53.0241736 44.9420418,55.6805654 L44.9687398,55.7730385 C45.1649121,56.4506835 46.0946995,56.4948585 46.3521031,55.8384176 L46.7273263,54.8824699 C48.15567,51.2445088 46.0447858,47.1718654 42.2815268,46.3051513 Z" id="Path" fill="url(#linearGradient-51)"></path>
                <path d="M81.5885467,61.2860824 C81.5885467,61.7446192 81.550531,62.1966771 81.4779821,62.6328319 C81.4338723,62.892581 81.3801861,63.1490907 81.3105391,63.3991214 C81.2916764,63.482465 81.2693313,63.569048 81.2408921,63.6523916 C81.2345078,63.6812526 81.2252215,63.7133531 81.2124529,63.7422142 C81.1872059,63.8352762 81.1555745,63.9280438 81.1239432,64.0211058 C81.1111746,64.0467274 81.1050805,64.0723489 81.095504,64.0979704 C81.0511041,64.2134145 81.0069943,64.3288586 80.9596924,64.4410631 C80.8996219,64.5853682 80.8363592,64.7264338 80.7670024,64.8674994 C80.7260848,64.950843 80.684877,65.0341866 80.6407672,65.1175301 C80.6282888,65.1399121 80.6187123,65.1622942 80.6059437,65.1849707 C80.5615438,65.2650747 80.517434,65.3451788 80.4701321,65.4255773 C80.2173716,65.8552531 79.9297875,66.2560679 79.604478,66.6312612 C79.5635604,66.6825042 79.5191605,66.7337473 79.4686664,66.7852848 C79.3264705,66.9422534 79.1746981,67.096277 79.0200237,67.2405821 C78.9535689,67.3047832 78.8874042,67.3657447 78.8209494,67.4234668 C78.8113729,67.4299458 78.8020867,67.4393698 78.7925102,67.4458488 C78.7228632,67.5100498 78.6503143,67.5710114 78.5745732,67.6287334 C78.3313891,67.827521 78.0786286,68.0071662 77.8130994,68.1738533 L74.46424,65.9132697 L71.7439446,64.0791224 C70.407593,63.1750067 69.4882528,61.8635973 69.0457042,60.4111223 C68.5085518,58.654134 68.6728026,56.6886397 69.6461193,54.9796549 L70.2401501,53.9377132 C71.2636706,53.4535549 72.4012381,53.1840872 73.6049703,53.1840872 C78.0153659,53.1837927 81.5885467,56.8099737 81.5885467,61.2860824 L81.5885467,61.2860824 Z" id="Path" fill="url(#linearGradient-52)"></path>
                <path d="M81.4779821,62.6328319 C81.4338723,62.892581 81.3801861,63.1490907 81.3105391,63.3991214 C81.2916764,63.482465 81.2693313,63.569048 81.2408921,63.6523916 C81.2345078,63.6812526 81.2252215,63.7133531 81.2124529,63.7422142 C81.1872059,63.8352762 81.1555745,63.9280438 81.1239432,64.0211058 C81.1111746,64.0467274 81.1050805,64.0723489 81.095504,64.0979704 C81.0511041,64.2134145 81.0069943,64.3288586 80.9596924,64.4410631 C80.8996219,64.5853682 80.8363592,64.7264338 80.7670024,64.8674994 C80.7260848,64.950843 80.684877,65.0341866 80.6407672,65.1175301 C80.6282888,65.1399121 80.6187123,65.1622942 80.6059437,65.1849707 C80.5615438,65.2650747 80.517434,65.3451788 80.4701321,65.4255773 C80.2173716,65.8552531 79.9297875,66.2560679 79.604478,66.6312612 C79.5635604,66.6825042 79.5191605,66.7337473 79.4686664,66.7852848 C79.3264705,66.9422534 79.1746981,67.096277 79.0200237,67.2405821 C78.9535689,67.3047832 78.8874042,67.3657447 78.8209494,67.4234668 C78.8113729,67.4299458 78.8020867,67.4393698 78.7925102,67.4458488 C78.7228632,67.5100498 78.6503143,67.5710114 78.5745732,67.6287334 C78.3313891,67.827521 78.0786286,68.0071662 77.8130994,68.1738533 L74.46424,65.9132697 L71.7439446,64.0791224 C70.407593,63.1750067 69.4882528,61.8635973 69.0457042,60.4111223 C69.4502371,58.2309372 71.3362196,56.5796746 73.6046801,56.5796746 C73.7657387,56.5796746 73.9238954,56.5893931 74.0785698,56.6052961 C74.157503,56.6117751 74.2335343,56.6211991 74.3124676,56.6341571 C74.4134557,56.6500601 74.5147341,56.6694971 74.6157222,56.6918792 C74.6789849,56.7080767 74.7419574,56.7239797 74.80522,56.7398827 C75.6488192,56.9707709 76.3943322,57.4387317 76.9755944,58.0639556 L81.4779821,62.6328319 Z" id="Path" fill="url(#linearGradient-53)"></path>
                <path d="M78.2428794,61.2860824 C78.2428794,63.5881905 76.6157516,65.5056814 74.46424,65.9126807 L71.7439446,64.0785334 C70.407593,63.1744177 69.4882528,61.8630083 69.0457042,60.4105333 C69.4502371,58.2303482 71.3362196,56.5790856 73.6046801,56.5790856 C73.7657387,56.5790856 73.9238954,56.5888041 74.0785698,56.6047071 C74.157503,56.6111861 74.2335343,56.6206101 74.3124676,56.6335681 C74.4134557,56.6494711 74.5147341,56.6689081 74.6157222,56.6912902 C74.6789849,56.7074877 74.7419574,56.7233907 74.80522,56.7392937 C75.6993133,56.9799004 76.4860341,57.4864407 77.0800649,58.1693867 C77.803523,58.9998773 78.2428794,60.0901171 78.2428794,61.2860824 L78.2428794,61.2860824 Z" id="Path" fill="url(#linearGradient-54)"></path>
                <path d="M102.375852,74.8787395 C102.375852,74.8787395 102.372659,74.8787395 102.372659,74.881979 C102.315781,74.9782806 102.246134,75.0678087 102.170393,75.1482072 C102.116707,75.2091688 102.056636,75.2636513 101.990181,75.3181339 C101.939687,75.3596584 101.886001,75.4014774 101.825931,75.4335779 C101.566786,75.6035046 101.250762,75.7030456 100.893822,75.7030456 L50.8010948,75.7030456 C49.0253868,75.7030456 47.6794587,74.2281886 47.6794587,72.5448254 C47.6794587,72.2241147 47.7267606,71.8972194 47.8312311,71.5700297 L47.8439997,71.5314502 C48.5549794,69.2549636 50.6147891,67.6870444 52.9685672,67.6870444 L84.338442,67.6870444 C84.5279398,67.719145 84.7206298,67.741527 84.9197042,67.741527 L90.4267497,67.741527 C92.2085518,67.741527 93.962205,68.0333767 95.6209641,68.5911601 C95.7094739,68.6200211 95.7979836,68.6521216 95.8864933,68.6809826 C96.3066968,68.8317668 96.720516,68.9952144 97.1250489,69.178099 C97.2324214,69.2261025 97.3366017,69.2744006 97.4410721,69.3256436 C98.3131105,69.7361769 99.1471332,70.2265197 99.9370461,70.7907821 C99.9971167,70.8326012 100.057187,70.8741257 100.114066,70.9188897 C100.167752,70.9574693 100.22463,70.9957543 100.278316,71.0408128 C100.385689,71.1209169 100.496253,71.2042604 100.603626,71.2908435 C101.134394,71.7075613 101.643107,72.1628586 102.123381,72.6502565 C102.215083,72.7433185 102.290824,72.8393256 102.357279,72.9388667 C102.767616,73.5546666 102.726408,74.3112376 102.375852,74.8787395 L102.375852,74.8787395 Z" id="Path" fill="url(#linearGradient-55)"></path>
            </g>
        </g>
    </g>
</svg>