<?xml version="1.0" encoding="UTF-8"?>
<svg width="14px" height="14px" viewBox="0 0 14 14" version="1.1" xmlns="http://www.w3.org/2000/svg" xmlns:xlink="http://www.w3.org/1999/xlink">
    <title>Group 9</title>
    <g id="Page-1" stroke="none" stroke-width="1" fill="none" fill-rule="evenodd">
        <g id="VOLUNTEER-ONLINE-DETAIL" transform="translate(-472.000000, -1264.000000)" fill="#24163C" fill-rule="nonzero">
            <g id="Group-9" transform="translate(472.000000, 1264.000000)">
                <path d="M11.0833333,1.16666667 L10.5,1.16666667 L10.5,0.583333333 C10.5,0.261167229 10.2388328,0 9.91666667,0 C9.59450056,0 9.33333333,0.261167229 9.33333333,0.583333333 L9.33333333,1.16666667 L4.66666667,1.16666667 L4.66666667,0.583333333 C4.66666667,0.261167229 4.40549944,0 4.08333333,0 C3.76116723,0 3.5,0.261167229 3.5,0.583333333 L3.5,1.16666667 L2.91666667,1.16666667 C1.30663566,1.16859523 0.00192856786,2.47330233 0,4.08333333 L0,11.0833333 C0.00192856786,12.6933643 1.30663566,13.9980714 2.91666667,14 L11.0833333,14 C12.6933643,13.9980714 13.9980714,12.6933643 14,11.0833333 L14,4.08333333 C13.9980714,2.47330233 12.6933643,1.16859523 11.0833333,1.16666667 Z M1.16666667,4.08333333 C1.16666667,3.11683502 1.95016835,2.33333333 2.91666667,2.33333333 L11.0833333,2.33333333 C12.0498316,2.33333333 12.8333333,3.11683502 12.8333333,4.08333333 L12.8333333,4.66666667 L1.16666667,4.66666667 L1.16666667,4.08333333 Z M11.0833333,12.8333333 L2.91666667,12.8333333 C1.95016835,12.8333333 1.16666667,12.0498316 1.16666667,11.0833333 L1.16666667,5.83333333 L12.8333333,5.83333333 L12.8333333,11.0833333 C12.8333333,12.0498316 12.0498316,12.8333333 11.0833333,12.8333333 Z" id="Shape"></path>
                <circle id="Oval" cx="7" cy="8.75" r="1"></circle>
                <circle id="Oval" cx="4.08333333" cy="8.75" r="1"></circle>
                <circle id="Oval" cx="9.91666667" cy="8.75" r="1"></circle>
            </g>
        </g>
    </g>
</svg>