<?xml version="1.0" encoding="UTF-8"?>
<svg width="24px" height="24px" viewBox="0 0 24 24" version="1.1" xmlns="http://www.w3.org/2000/svg" xmlns:xlink="http://www.w3.org/1999/xlink">
    <title>Shape 3</title>
    <g id="Page-1" stroke="none" stroke-width="1" fill="none" fill-rule="evenodd">
        <g id="VOLUNTEER-ONLINE-DETAIL" transform="translate(-148.000000, -1072.000000)" fill="#24163C" fill-rule="nonzero">
            <g id="Shape-3" transform="translate(148.000000, 1072.000000)">
                <path d="M12,0 C5.372583,0 0,5.372583 0,12 C0,18.627417 5.372583,24 12,24 C18.627417,24 24,18.627417 24,12 C23.9928352,5.37555305 18.624447,0.00716484761 12,0 Z M20.647,7 L17.426,7 C16.7049663,5.32898482 15.7555824,3.76608559 14.605,2.356 C17.1514854,3.04892705 19.3223151,4.71746941 20.647,7 L20.647,7 Z M16.5,12 C16.4917906,13.018139 16.3313492,14.0293245 16.024,15 L7.976,15 C7.66865084,14.0293245 7.50820939,13.018139 7.5,12 C7.50820939,10.981861 7.66865084,9.97067546 7.976,9 L16.024,9 C16.3313492,9.97067546 16.4917906,10.981861 16.5,12 Z M8.778,17 L15.222,17 C14.3732359,18.6757278 13.2881541,20.2208412 12,21.588 C10.711372,20.2212275 9.62623985,18.6760424 8.778,17 L8.778,17 Z M8.778,7 C9.62676414,5.32427221 10.7118459,3.77915884 12,2.412 C13.288628,3.77877246 14.3737602,5.32395761 15.222,7 L8.778,7 Z M9.4,2.356 C8.24765964,3.76578408 7.29658429,5.3286977 6.574,7 L3.353,7 C4.67885475,4.71643207 6.85165748,3.04775407 9.4,2.356 Z M2.461,9 L5.9,9 C5.64075793,9.97914424 5.50635876,10.987138 5.5000054,12 C5.50635876,13.012862 5.64075793,14.0208558 5.9,15 L2.461,15 C1.84634054,13.0472258 1.84634054,10.9527742 2.461,9 L2.461,9 Z M3.353,17 L6.574,17 C7.29658429,18.6713023 8.24765964,20.2342159 9.4,21.644 C6.85165748,20.9522459 4.67885475,19.2835679 3.353,17 L3.353,17 Z M14.605,21.644 C15.7555824,20.2339144 16.7049663,18.6710152 17.426,17 L20.647,17 C19.3223151,19.2825306 17.1514854,20.9510729 14.605,21.644 Z M21.539,15 L18.1,15 C18.3592421,14.0208558 18.4936412,13.012862 18.5,12 C18.4936412,10.987138 18.3592421,9.97914424 18.1,9 L21.537,9 C22.1516595,10.9527742 22.1516595,13.0472258 21.537,15 L21.539,15 Z" id="Shape"></path>
            </g>
        </g>
    </g>
</svg>