<?xml version="1.0" encoding="UTF-8"?>
<svg width="18px" height="16px" viewBox="0 0 18 16" version="1.1" xmlns="http://www.w3.org/2000/svg" xmlns:xlink="http://www.w3.org/1999/xlink">
    <title>Shape 5</title>
    <g id="Page-1" stroke="none" stroke-width="1" fill="none" fill-rule="evenodd">
        <g id="CELEBRITY-EXPERIENCE-WIN" transform="translate(-1246.000000, -256.000000)" fill="#24163C" fill-rule="nonzero">
            <g id="Group-4" transform="translate(1176.000000, 256.000000)">
                <g id="Shape-5" transform="translate(70.000000, 0.000000)">
                    <path d="M13.123307,0 C11.4049971,0.0270388807 9.83219918,0.981724886 9,2.50284121 C8.16780082,0.981724886 6.59500288,0.0270388807 4.87669299,0 C2.07518878,0.123137891 -0.102042781,2.51214123 0.0036937868,5.34697895 C0.0036937868,8.79559077 3.59172058,12.5619876 6.60098501,15.115644 C7.98797591,16.2947853 10.0120241,16.2947853 11.399015,15.115644 C14.4082794,12.5619876 17.9963062,8.79559077 17.9963062,5.34697895 C18.1020428,2.51214123 15.9248112,0.123137891 13.123307,0 Z M10.4356605,13.9552359 C9.60603888,14.6620037 8.39396112,14.6620037 7.56433947,13.9552359 C3.71242102,10.6856151 1.50307816,7.54872078 1.50307816,5.34697895 C1.39639937,3.34939861 2.90295219,1.63899106 4.87669299,1.51687346 C6.85043378,1.63899106 8.35698661,3.34939861 8.25030782,5.34697895 C8.25030782,5.76585199 8.58595644,6.10541568 9,6.10541568 C9.41404356,6.10541568 9.74969218,5.76585199 9.74969218,5.34697895 C9.64301339,3.34939861 11.1495662,1.63899106 13.123307,1.51687346 C15.0970478,1.63899106 16.6036006,3.34939861 16.4969218,5.34697895 C16.4969218,7.54872078 14.287579,10.6856151 10.4356605,13.9522021 L10.4356605,13.9552359 Z" id="Shape"></path>
                </g>
            </g>
        </g>
    </g>
</svg>