<?xml version="1.0" encoding="UTF-8"?>
<svg width="96px" height="40px" viewBox="0 0 96 40" version="1.1" xmlns="http://www.w3.org/2000/svg" xmlns:xlink="http://www.w3.org/1999/xlink">
    <title>Group 2 Copy 2</title>
    <defs>
        <linearGradient x1="99.5331451%" y1="50%" x2="0%" y2="50%" id="linearGradient-1">
            <stop stop-color="#F8BA6F" offset="0%"></stop>
            <stop stop-color="#EB7F7C" offset="100%"></stop>
        </linearGradient>
        <linearGradient x1="24.8939961%" y1="0%" x2="75.1060039%" y2="100%" id="linearGradient-2">
            <stop stop-color="#EB7F7C" offset="0%"></stop>
            <stop stop-color="#F7B86F" offset="31.9863486%"></stop>
            <stop stop-color="#C969F7" offset="64.8401647%"></stop>
            <stop stop-color="#826BF2" offset="100%"></stop>
        </linearGradient>
    </defs>
    <g id="Page-1" stroke="none" stroke-width="1" fill="none" fill-rule="evenodd">
        <g id="LANDING-PAGE-Copy" transform="translate(-96.000000, -24.000000)">
            <g id="Group-2-Copy-2" transform="translate(96.000000, 24.000000)">
                <g id="Group">
                    <path d="M21.6089557,0 C22.7696328,0.409592276 23.1727722,1.25800885 23.1637756,2.45743902 C23.1321167,6.68817301 23.149996,10.9191363 23.1430492,15.1499849 C23.1425937,15.4480369 23.1215257,15.7519354 23.0613964,16.04288 C22.8544743,17.0428446 22.0798545,17.6884711 21.1829262,17.6351657 C20.3107102,17.5833505 19.5774292,16.8156372 19.4753917,15.8355046 C19.4503378,15.594541 19.447263,15.3503676 19.4473739,15.1076844 C19.45011,10.8625064 19.4677616,6.61732833 19.4509072,2.37215028 C19.4463519,1.20057652 19.909279,0.404892225 21.0110795,0 L21.6089557,0 Z" id="Fill-1" fill="#826BF2"></path>
                    <path d="M0,14.1559126 C0.0362142183,14.0497602 0.0829055061,13.9460152 0.106934437,13.8372262 C0.413958124,12.4516281 1.76242529,11.7109688 3.08788846,12.2029839 C3.23183428,12.2565187 3.37452741,12.3132632 3.54523532,12.3789493 C3.61481672,12.1995449 3.67232672,12.0423797 3.73610019,11.8879659 C4.34786994,10.4052716 6.15152022,9.99212566 7.33634012,11.074857 C8.26731884,11.9255663 8.52036285,13.0230856 8.12303138,14.1633639 C7.65122161,15.5172079 7.01599233,16.8139635 6.43485662,18.1280291 C6.32940264,18.3665854 6.11872244,18.4699865 5.83083079,18.3741513 C4.60740517,17.9667371 3.36758066,17.6054063 2.15747914,17.161882 C1.05078174,16.7563019 0.282311469,15.9978741 0.0723145554,14.773912 C0.0658233276,14.7364262 0.0248260993,14.7050161 0,14.6706255 L0,14.1559126 Z" id="Fill-3" fill="#EB7F7C"></path>
                    <path d="M32.1306211,13.5341416 L29.4768477,13.5341416 C29.4768477,14.3281064 29.4907412,15.0961636 29.4729757,15.8634183 C29.4550964,16.6377804 28.9780481,17.2814582 28.2784759,17.5298731 C27.5385899,17.7926174 26.6900611,17.6051885 26.2333975,16.9829476 C26.0101904,16.6787052 25.8186422,16.2633812 25.8159091,15.8967772 C25.7869833,12.0939771 25.793019,8.29083318 25.8050904,4.48780387 C25.8080513,3.55364001 26.6726373,2.77125342 27.6470047,2.76374277 C28.638796,2.75612155 29.467965,3.49483205 29.4791253,4.46739877 C29.5021293,6.48291833 29.4881219,8.49901107 29.4892607,10.5148745 C29.4893746,10.6702055 29.4892607,10.8256511 29.4892607,11.0166337 L32.1039729,11.0166337 C32.1342653,10.768448 32.1549916,10.5274844 32.1945084,10.2897306 C32.3566752,9.31257848 33.0986112,8.69595468 34.0757118,8.71956957 C35.009082,8.74215275 35.7706055,9.45014096 35.8771983,10.4028758 C35.9009995,10.6155244 35.9107933,10.8309243 35.9104516,11.0450632 C35.9028216,16.3492431 35.9400607,21.6539961 35.8701377,26.9573735 C35.7978231,32.4345382 32.2137543,37.4549954 27.2450041,39.2163683 C21.8965741,41.1123232 16.3175346,39.5076569 12.6865467,35.0554473 C11.441142,33.5285038 10.4574363,31.8396951 9.63156994,30.0673172 C8.25281038,27.1080044 6.94989569,24.1129254 5.62739343,21.1274757 C5.30442638,20.39828 5.38995115,19.6855917 5.93407548,19.0921243 C6.44597143,18.5337352 7.1060268,18.3429819 7.84124376,18.5568916 C8.49253029,18.7462693 8.86423849,19.2381698 9.12320431,19.8419544 C9.80888296,21.4411182 10.4647247,23.0547261 11.2044969,24.6283262 C12.1625794,26.6665435 13.1191814,28.7114098 14.209366,30.679241 C15.2297415,32.5209733 16.6039458,34.1060369 18.4883378,35.1257188 C21.3793257,36.6900334 24.3304429,36.6608014 27.1730312,35.0736743 C30.3843669,33.2804328 32.0847269,30.4691143 32.1164998,26.744381 C32.1529418,22.4703148 32.1284573,18.1957901 32.1306211,13.9212654 L32.1306211,13.5341416 Z" id="Fill-5" fill="url(#linearGradient-1)"></path>
                    <path d="M13.0071451,11.1641924 C13.0071451,9.59311423 13.0040703,8.0220361 13.0082839,6.45095798 C13.0107893,5.56425318 13.4601644,4.98717859 14.3253198,4.73738805 C15.1211216,4.50777335 16.1076743,4.80834737 16.4851905,5.45546419 C16.6347165,5.71201821 16.7143194,6.04767065 16.7154582,6.34767149 C16.7278713,9.51837195 16.717622,12.6890724 16.7145472,15.8596582 C16.71375,16.6024956 16.4733468,17.2136169 15.7508846,17.5227886 C15.0068988,17.8412457 14.2784008,17.8044478 13.6119681,17.3114009 C13.165326,16.9807924 12.9991734,16.5081507 12.9998546,15.9630594 C13.0016788,14.363437 13.0004261,12.7638147 13.0004261,11.1641924 L13.0071451,11.1641924 Z" id="Fill-7" fill="#C969F7"></path>
                </g>
                <g id="Group-3" transform="translate(46.964029, 11.228070)">
                    <g id="IL2H-Copy-2" fill="#FFFFFF" fill-rule="nonzero">
                        <path d="M2.5927868,17.5438596 C2.76884022,17.5438596 2.92088636,17.4770259 3.04892522,17.3433584 C3.17696407,17.2096909 3.2409835,17.0509607 3.2409835,16.8671679 L3.2409835,16.8671679 L3.2409835,0.676691729 C3.2409835,0.492898914 3.17696407,0.334168755 3.04892522,0.200501253 C2.92088636,0.066833751 2.76884022,-8.17124146e-14 2.5927868,-8.17124146e-14 L2.5927868,-8.17124146e-14 L0.6481967,-8.17124146e-14 C0.472143275,-8.17124146e-14 0.320097136,0.066833751 0.192058281,0.200501253 C0.0640194272,0.334168755 0,0.492898914 0,0.676691729 L0,0.676691729 L0,16.8671679 C0,17.0509607 0.0640194272,17.2096909 0.192058281,17.3433584 C0.320097136,17.4770259 0.472143275,17.5438596 0.6481967,17.5438596 L0.6481967,17.5438596 L2.5927868,17.5438596 Z M17.9858216,17.5438596 C18.161875,17.5438596 18.3139211,17.4770259 18.44196,17.3433584 C18.5699988,17.2096909 18.6340183,17.0509607 18.6340183,16.8671679 L18.6340183,16.8671679 L18.6340183,15.0877193 C18.6340183,14.9039265 18.5699988,14.7451963 18.44196,14.6115288 C18.3139211,14.4778613 18.161875,14.4110276 17.9858216,14.4110276 L17.9858216,14.4110276 L10.0634175,14.4110276 L10.0634175,0.676691729 C10.0634175,0.492898914 9.99939802,0.334168755 9.87135917,0.200501253 C9.74332032,0.066833751 9.59127418,-8.17124146e-14 9.41522075,-8.17124146e-14 L9.41522075,-8.17124146e-14 L7.47063065,-8.17124146e-14 C7.29457723,-8.17124146e-14 7.14253109,0.066833751 7.01449223,0.200501253 C6.88645338,0.334168755 6.82243395,0.492898914 6.82243395,0.676691729 L6.82243395,0.676691729 L6.82243395,16.8671679 C6.82243395,17.0509607 6.88645338,17.2096909 7.01449223,17.3433584 C7.14253109,17.4770259 7.29457723,17.5438596 7.47063065,17.5438596 L7.47063065,17.5438596 L17.9858216,17.5438596 Z M37.8965909,17.5438596 C38.0726443,17.5438596 38.2246905,17.4770259 38.3527293,17.3433584 C38.4807682,17.2096909 38.5447876,17.0509607 38.5447876,16.8671679 L38.5447876,16.8671679 L38.5447876,10.2506266 L45.7949877,10.2506266 L45.7949877,16.8671679 C45.7949877,17.0509607 45.8590072,17.2096909 45.987046,17.3433584 C46.1150849,17.4770259 46.267131,17.5438596 46.4431844,17.5438596 L46.4431844,17.5438596 L48.3877745,17.5438596 C48.5638279,17.5438596 48.7158741,17.4770259 48.8439129,17.3433584 C48.9719518,17.2096909 49.0359712,17.0509607 49.0359712,16.8671679 L49.0359712,16.8671679 L49.0359712,0.676691729 C49.0359712,0.492898914 48.9719518,0.334168755 48.8439129,0.200501253 C48.7158741,0.066833751 48.5638279,-8.17124146e-14 48.3877745,-8.17124146e-14 L48.3877745,-8.17124146e-14 L46.4431844,-8.17124146e-14 C46.267131,-8.17124146e-14 46.1150849,0.066833751 45.987046,0.200501253 C45.8590072,0.334168755 45.7949877,0.492898914 45.7949877,0.676691729 L45.7949877,0.676691729 L45.7949877,7.11779449 L38.5447876,7.11779449 L38.5447876,0.676691729 C38.5447876,0.492898914 38.4807682,0.334168755 38.3527293,0.200501253 C38.2246905,0.066833751 38.0726443,-8.17124146e-14 37.8965909,-8.17124146e-14 L37.8965909,-8.17124146e-14 L35.9520008,-8.17124146e-14 C35.7759474,-8.17124146e-14 35.6239012,0.066833751 35.4958624,0.200501253 C35.3678235,0.334168755 35.3038041,0.492898914 35.3038041,0.676691729 L35.3038041,0.676691729 L35.3038041,16.8671679 C35.3038041,17.0676692 35.3678235,17.2305764 35.4958624,17.3558897 C35.6239012,17.481203 35.7759474,17.5438596 35.9520008,17.5438596 L35.9520008,17.5438596 L37.8965909,17.5438596 Z" id="IL2H-Copy"></path>
                    </g>
                    <path d="M31.8161808,17.5438596 C31.9911625,17.5438596 32.1422831,17.4779672 32.2695425,17.3461824 C32.3968019,17.2143975 32.4604317,17.057903 32.4604317,16.8766988 L32.4604317,15.1223128 C32.4604317,14.9411086 32.3968019,14.7846141 32.2695425,14.6528293 C32.1422831,14.5210444 31.9911625,14.455152 31.8161808,14.455152 L25.1827835,14.455152 L29.5970947,10.2792192 C30.1538547,9.81797216 30.5992626,9.38555308 30.9333186,8.98196195 C31.2673746,8.57837081 31.5218934,8.19125278 31.6968751,7.82060786 C31.8718568,7.44996294 31.9832088,7.07931801 32.0309311,6.70867309 C32.0786534,6.33802817 32.1025145,5.94679186 32.1025145,5.53496417 C32.1025145,4.89251297 31.9871857,4.2459435 31.756528,3.59525574 C31.5258703,2.94456799 31.17193,2.35153612 30.6947072,1.81616012 C30.2174844,1.28078412 29.6130021,0.844246767 28.8812604,0.50654806 C28.1495188,0.168849353 27.282564,0 26.280396,0 C25.4532098,0 24.6816996,0.144139692 23.9658653,0.432419076 C23.2500311,0.72069846 22.6256645,1.11193477 22.0927657,1.606128 C21.5598669,2.10032123 21.1343432,2.67687999 20.8161946,3.3358043 C20.4980461,3.99472861 20.3151107,4.69483568 20.2673884,5.43612553 C20.251481,5.63380282 20.3111338,5.79441562 20.446347,5.91796392 C20.5815601,6.04151223 20.7366575,6.10328638 20.9116392,6.10328638 L22.7966694,6.10328638 C22.9398362,6.10328638 23.0830031,6.04974879 23.2261699,5.94267359 C23.3693368,5.83559839 23.4647813,5.67498559 23.5125036,5.46083519 C23.6874853,4.76896467 23.9777959,4.20064245 24.3834353,3.75586854 C24.7890747,3.31109464 25.4293487,3.08870768 26.3042572,3.08870768 C27.226888,3.08870768 27.8870462,3.32344947 28.2847319,3.79293304 C28.6824176,4.2624166 28.8812604,4.8348571 28.8812604,5.51025451 C28.8812604,5.85618977 28.8136539,6.23507125 28.6784407,6.64689894 C28.5432276,7.05872663 28.2370096,7.46231777 27.7597868,7.85767235 L20.6730278,14.2080553 C20.5616758,14.2904209 20.4264627,14.4345606 20.2673884,14.6404744 C20.1083141,14.8463883 20.028777,15.0893666 20.028777,15.3694094 L20.028777,16.8766988 C20.028777,17.057903 20.0924067,17.2143975 20.2196661,17.3461824 C20.3469255,17.4779672 20.4980461,17.5438596 20.6730278,17.5438596 L31.8161808,17.5438596 Z" id="Path" fill="url(#linearGradient-2)"></path>
                </g>
            </g>
        </g>
    </g>
</svg>