<?xml version="1.0" encoding="UTF-8"?>
<svg width="332px" height="360px" viewBox="0 0 332 360" version="1.1" xmlns="http://www.w3.org/2000/svg" xmlns:xlink="http://www.w3.org/1999/xlink">
    <title>Group</title>
    <defs>
        <linearGradient x1="99.5331451%" y1="50%" x2="0%" y2="50%" id="linearGradient-1">
            <stop stop-color="#F8BA6F" offset="0%"></stop>
            <stop stop-color="#EB7F7C" offset="100%"></stop>
        </linearGradient>
    </defs>
    <g id="Page-1" stroke="none" stroke-width="1" fill="none" fill-rule="evenodd">
        <g id="LOGIN---NOT-FILLED" transform="translate(-172.000000, -260.000000)">
            <g id="Group" transform="translate(172.000000, 260.000000)">
                <path d="M199.761637,5.01559578e-14 C210.491389,3.68633048 214.218168,11.3220797 214.134999,22.1169512 C213.842332,60.1935571 214.007615,98.2722264 213.943397,136.349864 C213.939186,139.032332 213.744425,141.767418 213.188566,144.38592 C211.275697,153.385601 204.114808,159.19624 195.823253,158.716491 C187.760147,158.250154 180.981411,151.340735 180.038136,142.519541 C179.806528,140.350869 179.778104,138.153308 179.779129,135.96916 C179.804423,97.7625574 179.967601,59.555955 179.811792,21.3493526 C179.769681,10.8051887 184.04916,3.64403002 194.234635,5.01559578e-14 L199.761637,5.01559578e-14 Z" id="Fill-1" fill="#826BF2"></path>
                <path d="M0,127.403213 C0.334778395,126.447842 0.766410916,125.514136 0.988543751,124.535036 C3.82679077,112.064653 16.2925485,105.398719 28.5456483,109.826855 C29.8763398,110.308668 31.1954509,110.819369 32.7735415,111.410543 C33.4167793,109.795904 33.9484242,108.381418 34.5379711,106.991693 C40.1934099,93.6474447 56.8670583,89.9291309 67.8199968,99.6737129 C76.4263281,107.330096 78.7655659,117.20777 75.0924784,127.470275 C70.7308844,139.654871 64.8585766,151.325672 59.4863308,163.152262 C58.511473,165.299268 56.5638628,166.229878 53.9024798,165.367362 C42.592655,161.700634 31.1312324,158.448657 19.9445808,154.456938 C9.71383726,150.806717 2.60979761,143.980867 0.668504027,132.965208 C0.608496579,132.627836 0.22950217,132.345145 0,132.03563 L0,127.403213 Z" id="Fill-3" fill="#EB7F7C"></path>
                <path d="M297.028025,121.807275 L272.495506,121.807275 C272.495506,128.952958 272.623943,135.865472 272.459712,142.770765 C272.294429,149.740024 267.884408,155.533123 261.417289,157.768858 C254.577493,160.133557 246.733361,158.446697 242.511785,152.846528 C240.448371,150.108347 238.677625,146.370431 238.652358,143.070995 C238.384957,108.845794 238.440753,74.6174987 238.552346,40.3902348 C238.579718,31.9827601 246.572289,24.9412808 255.579723,24.873685 C264.748229,24.8050939 272.413391,31.4534885 272.516562,40.2065889 C272.72922,58.346265 272.59973,76.4910996 272.610257,94.6338708 C272.61131,96.0318495 272.610257,97.4308599 272.610257,99.149703 L296.781679,99.149703 C297.061713,96.9160323 297.253316,94.7473599 297.618625,92.6075755 C299.117758,83.8132064 305.976504,78.2635921 315.009204,78.4761261 C323.637644,78.6793747 330.677465,85.0512687 331.66285,93.6258818 C331.882877,95.5397197 331.973415,97.4783189 331.970257,99.4055692 C331.899722,147.143188 332.243975,194.885965 331.597579,242.616362 C330.929075,291.910844 297.796541,337.094959 251.863472,352.947315 C202.420493,370.010909 150.84567,355.568912 117.279399,315.499026 C105.766391,301.756534 96.6726306,286.557256 89.0379988,270.605855 C76.2922062,243.97204 64.2475533,217.016329 52.0218254,190.147282 C49.0361916,183.58452 49.8268161,177.170325 54.8569141,171.829118 C59.5890804,166.803617 65.6908904,165.086837 72.4875235,167.012024 C78.5082708,168.716423 81.9444867,173.143528 84.3384681,178.57759 C90.6771496,192.970064 96.7400074,207.492534 103.578751,221.654935 C112.43564,239.998892 121.278843,258.402688 131.356936,276.113169 C140.789685,292.68876 153.493367,306.954332 170.913424,316.131469 C197.638847,330.210301 224.920128,329.947213 251.198126,315.663069 C280.884969,299.523895 296.603762,274.222029 296.897482,240.699429 C297.234366,202.232833 297.008023,163.762111 297.028025,125.291388 L297.028025,121.807275 Z" id="Fill-5" fill="url(#linearGradient-1)"></path>
                <path d="M120.243135,100.477731 C120.243135,86.3380281 120.214711,72.1983249 120.253663,58.0586218 C120.276823,50.0782786 124.431023,44.8846073 132.428858,42.6364925 C139.785561,40.5699602 148.90564,43.2751263 152.395547,49.0991777 C153.777824,51.4081638 154.513705,54.4290358 154.524232,57.1290434 C154.638983,85.6653476 154.544235,114.201652 154.51581,142.736924 C154.508441,149.422461 152.28606,154.922552 145.607336,157.705097 C138.72964,160.571212 131.99512,160.24003 125.834355,155.802608 C121.705422,152.827132 120.169442,148.573356 120.175739,143.667534 C120.192603,129.270933 120.181022,114.874332 120.181022,100.477731 L120.243135,100.477731 Z" id="Fill-7" fill="#C969F7"></path>
            </g>
        </g>
    </g>
</svg>