<?xml version="1.0" encoding="UTF-8"?>
<svg width="14px" height="14px" viewBox="0 0 14 14" version="1.1" xmlns="http://www.w3.org/2000/svg" xmlns:xlink="http://www.w3.org/1999/xlink">
    <title>Shape 4</title>
    <g id="Page-1" stroke="none" stroke-width="1" fill="none" fill-rule="evenodd" opacity="0.37">
        <g id="Group-39" transform="translate(-16.000000, -332.000000)" fill="#24163C" fill-rule="nonzero">
            <g id="Shape-4" transform="translate(16.000000, 332.000000)">
                <path d="M7.00003227,6.99996773 C8.28869074,6.99996773 9.33335484,5.95530363 9.33335484,4.66664516 C9.33335484,3.37798668 8.28869074,2.33332258 7.00003227,2.33332258 C5.71137379,2.33332258 4.66670969,3.37798668 4.66670969,4.66664516 C4.66670969,5.95530363 5.71137379,6.99996773 7.00003227,6.99996773 Z M7.00003227,3.49998387 C7.64436151,3.49998387 8.16669356,4.02231592 8.16669356,4.66664516 C8.16669356,5.31097439 7.64436151,5.83330644 7.00003227,5.83330644 C6.35570303,5.83330644 5.83337098,5.31097439 5.83337098,4.66664516 C5.83337098,4.02231592 6.35570303,3.49998387 7.00003227,3.49998387 Z M12.0516756,5.34155871 L11.6322609,5.20214269 C11.7849137,3.88062569 11.3663097,2.55677584 10.4816395,1.56326255 C9.59696923,0.569749255 8.33033638,0.00102349318 7.00003199,0 C5.65193633,0.000520440432 4.37004915,0.58450271 3.48495339,1.6013451 C2.59985763,2.61818748 2.19819657,3.96834984 2.38355355,5.30364222 C1.82532547,5.40772764 1.30913135,5.67109199 0.897227066,6.06197206 C0.320903536,6.6099045 -0.00370952451,7.37141551 3.19893622e-05,8.16662902 L3.19893622e-05,10.5437014 C0.00258228037,11.8391511 0.857128099,12.9785455 2.10005485,13.3436885 L3.7742138,13.8686861 C4.05541545,13.9562022 4.34828819,14.0004576 4.64279313,13.99994 C4.90995242,13.9995927 5.17583641,13.963095 5.43320616,13.891436 L8.80485728,12.8939406 C9.10522345,12.8119589 9.42207021,12.8119589 9.72243638,12.8939406 L11.1148466,13.3606051 C11.8101515,13.5298461 12.5446666,13.3706717 13.1075341,12.9287764 C13.6704017,12.486881 13.9993693,11.8111375 14,11.0955322 L14,8.0919627 C13.9972847,6.85534058 13.2172871,5.75400272 12.0516756,5.34097538 L12.0516756,5.34155871 Z M4.52554367,2.19448988 C5.18089716,1.53648067 6.0713427,1.16659087 7.00003227,1.16659087 C7.92872184,1.16659087 8.81916737,1.53648067 9.47452086,2.19448988 C10.8369956,3.56543906 10.8398593,5.77832938 9.4809375,7.15280036 L7.40836372,9.16820774 C7.18333974,9.38883765 6.82314143,9.38883765 6.59811745,9.16820774 L4.52554367,7.16155032 C3.16001163,5.78742004 3.16001163,3.56862016 4.52554367,2.19448988 Z M12.8333411,11.0955322 C12.8340615,11.4535497 12.6696257,11.7918916 12.3876741,12.012528 C12.1214929,12.2265363 11.7738765,12.3109818 11.4391785,12.2429436 L10.0712681,11.783279 C9.55385398,11.6346287 9.00548769,11.6313994 8.48635875,11.7739457 L5.1123743,12.7702745 C4.78820314,12.8596953 4.44513266,12.8538222 4.12421219,12.7533579 L2.43605331,12.2283603 C1.685548,12.0113324 1.168388,11.3249546 1.16669905,10.5437014 L1.16669905,8.16662902 C1.164076,7.69005926 1.3582543,7.23352918 1.70339002,6.90488484 C1.970705,6.65012295 2.31123051,6.48567503 2.67696886,6.43472034 C2.91211179,7.0175725 3.26227109,7.54707685 3.70654745,7.99162983 L5.78728786,10.0058705 C6.46374795,10.6682497 7.54564988,10.6682497 8.22210997,10.0058705 L10.3005171,7.98579652 C10.7658669,7.51856978 11.1263879,6.95760466 11.3580955,6.34022077 L11.6713441,6.44405363 C12.3673551,6.69345253 12.8321547,7.35261854 12.8333411,8.0919627 L12.8333411,11.0955322 Z" id="Shape"></path>
            </g>
        </g>
    </g>
</svg>