<?xml version="1.0" encoding="UTF-8"?>
<svg width="16px" height="16px" viewBox="0 0 16 16" version="1.1" xmlns="http://www.w3.org/2000/svg" xmlns:xlink="http://www.w3.org/1999/xlink">
    <title>Shape</title>
    <g id="Page-1" stroke="none" stroke-width="1" fill="none" fill-rule="evenodd">
        <g id="Group-39" transform="translate(-142.000000, -248.000000)" fill="#FFFFFF" fill-rule="nonzero">
            <g id="Shape-11" transform="translate(142.000000, 248.000000)">
                <path d="M0.911738302,4.82557163 C0.346619808,3.68147312 -0.774298381,0.845895615 0.823209728,0.0998313727 C1.30897312,-0.102715415 1.86876647,0.00869011537 2.24033255,0.381855657 L5.5418493,3.91549327 C5.71152398,4.08246976 5.77937533,4.32743177 5.71984442,4.55810448 C5.66031351,4.78877719 5.4824445,4.97011591 5.25323892,5.03381212 C5.02403334,5.09750832 4.77831298,5.03388503 4.60863832,4.86690852 L1.35571243,1.38660884 C1.43492221,3.90482568 2.91527972,5.78698775 4.57801941,7.67981741 C4.84380606,7.93573138 4.85215039,8.35900797 4.596657,8.62523214 C4.3411636,8.89145631 3.91858263,8.89981438 3.65279597,8.64390042 C2.56017161,7.5100917 1.63693642,6.22401313 0.911738302,4.82557163 L0.911738302,4.82557163 Z M12.0090946,10.8007528 C11.8250522,10.5987941 11.5543353,10.4992849 11.2835597,10.5340632 C10.5114,10.637884 9.72592749,10.5719031 8.98181677,10.3407132 C8.74963499,10.2720872 8.49859256,10.3371939 8.32883533,10.5100611 C7.33438653,12.0141906 10.5081026,11.9188491 11.1990249,11.8968472 L14.8486653,15.7898491 C15.0116814,15.9634951 15.2548013,16.0368394 15.4864441,15.982254 C15.7180868,15.9276685 15.9030605,15.7534461 15.9716871,15.5252146 C16.0403138,15.2969832 15.9821676,15.0494164 15.8191515,14.8757704 L12.0090946,10.8007528 Z M10.0088814,9.33395984 C10.8915765,9.33521242 11.7384657,8.98447995 12.3625433,8.35920924 L15.8045076,4.91091231 C15.9728744,4.74250663 16.038756,4.49692292 15.9773354,4.26667019 C15.9159148,4.03641746 15.7365234,3.85647658 15.5067361,3.79462954 C15.2769488,3.7327825 15.0316758,3.79842533 14.8633091,3.96683102 L11.4213448,7.41512795 C10.8224127,8.00981709 9.91506687,8.16351395 9.15421452,7.79916102 L13.8076225,3.13809299 C13.980657,2.9706956 14.0500528,2.7228053 13.9891375,2.48969894 C13.9282222,2.25659258 13.7464757,2.07454693 13.5137525,2.01353139 C13.2810292,1.95251584 13.0335463,2.02202583 12.866424,2.19534515 L8.21168473,6.85641317 C7.84793058,6.09430836 8.00137485,5.18546897 8.59508668,4.58555096 L12.0390479,1.13792076 C12.2913026,0.87631231 12.287695,0.460472576 12.0309396,0.203294565 C11.7741842,-0.0538834461 11.3590279,-0.057496981 11.0978494,0.195172916 L7.65521941,3.64280312 C6.53937359,4.76427131 6.36286938,6.51634914 7.23254539,7.83849774 L0.219484788,14.8631026 C-0.0327698693,15.1247111 -0.029162273,15.5405508 0.22759309,15.7977288 C0.484348453,16.0549068 0.899504793,16.0585204 1.16068332,15.8058505 L8.17374391,8.78124558 C8.71812803,9.14171231 9.3562991,9.3339193 10.0088814,9.33395984 Z" id="Shape"></path>
            </g>
        </g>
    </g>
</svg>