<?xml version="1.0" encoding="UTF-8"?>
<svg width="16px" height="16px" viewBox="0 0 16 16" version="1.1" xmlns="http://www.w3.org/2000/svg" xmlns:xlink="http://www.w3.org/1999/xlink">
    <g id="Page-1" stroke="none" stroke-width="1" fill="#24163c" fill-rule="evenodd">
        <g id="CELEBRITY-EXPERIENCE-WIN" transform="translate(-1176.000000, -256.000000)"   fill-rule="nonzero">
            <g id="Shape-6" transform="translate(1176.000000, 256.000000)">
                <path d="M12.8914943,9.77770459 C11.8694029,9.77853896 10.9132708,10.2831754 10.3351094,11.1269377 L6.00077508,9.16774989 C6.30862758,8.42356062 6.30982454,7.58765901 6.00410457,6.84258924 L10.3324458,4.87340216 C11.204699,6.13628899 12.8677332,6.5718212 14.2460129,5.89832665 C15.6242926,5.22483209 16.3043315,3.64436022 15.8463276,2.17905108 C15.3883236,0.713741938 13.9296786,-0.19680937 12.4137434,0.0362788531 C10.8978082,0.269367076 9.77936589,1.57616799 9.78174762,3.11153301 C9.78456969,3.28738658 9.80239177,3.46267746 9.83501952,3.6354941 L5.23365983,5.72867197 C4.00134689,4.57287572 2.07268805,4.61338762 0.889889298,5.81991382 C-0.292909452,7.02644002 -0.297147944,8.95760021 0.880343269,10.1693179 C2.05783448,11.3810357 3.98629688,11.4300314 5.22367135,10.2796673 L9.83701721,12.3648458 C9.80497362,12.5375089 9.78737725,12.7125476 9.78441122,12.8881402 C9.78414189,14.1465849 10.5412219,15.2812525 11.7025685,15.7629629 C12.8639152,16.2446734 14.2007749,15.9785431 15.0896705,15.0886883 C15.9785662,14.1988335 16.2444097,12.8605313 15.7632184,11.6979316 C15.2820272,10.5353319 14.1485826,9.77743497 12.8914943,9.77770459 Z M12.8914943,1.33366493 C13.6098603,1.33339541 14.2576411,1.76638803 14.5327345,2.43071037 C14.8078279,3.0950327 14.6560494,3.85983472 14.1481832,4.36843963 C13.640317,4.87704453 12.8763962,5.02927359 12.2126868,4.75413251 C11.5489774,4.47899144 11.1162085,3.83067413 11.1162085,3.11153301 C11.1169425,2.13020837 11.9112277,1.3347678 12.8914943,1.33366493 L12.8914943,1.33366493 Z M3.1254247,9.77770471 C2.40705875,9.77797423 1.75927798,9.34498161 1.48418457,8.68065927 C1.20909117,8.01633694 1.36086965,7.25153492 1.86873586,6.74293001 C2.37660207,6.23432511 3.14052278,6.08209605 3.80423221,6.35723713 C4.46794163,6.6323782 4.90071051,7.28069551 4.90071051,7.99983663 C4.89961035,8.98100926 4.1055393,9.77623528 3.1254247,9.77770471 Z M12.8914943,14.6660082 C11.9106633,14.6660082 11.1155426,13.8700296 11.1155426,12.8881402 C11.1155426,11.9062509 11.9106633,11.1102723 12.8914943,11.1102723 C13.8723254,11.1102723 14.667446,11.9062509 14.667446,12.8881402 C14.6667116,13.8697249 13.872021,14.6652729 12.8914943,14.6660082 L12.8914943,14.6660082 Z" id="Shape"></path>
            </g>
        </g>
    </g>
</svg>