<?xml version="1.0" encoding="UTF-8"?>
<svg width="116px" height="116px" viewBox="0 0 116 116" version="1.1" xmlns="http://www.w3.org/2000/svg" xmlns:xlink="http://www.w3.org/1999/xlink">
    <title>Group 14</title>
    <defs>
        <rect id="path-1" x="0" y="0" width="84" height="84" rx="16"></rect>
        <filter x="-26.2%" y="-21.4%" width="171.4%" height="171.4%" filterUnits="objectBoundingBox" id="filter-2">
            <feOffset dx="8" dy="12" in="SourceAlpha" result="shadowOffsetOuter1"></feOffset>
            <feGaussianBlur stdDeviation="8" in="shadowOffsetOuter1" result="shadowBlurOuter1"></feGaussianBlur>
            <feColorMatrix values="0 0 0 0 0   0 0 0 0 0   0 0 0 0 0  0 0 0 0.08 0" type="matrix" in="shadowBlurOuter1"></feColorMatrix>
        </filter>
        <linearGradient x1="100%" y1="100%" x2="0%" y2="0%" id="linearGradient-3">
            <stop stop-color="#F7B670" offset="0%"></stop>
            <stop stop-color="#826BF2" offset="100%"></stop>
        </linearGradient>
    </defs>
    <g id="Page-1" stroke="none" stroke-width="1" fill="none" fill-rule="evenodd">
        <g id="VOLUNTEER-ONLINE-DETAIL" transform="translate(-160.000000, -1346.000000)">
            <g id="Group-14" transform="translate(168.000000, 1350.000000)">
                <g id="Rectangle-Copy-6">
                    <use fill="black" fill-opacity="1" filter="url(#filter-2)" xlink:href="#path-1"></use>
                    <use fill="#FFFFFF" fill-rule="evenodd" xlink:href="#path-1"></use>
                </g>
                <path d="M57.7283496,47.1923201 C58.1878597,46.9139715 58.7595518,46.9042621 59.2280753,47.1668495 C59.6965987,47.4294368 59.9907735,47.9244276 60,48.4653636 C60.0088003,49.0062996 59.731283,49.5109997 59.2717729,49.7893484 L59.2717729,49.7893484 L42.7725927,59.7837428 C42.2972176,60.0720857 41.7030446,60.0720857 41.2276694,59.7837428 L41.2276694,59.7837428 L24.7284892,49.7893484 C24.2689792,49.5109997 23.9914618,49.0062996 24.0002621,48.4653636 C24.0094886,47.9244276 24.3036634,47.4294368 24.7721868,47.1668495 C25.2407103,46.9042621 25.8124025,46.9139715 26.2719125,47.1923201 L26.2719125,47.1923201 L41.9986311,56.7187952 L57.7253498,47.1923201 Z M57.7283496,40.2749877 C58.1878597,39.9966391 58.7595518,39.9869297 59.2280753,40.2495171 C59.6965987,40.5121044 59.9907735,41.0070952 60,41.5480312 C60.0088003,42.0889672 59.731283,42.5936673 59.2717729,42.872016 L59.2717729,42.872016 L42.7725927,52.8664104 C42.2972176,53.1547534 41.7030446,53.1547534 41.2276694,52.8664104 L41.2276694,52.8664104 L24.7284892,42.872016 C24.0181482,42.4417263 23.7878102,41.5115429 24.2140148,40.7943934 C24.6402193,40.0772438 25.5615715,39.844698 26.2719125,40.2749877 L26.2719125,40.2749877 L41.9986311,49.8029771 L57.7253498,40.2749877 Z M44.295017,24.6428463 L59.270273,33.7150307 C59.7213603,33.9888705 59.9972623,34.4813863 59.9972623,35.0127877 C59.9972623,35.544189 59.7213603,36.0367048 59.270273,36.3105446 L44.295017,45.382729 C43.6014737,45.8034028 42.8077198,46.025858 41.9986311,46.0263074 C41.1895425,46.025858 40.3957886,45.8034028 39.7022452,45.382729 L24.7269893,36.3105446 C24.2759019,36.0367048 24,35.544189 24,35.0127877 C24,34.4813863 24.2759019,33.9888705 24.7269893,33.7150307 L39.7022452,24.6428463 C41.1154648,23.7857179 42.8817974,23.7857179 44.295017,24.6428463 Z M41.3904187,27.1645723 L41.2486684,27.2398746 L28.415306,35.0127877 L41.2486684,42.7857008 C41.7104848,43.0645981 42.2867775,43.0645981 42.7485939,42.7857008 L55.5819563,35.0127877 L42.7485939,27.2398746 C42.3329591,26.988867 41.8245986,26.9637662 41.3904187,27.1645723 Z" id="Combined-Shape" fill="url(#linearGradient-3)" fill-rule="nonzero"></path>
            </g>
        </g>
    </g>
</svg>