<?xml version="1.0" encoding="UTF-8"?>
<svg width="64px" height="64px" viewBox="0 0 64 64" version="1.1" xmlns="http://www.w3.org/2000/svg" xmlns:xlink="http://www.w3.org/1999/xlink">
    <title>Group 2</title>
    <g id="Page-1" stroke="none" stroke-width="1" fill="none" fill-rule="evenodd" opacity="0.37">
        <g id="NGO---CREATE-REQUESTS---ONLINE" transform="translate(-232.000000, -496.000000)" fill="#24163C" fill-rule="nonzero">
            <g id="Group-2" transform="translate(232.000000, 496.000000)">
                <path d="M48,50.6666667 C49.0783891,50.6666667 50.0504908,50.0167267 50.4631413,49.0204122 C50.8757917,48.0240976 50.6477544,46.877318 49.8853333,46.1146667 L33.4266667,29.6586667 C28.220002,24.4535742 19.779998,24.4535742 14.5733333,29.6586667 L8.78133333,35.448 C7.77074077,36.4943437 7.78519367,38.1575594 8.81381713,39.1861829 C9.84244059,40.2148063 11.5056563,40.2292592 12.552,39.2186667 L18.344,33.4293333 C21.5083949,30.4053964 26.4916051,30.4053964 29.656,33.4293333 L46.1146667,49.8853333 C46.6146473,50.385465 47.2928138,50.6666667 48,50.6666667 Z" id="Path"></path>
                <path d="M42.6666667,28 C47.8213243,28 52,23.8213243 52,18.6666667 C52,13.512009 47.8213243,9.33333333 42.6666667,9.33333333 C37.512009,9.33333333 33.3333333,13.512009 33.3333333,18.6666667 C33.3333333,23.8213243 37.512009,28 42.6666667,28 Z M42.6666667,14.6666667 C44.8758057,14.6666667 46.6666667,16.4575277 46.6666667,18.6666667 C46.6666667,20.8758057 44.8758057,22.6666667 42.6666667,22.6666667 C40.4575277,22.6666667 38.6666667,20.8758057 38.6666667,18.6666667 C38.6666667,16.4575277 40.4575277,14.6666667 42.6666667,14.6666667 L42.6666667,14.6666667 Z" id="Shape"></path>
                <path d="M61.3333333,42.6666667 C59.860574,42.6666667 58.6666667,43.860574 58.6666667,45.3333333 L58.6666667,50.6666667 C58.6666667,55.0849447 55.0849447,58.6666667 50.6666667,58.6666667 L45.3333333,58.6666667 C43.860574,58.6666667 42.6666667,59.860574 42.6666667,61.3333333 C42.6666667,62.8060927 43.860574,64 45.3333333,64 L50.6666667,64 C58.0268084,63.9911837 63.9911837,58.0268084 64,50.6666667 L64,45.3333333 C64,43.860574 62.8060927,42.6666667 61.3333333,42.6666667 Z" id="Path"></path>
                <path d="M2.66666667,21.3333333 C4.139426,21.3333333 5.33333333,20.139426 5.33333333,18.6666667 L5.33333333,13.3333333 C5.33333333,8.91505533 8.91505533,5.33333333 13.3333333,5.33333333 L18.6666667,5.33333333 C20.139426,5.3333333 21.3333333,4.13942598 21.3333333,2.66666667 C21.3333333,1.19390736 20.139426,0 18.6666667,0 L13.3333333,0 C5.9731916,0.00881631023 0.00881631023,5.9731916 0,13.3333333 L0,18.6666667 C0,20.139426 1.19390733,21.3333333 2.66666667,21.3333333 Z" id="Path"></path>
                <path d="M18.6666667,58.6666667 L13.3333333,58.6666667 C8.91505533,58.6666667 5.33333333,55.0849447 5.33333333,50.6666667 L5.33333333,45.3333333 C5.33333333,43.860574 4.139426,42.6666667 2.66666667,42.6666667 C1.19390733,42.6666667 0,43.860574 0,45.3333333 L0,50.6666667 C0.00881631023,58.0268084 5.9731916,63.9911837 13.3333333,64 L18.6666667,64 C20.139426,64 21.3333333,62.8060927 21.3333333,61.3333333 C21.3333333,59.860574 20.139426,58.6666667 18.6666667,58.6666667 Z" id="Path"></path>
                <path d="M50.6666667,0 L45.3333333,0 C43.860574,0 42.6666667,1.19390733 42.6666667,2.66666667 C42.6666667,4.139426 43.860574,5.33333333 45.3333333,5.33333333 L50.6666667,5.33333333 C55.0849447,5.33333333 58.6666667,8.91505533 58.6666667,13.3333333 L58.6666667,18.6666667 C58.6666667,20.139426 59.860574,21.3333333 61.3333333,21.3333333 C62.8060927,21.3333333 64,20.139426 64,18.6666667 L64,13.3333333 C63.9911837,5.9731916 58.0268084,0.00881631023 50.6666667,0 Z" id="Path"></path>
            </g>
        </g>
    </g>
</svg>