<?xml version="1.0" encoding="UTF-8"?>
<svg width="24px" height="24px" viewBox="0 0 24 24" version="1.1" xmlns="http://www.w3.org/2000/svg" xmlns:xlink="http://www.w3.org/1999/xlink">
    <title>Shape 4</title>
    <g id="Page-1" stroke="none" stroke-width="1" fill="none" fill-rule="evenodd" opacity="0.37">
        <g id="VOLUNTEER-ONLINE-DETAIL" transform="translate(-354.000000, -1072.000000)" fill="#24163C" fill-rule="nonzero">
            <g id="Shape-4" transform="translate(354.000000, 1072.000000)">
                <path d="M19,4 L17.9,4 C17.4215673,1.6735832 15.3751008,0.00299828742 13,0 L11,0 C8.62489917,0.00299828742 6.57843265,1.6735832 6.1,4 L5,4 C2.23994685,4.00330612 0.00330611633,6.23994685 0,9 L0,19 C0.00330611633,21.7600532 2.23994685,23.9966939 5,24 L19,24 C21.7600532,23.9966939 23.9966939,21.7600532 24,19 L24,9 C23.9966939,6.23994685 21.7600532,4.00330612 19,4 Z M11,2 L13,2 C14.2667854,2.00525139 15.3937454,2.80564913 15.816,4 L8.184,4 C8.60625455,2.80564913 9.73321457,2.00525139 11,2 Z M5,6 L19,6 C20.6568542,6 22,7.34314575 22,9 L22,12 L2,12 L2,9 C2,7.34314575 3.34314575,6 5,6 Z M19,22 L5,22 C3.34314575,22 2,20.6568542 2,19 L2,14 L11,14 L11,15 C11,15.5522847 11.4477153,16 12,16 C12.5522847,16 13,15.5522847 13,15 L13,14 L22,14 L22,19 C22,20.6568542 20.6568542,22 19,22 Z" id="Shape"></path>
            </g>
        </g>
    </g>
</svg>