<?xml version="1.0" encoding="UTF-8"?>
<svg width="16px" height="16px" viewBox="0 0 16 16" version="1.1" xmlns="http://www.w3.org/2000/svg" xmlns:xlink="http://www.w3.org/1999/xlink">
    <title>Group 11</title>
    <g id="Page-1" stroke="none" stroke-width="1" fill="none" fill-rule="evenodd">
        <g id="LANDING-PAGE-Copy" transform="translate(-544.000000, -4534.000000)" fill="#24163c" fill-rule="nonzero">
            <g id="Group-11" transform="translate(544.000000, 4534.000000)">
                <path d="M8,16 C12.4106589,16 16,12.4106589 16,8 C16,3.58934108 12.4107035,0 8,0 C3.58929655,0 0,3.58934108 0,8 C0,12.4106589 3.58934108,16 8,16 Z M8,1.06664885 C11.8239842,1.06664885 14.9333511,4.17597123 14.9333511,8 C14.9333511,11.8240288 11.8240288,14.9333511 8,14.9333511 C4.17597123,14.9333511 1.06664885,11.8240288 1.06664885,8 C1.06664885,4.17597123 4.17601576,1.06664885 8,1.06664885 Z" id="Shape"></path>
                <path d="M10.3333389,10.5493674 C10.4320235,10.6293482 10.5493228,10.6667112 10.6666667,10.6667112 C10.8240009,10.6667112 10.9786632,10.5973737 11.0826473,10.4667145 C11.2666566,10.2373708 11.2292937,9.90137105 10.9999944,9.71736166 L8.53332443,7.74402565 L8.53332443,3.73336005 C8.53332443,3.44002271 8.29333734,3.20003563 8,3.20003563 C7.70666266,3.20003563 7.46667557,3.44002271 7.46667557,3.73336005 L7.46667557,8.00004453 C7.46667557,8.16272273 7.54135702,8.31471307 7.66667223,8.41602512 L10.3333389,10.5493674 Z" id="Path"></path>
            </g>
        </g>
    </g>
</svg>