<!-- <?xml version="1.0" encoding="utf-8"?> -->
<!-- Generator: Adobe Illustrator 24.1.0, SVG Export Plug-In . SVG Version: 6.00 Build 0)  -->
<svg version="1.1" id="Lager_1" xmlns="http://www.w3.org/2000/svg" xmlns:xlink="http://www.w3.org/1999/xlink" x="0px" y="0px"
	 viewBox="0 0 4000 3000" style="enable-background:new 0 0 4000 3000;" xml:space="preserve">
<style type="text/css">
	.st0{clip-path:url(#SVGID_2_);}
	.st1{fill:none;stroke:#FFFFFF;stroke-width:1;stroke-miterlimit:10;
stroke-dasharray: 3860;
    stroke-dashoffset: 3860;
    animation: draw calc(6000ms * 2) infinite linear 0ms;
    <!-- animation: draw calc(6000ms * 2) infinite reverse 0ms; -->
}

@keyframes draw {
	0% {
		stroke-dashoffset: 3860;
	}
	50% {
		stroke-dashoffset: 0;
	}
	100% {
		stroke-dashoffset: -3860;
	}
}

</style>
<g>
	<defs>
		<rect id="SVGID_1_" width="4000" height="3000"/>
	</defs>
	<clipPath id="SVGID_2_">
		<use xlink:href="#SVGID_1_"  style="overflow:visible;"/>
	</clipPath>
	<g class="st0">
		<path class="st1" d="M1074.29,3395.84c23.58-125.65-31.81-250.88-53.9-376.8c-65.48-373.34,181.91-752.39,517.6-928.4
			s737.37-180.87,1110.44-113.92c169.71,30.45,353.09,73.14,507.68-3.23c155.95-77.04,233.94-251.66,354.96-376.61
			c119.43-123.31,286.83-198.91,458.3-207c188.22-8.87,372.41,60.02,560.82,62.42c199.03,2.53,390.67-68.86,576.86-139.23
			c101.4-38.33,202.8-76.65,304.19-114.98"/>
		<path class="st1" d="M1033.46,3392.06c18.03-100.18-10.81-200.01-32.96-299.73c-5.77-25.74-11.1-51.48-15.02-77.23
			c-57.6-371.04,195.43-744.47,533.72-917.09c187.72-95.79,395.11-139.63,606.85-147.94c109.61-4.3,220.34,0.78,329.77,12.62
			c57.08,6.15,113.76,14.14,169.73,23.65c151.61,25.58,313.31,60.08,455.24,11.31c16.29-5.61,32.33-12.32,48.06-20.27
			c154.21-77.9,231.68-251.58,352.43-376.11c68.84-70.92,152.52-124.96,244.55-161.93c71.66-29.05,142.72-46.74,217.76-51.29
			c12.41-0.73,24.86-1.11,37.39-1.2c95.5-0.73,187.64,18.52,281.96,36.16c82.19,15.26,163.91,30.62,246.58,33.3
			c44.17,1.44,88.02-0.72,131.71-5.87c125.09-14.27,243.66-49.66,363.63-89.84c29.02-9.79,57.8-19.9,86.42-30.05
			c94.45-33.35,188.36-67.49,284.07-101.91c7.89-3.27,15.79-6.55,23.68-9.82"/>
		<path class="st1" d="M992.62,3388.27c17.33-100.51-9.02-200.65-28.87-300.17c-5.12-25.67-9.81-51.31-13.2-76.95
			c-48.71-368.88,208.91-736.56,549.84-905.78c187.59-93.11,393.92-135.88,604.83-143.77c109.19-4.08,219.54,0.9,328.49,12.12
			c56.89,5.82,113.3,13.32,168.94,22.24c150.97,23.85,311.13,55.68,451.39,5.91c16.11-5.74,31.97-12.56,47.53-20.6
			c152.47-78.75,229.43-251.49,349.91-375.62c70.02-71.98,154.43-125.25,247.91-163.83c74.19-30.62,142.65-50.03,218.41-55.63
			c12.47-0.87,25.06-1.4,37.8-1.61c97.48-1.81,189.1,19.39,284.94,38.25c83.11,16.14,165.17,33.16,248.3,37.47
			c44.43,2.33,88.59,0.88,132.77-3.43c127.28-12.41,244.42-43.3,366.43-80.7c29.46-9.03,58.55-18.58,87.46-28.16
			c95.57-31.43,190.07-64.43,288.16-97.98c7.72-3.5,15.44-6.99,23.16-10.49"/>
		<path class="st1" d="M951.79,3384.49c16.63-100.85-7.34-201.25-24.79-300.62c-4.49-25.59-8.56-51.14-11.37-76.66
			c-40.35-366.61,222.37-728.66,565.96-894.48c187.44-90.46,392.73-132.12,602.8-139.61c108.78-3.87,218.75,1.02,327.21,11.62
			c56.7,5.48,112.84,12.5,168.15,20.83c150.33,22.11,308.95,51.28,447.55,0.52c15.93-5.87,31.61-12.8,46.99-20.93
			c150.73-79.6,227.17-251.4,347.39-375.13c71.19-73.04,156.28-125.69,251.27-165.73c76.67-32.31,142.57-53.53,219.06-59.96
			c12.53-1.05,25.25-1.68,38.21-2.02c99.46-2.89,190.57,20.26,287.91,40.33c84.04,17.02,166.43,35.7,250.03,41.64
			c44.7,3.21,89.17,2.57,133.84-0.99c129.5-10.31,245.14-37.09,369.22-71.55c29.89-8.3,59.3-17.25,88.49-26.27
			c96.69-29.5,191.78-61.37,292.24-94.06c7.54-3.72,15.09-7.44,22.63-11.15"/>
		<path class="st1" d="M910.95,3380.7c15.93-101.19-5.67-201.86-20.7-301.06c-3.87-25.51-7.31-50.96-9.54-76.38
			c-32-364.33,235.79-720.79,582.08-883.17c187.28-87.82,391.54-128.37,600.78-135.45c108.37-3.66,217.95,1.14,325.93,11.12
			c56.51,5.15,112.37,11.81,167.36,19.41c149.65,20.7,306.76,46.88,443.71-4.88c15.75-6,31.25-13.04,46.45-21.25
			c148.99-80.46,224.91-251.31,344.87-374.64c72.37-74.1,158.13-126.15,254.63-167.62c79.16-34.01,142.5-56.88,219.72-64.3
			c12.6-1.21,25.44-1.97,38.61-2.44c101.44-3.98,191.98,21.35,290.89,42.41c84.92,18.09,167.68,38.24,251.76,45.82
			c44.96,4.09,89.75,4.26,134.91,1.45c131.74-8.19,245.84-30.89,372.02-62.41c30.31-7.57,60.03-16,89.53-24.39
			c97.74-27.81,193.48-58.31,296.33-90.14c7.37-3.94,14.74-7.88,22.11-11.82"/>
		<path class="st1" d="M870.12,3376.91c15.23-101.53-3.99-202.46-16.61-301.51c-3.24-25.43-6.06-50.79-7.71-76.09
			c-23.66-362.02,249.18-712.93,598.2-871.86c187.09-85.19,390.35-124.62,598.76-131.28c107.95-3.44,217.15,1.26,324.65,10.62
			c56.31,4.81,111.9,11.02,166.57,18c149,19.04,304.58,42.48,439.87-10.28c15.57-6.13,30.89-13.29,45.91-21.58
			c147.25-81.31,222.66-251.22,342.35-374.15c73.55-75.16,159.97-126.62,257.99-169.52c81.63-35.72,142.42-60.23,220.37-68.63
			c12.66-1.37,25.63-2.25,39.02-2.85c103.42-5.06,193.43,22.26,293.87,44.5c85.83,19.01,168.94,40.78,253.48,49.99
			c45.23,4.98,90.33,5.96,135.97,3.89c133.98-6.06,246.53-24.69,374.82-53.26c30.74-6.84,60.78-14.69,90.56-22.5
			c98.85-25.93,195.19-55.25,300.41-86.22c7.19-4.16,14.39-8.33,21.58-12.49"/>
		<path class="st1" d="M829.28,3373.13c14.53-101.87-2.32-203.05-12.53-301.95c-2.62-25.35-4.81-50.61-5.88-75.81
			c-15.34-359.69,262.54-705.09,614.32-860.55c186.89-82.59,389.16-120.87,596.74-127.12c107.54-3.23,216.36,1.38,323.37,10.12
			c56.12,4.47,111.44,10.23,165.78,16.59c148.36,17.38,302.51,38.35,436.03-15.68c15.4-6.23,30.52-13.53,45.37-21.91
			c145.51-82.16,220.4-251.13,339.83-373.65c74.72-76.22,161.81-127.11,261.35-171.41c84.11-37.44,142.35-63.57,221.02-72.97
			c12.72-1.52,25.83-2.5,39.43-3.27c105.41-5.91,194.89,23.17,296.84,46.58c86.74,19.92,170.2,43.32,255.21,54.17
			c45.49,5.86,90.92,7.66,137.04,6.33c136.22-3.92,247.22-18.5,377.62-44.11c31.16-6.12,61.52-13.38,91.6-20.61
			c99.97-24.06,196.9-52.19,304.5-82.3c7.02-4.39,14.04-8.77,21.06-13.16"/>
		<path class="st1" d="M788.45,3369.34c13.83-102.21-0.65-203.64-8.44-302.4c-1.99-25.27-3.56-50.43-4.05-75.52
			c-7.04-357.34,275.87-697.27,630.45-849.24c186.67-80.01,387.97-117.12,594.72-122.95c107.13-3.01,215.56,1.5,322.09,9.62
			c55.93,4.14,110.98,9.43,164.99,15.18c147.72,15.72,300.35,33.99,432.19-21.08c15.22-6.36,30.16-13.77,44.83-22.24
			c143.77-83.02,218.15-251.05,337.31-373.16c75.9-77.28,163.64-127.6,264.71-173.31c86.59-39.16,142.27-66.91,221.67-77.3
			c12.78-1.67,26.02-2.78,39.84-3.68c107.39-6.96,196.34,24.07,299.82,48.67c87.66,20.83,171.45,45.86,256.94,58.34
			c45.76,6.74,91.5,9.37,138.1,8.77c138.48-1.76,247.9-12.32,380.42-34.97c31.58-5.4,62.27-12.06,92.63-18.73
			c101.09-22.18,198.6-49.13,308.58-78.38c6.84-4.61,13.69-9.22,20.53-13.82"/>
		<path class="st1" d="M747.61,3365.56c13.13-102.54,1.01-204.22-4.35-302.84c-1.37-25.19-2.31-50.25-2.23-75.24
			c1.24-354.97,289.17-689.47,646.57-837.93c186.43-77.44,386.78-113.36,592.69-118.79c106.71-2.8,214.76,1.62,320.81,9.12
			c55.74,3.8,110.52,8.64,164.2,13.77c147.08,14.05,298.19,29.63,428.35-26.47c15.05-6.49,29.8-14.01,44.29-22.57
			c142.03-83.87,215.89-250.96,334.79-372.67c77.08-78.34,165.47-128.1,268.07-175.21c89.06-40.89,142.2-70.24,222.32-81.64
			c12.84-1.83,26.21-3.07,40.24-4.09c109.38-8.02,197.79,24.97,302.79,50.75c88.57,21.74,172.71,48.4,258.66,62.51
			c46.02,7.63,92.1,10.08,139.17,11.21c140.69,3.39,248.57-6.15,383.21-25.82c32-4.68,63.02-10.75,93.67-16.84
			c102.21-20.3,200.31-46.07,312.67-74.46c6.67-4.83,13.34-9.66,20-14.49"/>
		<path class="st1" d="M706.78,3361.77c12.43-102.88,2.67-204.8-0.27-303.29c-0.75-25.1-1.07-50.07-0.4-74.95
			c9.5-352.58,302.43-681.7,662.69-826.62c186.18-74.9,385.59-109.61,590.67-114.63c106.3-2.58,213.96,1.74,319.52,8.62
			c55.54,3.47,110.06,7.85,163.41,12.36c146.45,12.38,296.03,25.26,424.51-31.87c14.87-6.61,29.44-14.25,43.75-22.89
			c140.29-84.72,213.63-250.87,332.27-372.18c78.25-79.4,167.3-128.61,271.42-177.1c91.53-42.63,142.12-73.57,222.97-85.97
			c12.91-1.98,26.4-3.35,40.65-4.51c111.36-9.08,199.24,25.87,305.77,52.83c89.48,22.65,173.97,50.94,260.39,66.69
			c46.29,8.51,92.68,12.8,140.23,13.65c142.99,2.58,249.24,0.02,386.01-16.68c32.42-3.96,63.77-9.44,94.7-14.95
			c103.33-18.42,202.02-43.01,316.76-70.53c6.49-5.05,12.99-10.11,19.48-15.16"/>
		<path class="st1" d="M665.95,3357.99c11.73-103.22,4.33-205.37,3.82-303.74c-0.13-25.02,0.17-49.88,1.43-74.67
			c17.74-350.17,315.67-673.95,678.81-815.31c185.91-72.37,384.4-105.86,588.65-110.46c105.89-2.37,213.17,1.86,318.24,8.12
			c55.35,3.13,109.6,7.05,162.62,10.95c145.81,10.71,293.87,20.89,420.67-37.27c14.69-6.74,29.08-14.49,43.22-23.22
			c138.55-85.57,211.13-251.03,329.75-371.69c79.26-80.62,169.12-129.12,274.78-179c93.99-44.37,142.04-76.9,223.63-90.31
			c12.97-2.13,26.6-3.63,41.06-4.92c113.34-10.14,200.7,26.77,308.74,54.92c90.4,23.55,175.22,53.48,262.12,70.86
			c46.55,9.39,93.27,14.52,141.3,16.1c145.25,4.77,249.91,6.18,388.81-7.53c32.84-3.24,64.52-8.13,95.74-13.07
			c104.45-16.53,203.72-39.95,320.84-66.61c6.32-5.28,12.63-10.55,18.95-15.83"/>
		<path class="st1" d="M625.11,3354.2c11.03-103.56,5.98-205.95,7.91-304.18c0.49-24.93,1.42-49.7,3.26-74.38
			c25.95-347.75,328.89-666.23,694.93-804.01c185.62-69.86,383.21-102.11,586.63-106.3c105.47-2.16,212.37,1.97,316.96,7.62
			c55.16,2.79,109.14,6.26,161.83,9.54c145.18,9.03,291.71,16.52,416.83-42.67c14.51-6.87,28.72-14.73,42.68-23.55
			c136.81-86.43,208.86-250.95,327.23-371.19c80.43-81.7,170.95-129.65,278.14-180.89c96.46-46.12,141.97-80.23,224.28-94.64
			c13.03-2.28,26.79-3.91,41.46-5.33c115.33-11.2,202.15,27.66,311.72,57c91.31,24.45,176.48,56.02,263.84,75.04
			c46.82,10.28,93.86,16.24,142.36,18.54c147.52,6.97,250.57,12.33,391.61,1.61c33.26-2.53,65.27-6.81,96.77-11.18
			c105.57-14.64,205.43-36.89,324.93-62.69c6.14-5.5,12.28-11,18.43-16.49"/>
		<path class="st1" d="M584.28,3350.42c10.33-103.9,7.63-206.51,11.99-304.63c1.11-24.84,2.66-49.51,5.09-74.1
			c34.13-345.31,342.07-658.54,711.05-792.7c185.32-67.38,382.02-98.35,584.6-102.13c105.06-1.94,211.57,2.09,315.68,7.12
			c54.97,2.46,108.69,5.46,161.04,8.12c144.55,7.36,289.55,12.15,412.99-48.07c14.33-6.99,28.36-14.97,42.14-23.88
			c135.07-87.28,206.59-250.88,324.71-370.7c81.59-82.77,172.77-130.17,281.5-182.79c98.92-47.87,141.89-83.55,224.93-98.98
			c13.09-2.43,26.98-4.19,41.87-5.75c117.31-12.27,203.6,28.55,314.7,59.09c92.22,25.35,177.74,58.56,265.57,79.21
			c47.08,11.16,94.45,17.97,143.43,20.98c149.78,9.19,251.23,18.47,394.41,10.76c33.67-1.82,66.02-5.5,97.81-9.29
			c106.7-12.75,207.14-33.83,329.01-58.77c5.97-5.72,11.93-11.44,17.9-17.16"/>
		<path class="st1" d="M543.44,3346.63c9.63-104.24,9.27-207.08,16.08-305.07c1.72-24.75,3.89-49.33,6.91-73.81
			c42.28-342.86,355.23-650.88,727.17-781.39c185-64.92,380.83-94.6,582.58-97.97c104.65-1.73,210.78,2.21,314.4,6.62
			c54.77,2.12,108.23,4.66,160.25,6.71c143.92,5.68,287.39,7.78,409.15-53.46c14.15-7.12,28-15.21,41.6-24.21
			c133.33-88.13,204.32-250.8,322.19-370.21c82.76-83.84,174.58-130.71,284.86-184.69c101.38-49.62,141.81-86.86,225.58-103.31
			c13.15-2.58,27.17-4.47,42.28-6.16c119.3-13.33,205.06,29.44,317.67,61.17c93.14,26.24,178.99,61.1,267.29,83.38
			c47.35,12.05,95.04,19.71,144.49,23.42c152.05,11.41,251.89,24.61,397.21,19.9c34.09-1.1,66.77-4.18,98.84-7.41
			c107.83-10.85,208.84-30.77,333.1-54.85c5.79-5.94,11.58-11.89,17.37-17.83"/>
		<path class="st1" d="M502.61,3342.85c8.93-104.57,10.9-207.64,20.17-305.52c2.34-24.67,5.13-49.14,8.74-73.53
			c50.41-340.4,368.37-643.25,743.3-770.08c184.68-62.47,379.64-90.85,580.56-93.81c104.23-1.51,209.98,2.33,313.12,6.12
			c54.58,1.79,107.77,3.86,159.46,5.3c143.29,3.99,285.23,3.4,405.31-58.86c13.98-7.25,27.63-15.46,41.06-24.53
			c131.59-88.99,202.05-250.72,319.66-369.72c83.92-84.91,176.4-131.25,288.22-186.58c103.84-51.39,141.73-90.18,226.23-107.65
			c13.22-2.73,27.37-4.76,42.69-6.58c121.28-14.4,206.51,30.32,320.65,63.25c94.05,27.14,180.25,63.64,269.02,87.56
			c47.61,12.93,95.64,21.44,145.56,25.86c154.32,13.65,252.54,30.74,400,29.05c34.51-0.4,67.52-2.86,99.88-5.52
			c108.96-8.95,210.55-27.71,337.19-50.93c5.62-6.17,11.23-12.33,16.85-18.5"/>
		<path class="st1" d="M461.77,3339.06c8.23-104.91,12.53-208.2,24.25-305.96c2.95-24.58,6.37-48.95,10.57-73.24
			c58.5-337.93,381.48-635.65,759.42-758.77c184.33-60.05,378.45-87.1,578.54-89.64c103.82-1.3,209.18,2.67,311.84,5.62
			c54.39,1.56,107.31,3.06,158.67,3.89c142.66,2.31,283.07-0.98,401.47-64.26c13.8-7.38,27.27-15.7,40.52-24.86
			c129.85-89.84,199.79-250.64,317.14-369.23c85.09-85.98,178.21-131.79,291.58-188.48c106.3-53.15,141.66-93.49,226.88-111.98
			c13.28-2.88,27.56-5.04,43.09-6.99c123.26-15.48,207.97,31.2,323.62,65.34c94.97,28.03,181.51,66.18,270.75,91.73
			c47.88,13.81,96.23,23.18,146.62,28.3c156.58,15.9,253.2,39.69,402.8,38.19c34.92-0.35,68.28-1.54,100.91-3.63
			c110.09-7.05,212.25-24.65,341.27-47.01c5.44-6.39,10.88-12.78,16.32-19.16"/>
		<path class="st1" d="M420.94,3335.27c7.53-105.25,14.15-208.76,28.34-306.41c3.56-24.49,7.6-48.76,12.4-72.96
			c66.57-335.45,394.57-628.09,775.54-747.46c183.98-57.65,377.26-83.35,576.51-85.48c103.41-1.08,208.38,2.79,310.56,5.12
			c54.19,1.23,106.86,3.02,157.88,2.48c142.03-1.51,280.91-5.36,397.63-69.66c13.62-7.5,26.91-15.94,39.98-25.19
			c128.11-90.69,197.53-250.56,314.62-368.73c86.26-87.05,180.02-132.34,294.94-190.37c108.75-54.92,141.58-96.8,227.54-116.32
			c13.34-3.03,27.75-5.32,43.5-7.4c125.24-16.55,209.42,32.08,326.6,67.42c95.89,28.92,182.76,68.72,272.47,95.91
			c48.14,14.7,96.82,24.93,147.69,30.74c158.85,18.15,253.85,42.97,405.6,47.34c35.34,1.02,69.03-0.22,101.95-1.75
			c111.22-5.14,213.96-21.59,345.36-43.09c5.27-6.61,10.53-13.22,15.8-19.83"/>
		<path class="st1" d="M380.1,3331.49c6.83-105.59,15.76-209.32,32.43-306.86c4.17-24.4,8.83-48.57,14.23-72.67
			c74.6-332.97,407.63-620.56,791.66-736.15c183.62-55.27,376.07-79.59,574.49-81.31c102.99-0.87,207.59,2.92,309.28,4.62
			c54,0.9,106.42,2.25,157.09,1.07c141.38-3.29,278.75-9.74,393.79-75.06c13.44-7.63,26.55-16.18,39.44-25.52
			c126.37-91.54,195.26-250.48,312.1-368.24c87.43-88.12,181.83-132.89,298.3-192.27c111.21-56.69,141.51-100.1,228.19-120.65
			c13.4-3.18,27.94-5.61,43.91-7.82c127.23-17.63,210.88,32.96,329.58,69.51c96.8,29.8,184.02,71.27,274.2,100.08
			c48.41,15.58,97.41,26.67,148.75,33.18c161.12,20.42,254.5,49.07,408.4,56.48c35.75,1.72,69.78,1.1,102.98,0.14
			c112.35-3.23,215.67-18.53,349.44-39.16c5.09-6.83,10.18-13.67,15.27-20.5"/>
		<path class="st1" d="M339.27,3327.7c6.13-105.93,17.37-209.88,36.51-307.3c4.78-24.31,10.06-48.38,16.05-72.39
			c82.6-330.49,420.68-613.08,807.78-724.84c183.24-52.91,374.88-75.84,572.47-77.15c102.58-0.65,206.79,3.05,308,4.12
			c53.81,0.57,105.95,0.65,156.3-0.34c140.79-2.78,276.59-14.12,389.95-80.46c13.26-7.76,26.19-16.42,38.91-25.85
			c124.63-92.4,193-250.4,309.58-367.75c88.6-89.19,183.63-133.45,301.66-194.17c113.66-58.47,141.43-103.4,228.84-124.99
			c13.46-3.33,28.14-5.89,44.32-8.23c129.21-18.7,212.34,33.84,332.55,71.59c97.72,30.69,185.27,73.81,275.93,104.25
			c48.67,16.46,98,28.42,149.82,35.62c163.38,22.69,255.16,55.17,411.2,65.63c36.17,2.42,70.53,2.42,104.02,2.03
			c113.48-1.32,217.37-15.47,353.53-35.24c4.92-7.06,9.83-14.11,14.75-21.17"/>
		<path class="st1" d="M298.43,3323.92c5.42-106.27,18.98-210.43,40.6-307.75c5.38-24.22,11.28-48.19,17.88-72.1
			c90.58-328.01,433.71-605.62,823.9-713.54c182.86-50.57,373.69-72.09,570.45-72.99c102.17-0.44,205.99,3.17,306.72,3.62
			c53.62,0.24,105.49-0.16,155.51-1.75c140.17-4.48,274.43-18.51,386.11-85.85c13.08-7.89,25.83-16.66,38.37-26.17
			c122.89-93.25,190.74-250.31,307.06-367.26c89.77-90.25,185.43-134.01,305.02-196.06c116.11-60.25,141.36-106.7,229.49-129.32
			c13.53-3.47,28.33-6.17,44.72-8.65c131.19-19.78,213.8,34.71,335.53,73.67c98.64,31.57,186.53,76.35,277.65,108.43
			c48.94,17.35,98.59,30.18,150.88,38.06c165.65,24.98,255.81,61.26,414,74.77c36.58,3.12,71.29,3.32,105.05,3.91
			c114.6,2,219.08-12.41,357.61-31.32c4.74-7.28,9.48-14.56,14.22-21.83"/>
		<path class="st1" d="M257.6,3320.13c4.72-106.61,20.57-210.99,44.69-308.19c5.99-24.13,12.5-48.01,19.71-71.82
			c98.52-325.53,446.72-598.21,840.03-702.23c182.47-48.26,372.5-68.34,568.43-68.82c101.75-0.23,205.2,3.8,305.44,3.12
			c53.43-0.37,105.04-0.96,154.72-3.17c139.55-6.18,272.27-22.9,382.27-91.25c12.91-8.02,25.47-16.9,37.83-26.5
			c121.15-94.1,188.49-250.23,304.54-366.77c90.94-91.32,187.24-134.57,308.38-197.96c118.55-62.03,141.28-110,230.14-133.66
			c13.59-3.62,28.52-6.46,45.13-9.06c133.17-20.86,215.25,35.58,338.5,75.76c99.56,32.45,187.79,78.89,279.38,112.6
			c49.2,18.23,99.18,31.93,151.95,40.5c167.91,27.27,256.46,67.35,416.79,83.92c37,3.82,72.04,5.06,106.09,5.8
			c115.75,2.51,220.79-9.35,361.7-27.4c4.56-7.5,9.13-15,13.69-22.5"/>
		<path class="st1" d="M216.76,3316.35c4.02-106.94,22.16-211.55,48.77-308.64c6.59-24.04,13.73-47.82,21.54-71.53
			c106.43-323.05,459.71-590.84,856.15-690.92c182.06-45.96,371.31-64.58,566.4-64.66c101.34-0.01,204.4,3.42,304.16,2.62
			c53.23-0.43,104.58-1.77,153.93-4.58c138.93-7.89,270.1-27.29,378.42-96.65c12.73-8.15,25.11-17.14,37.29-26.83
			c119.4-94.96,186.23-250.14,302.02-366.27c92.11-92.38,189.04-135.14,311.73-199.85c121-63.82,141.21-113.29,230.79-137.99
			c13.65-3.76,28.71-6.74,45.54-9.47c135.16-21.94,216.71,36.45,341.48,77.84c100.48,33.34,189.04,81.43,281.11,116.78
			c49.47,19.11,99.77,33.69,153.01,42.94c170.17,29.57,257.12,73.43,419.59,93.06c37.41,4.52,72.79,6.39,107.12,7.69
			c116.88,4.43,222.49-6.29,365.79-23.48c4.39-7.72,8.78-15.45,13.17-23.17"/>
		<path class="st1" d="M175.93,3312.56c3.32-107.28,23.75-212.11,52.86-309.08c7.19-23.95,14.95-47.63,23.37-71.25
			c114.31-320.58,472.69-583.51,872.27-679.61c181.66-43.69,370.12-60.83,564.38-60.49c100.93,0.2,203.61,3.55,302.88,2.12
			c53.04-0.76,104.13-2.58,153.14-5.99c138.31-9.61,267.94-31.69,374.58-102.05c12.55-8.28,24.74-17.38,36.75-27.16
			c117.66-95.81,183.97-250.05,299.5-365.78c93.28-93.45,190.84-135.7,315.09-201.75c123.44-65.61,141.14-116.58,231.45-142.33
			c13.71-3.91,28.91-7.03,45.94-9.89c137.14-23.03,218.17,37.31,344.45,79.92c101.4,34.21,190.3,83.97,282.83,120.95
			c49.73,20,100.36,35.45,154.08,45.38c172.43,31.88,257.78,79.51,422.39,102.21c37.83,5.22,73.54,7.71,108.16,9.57
			c118.01,6.35,224.2-3.23,369.87-19.56c4.21-7.95,8.43-15.89,12.64-23.84"/>
		<path class="st1" d="M135.1,3308.78c2.62-107.62,25.33-212.67,56.95-309.53c7.79-23.86,16.16-47.44,25.2-70.96
			c122.17-318.12,485.65-576.23,888.39-668.3c181.24-41.43,368.93-57.08,562.36-56.33c100.51,0.42,202.81,3.67,301.6,1.62
			c52.85-1.1,103.68-3.4,152.35-7.4c137.69-11.32,265.77-36.09,370.74-107.45c12.37-8.41,24.38-17.62,36.21-27.49
			c115.92-96.66,181.72-249.96,296.98-365.29c94.46-94.51,192.63-136.27,318.45-203.65c125.88-67.4,141.06-119.87,232.1-146.66
			c13.78-4.06,29.1-7.31,46.35-10.3c139.12-24.11,219.63,38.18,347.43,82.01c102.32,35.09,191.56,86.51,284.56,125.12
			c50,20.88,100.95,37.21,155.15,47.82c174.69,34.2,258.44,85.57,425.19,111.35c38.25,5.91,74.29,9.04,109.2,11.46
			c119.14,8.28,225.91-0.17,373.96-15.64c4.04-8.17,8.08-16.34,12.12-24.5"/>
		<path class="st1" d="M94.26,3304.99c1.92-107.96,26.9-213.23,61.03-309.97c8.39-23.78,17.38-47.25,27.02-70.68
			c129.99-315.66,498.6-568.99,904.51-656.99c180.82-39.2,367.74-53.33,560.34-52.17c100.1,0.63,202.02,3.79,300.31,1.12
			c52.66-1.43,103.22-4.21,151.56-8.81c137.07-13.04,263.61-40.49,366.9-112.84c12.19-8.54,24.02-17.87,35.67-27.81
			c114.18-97.52,179.46-249.87,294.46-364.8c95.63-95.57,194.43-136.85,321.81-205.54c128.32-69.2,140.99-123.15,232.75-151
			c13.84-4.2,29.29-7.6,46.76-10.71c141.1-25.2,221.1,39.04,350.41,84.09c103.24,35.97,192.81,89.05,286.29,129.3
			c50.26,21.77,101.54,38.98,156.21,50.26c176.94,36.53,259.1,91.64,427.99,120.5c38.66,6.61,75.05,10.36,110.23,13.35
			c120.27,10.2,227.61,2.89,378.04-11.71c3.86-8.39,7.73-16.78,11.59-25.17"/>
		<path class="st1" d="M53.43,3301.21c1.22-108.3,28.47-213.8,65.12-310.42c8.99-23.69,18.59-47.07,28.85-70.39
			c137.79-313.22,511.54-561.8,920.63-645.68c180.39-36.99,366.55-49.58,558.31-48c99.69,0.85,201.22,3.91,299.03,0.62
			c52.47-1.77,102.77-5.03,150.77-10.22c136.45-14.77,261.44-44.89,363.06-118.24c12.01-8.67,23.66-18.11,35.13-28.14
			c112.44-98.37,177.21-249.78,291.94-364.3c96.81-96.63,196.22-137.42,325.17-207.44c130.76-71,140.92-126.43,233.4-155.33
			c13.9-4.35,29.48-7.88,47.17-11.13c143.08-26.28,222.56,39.9,353.38,86.18c104.16,36.84,194.07,91.59,288.01,133.47
			c50.53,22.65,102.13,40.75,157.28,52.71c179.19,38.86,259.76,97.7,430.78,129.64c39.08,7.3,75.8,11.69,111.27,15.23
			c121.4,12.13,229.32,5.95,382.13-7.79c3.69-8.61,7.38-17.23,11.07-25.84"/>
		<path class="st1" d="M12.59,3297.42c0.52-108.64,30.03-214.37,69.21-310.87c9.58-23.6,19.8-46.88,30.68-70.11
			c145.56-310.8,524.47-554.65,936.75-634.38c179.96-34.8,365.36-45.82,556.29-43.84c99.27,1.06,200.43,4.03,297.75,0.12
			c52.28-2.1,102.31-5.84,149.98-11.63c135.83-16.5,259.27-49.29,359.22-123.64c11.83-8.8,23.3-18.35,34.59-28.47
			c110.7-99.22,174.96-249.69,289.42-363.81c97.98-97.7,198.02-138,328.53-209.33c133.2-72.8,140.86-129.71,234.05-159.67
			c13.97-4.49,29.68-8.16,47.57-11.54c145.06-27.37,224.02,40.76,356.36,88.26c105.08,37.71,195.33,94.13,289.74,137.64
			c50.79,23.53,102.71,42.52,158.34,55.15c181.44,41.2,260.43,103.75,433.58,138.79c39.5,7.99,76.55,13.02,112.3,17.12
			c122.53,14.07,231.03,9.01,386.22-3.87c3.51-8.84,7.03-17.67,10.54-26.51"/>
		<path class="st1" d="M-28.24,3293.63c-0.18-108.97,31.58-214.94,73.29-311.31c10.18-23.51,21.01-46.7,32.51-69.82
			c153.32-308.38,537.39-547.55,952.88-623.07c179.53-32.63,364.17-42.07,554.27-39.67c98.86,1.28,199.63,4.15,296.47-0.38
			c52.09-2.44,101.86-6.66,149.19-13.05c135.21-18.24,257.1-53.7,355.38-129.04c11.65-8.93,22.94-18.59,34.06-28.8
			c108.96-100.07,172.71-249.6,286.9-363.32c99.16-98.76,199.81-138.58,331.89-211.23c135.63-74.6,140.79-132.99,234.7-164
			c14.03-4.63,29.87-8.45,47.98-11.96c147.04-28.46,225.49,41.62,359.33,90.34c106.01,38.59,196.58,96.67,291.46,141.82
			c51.06,24.42,103.3,44.29,159.41,57.59c183.69,43.54,261.09,109.8,436.38,147.93c39.92,8.68,77.3,14.34,113.34,19.01
			c123.66,16,232.73,12.07,390.3,0.05c3.34-9.06,6.68-18.12,10.01-27.17"/>
		<path class="st1" d="M-69.08,3289.85c-0.88-109.31,33.14-215.51,77.38-311.76c10.77-23.43,22.22-46.51,34.34-69.54
			c161.04-305.99,550.31-540.5,969-611.76c179.09-30.48,362.98-38.32,552.25-35.51c98.45,1.49,198.84,4.27,295.19-0.88
			c51.89-2.78,101.41-7.48,148.4-14.46c134.58-19.98,254.93-58.11,351.54-134.44c11.47-9.06,22.58-18.83,33.52-29.13
			c107.22-100.93,170.46-249.5,284.37-362.83c100.34-99.82,201.6-139.16,335.25-213.13c138.06-76.41,140.72-136.26,235.36-168.34
			c14.09-4.78,30.06-8.73,48.39-12.37c149.02-29.55,226.95,42.48,362.31,92.43c106.93,39.46,197.84,99.21,293.19,145.99
			c51.32,25.3,103.88,46.06,160.47,60.03c185.93,45.89,261.76,115.85,439.18,157.08c40.33,9.37,78.05,15.67,114.37,20.89
			c124.79,17.94,234.44,15.12,394.39,3.97c3.16-9.28,6.33-18.56,9.49-27.84"/>
		<path class="st1" d="M-109.91,3286.06c-1.58-109.65,34.68-216.09,81.47-312.2c11.36-23.35,23.43-46.33,36.16-69.25
			c168.75-303.61,563.22-533.49,985.12-600.45c178.65-28.35,361.79-34.57,550.22-31.35c98.03,1.7,198.04,4.39,293.91-1.38
			c51.7-3.11,100.95-8.3,147.61-15.87c133.96-21.72,252.75-62.52,347.7-139.83c11.29-9.19,22.22-19.07,32.98-29.45
			c105.48-101.78,168.21-249.41,281.85-362.34c101.51-100.87,203.39-139.74,338.61-215.02c140.5-78.22,140.66-139.54,236.01-172.67
			c14.16-4.92,30.25-9.02,48.8-12.78c151-30.64,228.41,43.33,365.29,94.51c107.85,40.33,199.1,101.75,294.92,150.17
			c51.59,26.18,104.47,47.83,161.54,62.47c188.17,48.25,262.44,121.89,441.98,166.22c40.75,10.06,78.81,17,115.41,22.78
			c125.92,19.88,236.15,18.18,398.47,7.89c2.99-9.5,5.98-19.01,8.96-28.51"/>
		<path class="st1" d="M-150.75,3282.28c-2.28-109.99,36.23-216.67,85.55-312.65c11.96-23.26,24.63-46.15,37.99-68.97
			c176.44-301.25,576.12-526.54,1001.24-589.14c178.21-26.24,360.6-30.81,548.2-27.18c97.62,1.92,197.25,4.5,292.63-1.88
			c51.51-3.45,100.5-9.13,146.82-17.28c133.34-23.47,250.58-66.93,343.86-145.23c11.11-9.33,21.85-19.31,32.44-29.78
			c103.74-102.63,165.96-249.31,279.33-361.84c102.69-101.93,205.18-140.33,341.97-216.92c142.93-80.03,140.59-142.81,236.66-177.01
			c14.22-5.06,30.44-9.31,49.2-13.2c152.98-31.74,229.88,44.19,368.26,96.6c108.78,41.2,200.35,104.29,296.64,154.34
			c51.85,27.07,105.05,49.61,162.6,64.91c190.41,50.61,263.11,127.93,444.77,175.37c41.17,10.75,79.56,18.33,116.44,24.67
			c127.04,21.82,237.85,21.24,402.56,11.81c2.81-9.73,5.62-19.45,8.44-29.18"/>
		<path class="st1" d="M-191.58,3278.49c-2.98-110.33,37.77-217.26,89.64-313.09c12.55-23.18,25.83-45.97,39.82-68.68
			C122,2597.81,526.9,2377.08,955.24,2318.89c177.77-24.15,359.41-27.06,546.18-23.02c97.21,2.13,196.45,4.62,291.35-2.38
			c51.32-3.79,100.04-9.95,146.03-18.69c132.72-25.22,248.4-71.35,340.02-150.63c10.93-9.46,21.49-19.55,31.9-30.11
			c102-103.49,163.71-249.22,276.81-361.35c103.87-102.99,206.96-140.91,345.33-218.81c145.36-81.84,140.53-146.08,237.31-181.34
			c14.28-5.21,30.64-9.59,49.61-13.61c154.96-32.83,231.35,45.04,371.24,98.68c109.7,42.06,201.61,106.83,298.37,158.51
			c52.12,27.95,105.63,51.39,163.67,67.35c192.65,52.98,263.79,133.97,447.57,184.51c41.6,11.44,80.31,19.66,117.48,26.55
			c128.17,23.76,239.56,24.3,406.64,15.73c2.64-9.95,5.27-19.9,7.91-29.84"/>
		<path class="st1" d="M-232.42,3274.71c-3.68-110.67,39.31-217.85,93.73-313.54c13.14-23.1,27.04-45.8,41.65-68.4
			c191.78-296.59,601.93-512.79,1033.48-566.52c177.33-22.08,358.22-23.31,544.16-18.85c96.79,2.35,195.66,4.73,290.07-2.88
			c51.13-4.13,99.59-10.78,145.24-20.1c132.09-26.98,246.22-75.77,336.18-156.03c10.75-9.59,21.13-19.79,31.36-30.44
			c100.26-104.34,161.47-249.12,274.29-360.86c105.06-104.04,208.75-141.5,348.68-220.71c147.79-83.65,140.47-149.34,237.96-185.68
			c14.35-5.35,30.83-9.88,50.02-14.02c156.93-33.92,232.81,45.89,374.21,100.76c110.63,42.93,202.87,109.37,300.1,162.69
			c52.38,28.83,106.21,53.17,164.73,69.79c194.88,55.36,264.47,140,450.37,193.66c42.02,12.13,81.06,20.99,118.51,28.44
			c129.29,25.71,241.27,27.36,410.73,19.66c2.46-10.17,4.92-20.34,7.39-30.51"/>
		<path class="st1" d="M-273.25,3270.92c-4.38-111,40.84-218.44,97.81-313.99c13.73-23.02,28.24-45.62,43.48-68.11
			c199.42-294.29,614.83-505.99,1049.6-555.21c176.89-20.03,357.03-19.56,542.14-14.69c96.38,2.56,194.86,4.85,288.79-3.38
			c50.94-4.46,99.13-11.6,144.45-21.51c131.47-28.74,244.04-80.19,332.34-161.43c10.57-9.72,20.77-20.03,30.82-30.77
			c98.52-105.19,159.22-249.02,271.77-360.37c106.24-105.1,210.53-142.09,352.04-222.61c150.21-85.47,140.41-152.61,238.61-190.01
			c14.41-5.49,31.02-10.16,50.42-14.44c158.91-35.02,234.28,46.74,377.19,102.85c111.55,43.8,204.12,111.91,301.82,166.86
			c52.65,29.72,106.79,54.95,165.8,72.23c197.11,57.74,265.15,146.03,453.17,202.8c42.44,12.81,81.81,22.32,119.55,30.33
			c130.42,27.66,242.97,30.42,414.82,23.58c2.29-10.39,4.57-20.79,6.86-31.18"/>
		<path class="st1" d="M-314.09,3267.14c-5.08-111.34,42.37-219.04,101.9-314.43c14.31-22.94,29.44-45.45,45.3-67.82
			c207.06-292.01,627.74-499.24,1065.73-543.91c176.45-17.99,355.84-15.81,540.11-10.53c95.97,2.78,194.07,4.96,287.51-3.88
			c50.74-4.8,98.67-12.43,143.66-22.92c130.84-30.51,241.85-84.61,328.5-166.82c10.39-9.86,20.41-20.28,30.28-31.09
			c96.78-106.05,156.97-248.92,269.25-359.88c107.42-106.15,212.32-142.68,355.4-224.5c152.64-87.28,140.35-155.87,239.27-194.35
			c14.48-5.63,31.21-10.45,50.83-14.85c160.89-36.11,235.75,47.59,380.16,104.93c112.48,44.66,205.38,114.45,303.55,171.04
			c52.91,30.6,107.37,56.73,166.86,74.67c199.33,60.12,265.83,152.06,455.97,211.95c42.86,13.5,82.56,23.66,120.58,32.21
			c131.54,29.6,244.68,33.48,418.9,27.5c2.11-10.62,4.22-21.23,6.33-31.85"/>
		<path class="st1" d="M-354.92,3263.35c-5.78-111.68,43.9-219.65,105.99-314.88c14.9-22.86,30.64-45.28,47.13-67.54
			c214.68-289.75,640.64-492.55,1081.85-532.6c176.01-15.98,354.66-12.05,538.09-6.36c95.55,2.99,193.27,5.07,286.23-4.38
			c50.55-5.14,98.22-13.27,142.87-24.34c130.21-32.28,239.67-89.03,324.66-172.22c10.21-9.99,20.05-20.52,29.74-31.42
			c95.04-106.9,154.73-248.83,266.73-359.38c108.6-107.2,214.1-143.27,358.76-226.4c155.06-89.1,140.29-159.13,239.92-198.68
			c14.54-5.77,31.39-10.77,51.24-15.27c162.79-37.53,237.22,48.44,383.14,107.02c113.41,45.53,206.64,116.99,305.28,175.21
			c53.18,31.49,107.95,58.51,167.93,77.11c201.56,62.51,266.52,158.08,458.77,221.09c43.28,14.19,83.31,24.99,121.62,34.1
			c132.66,31.55,246.39,36.54,422.99,31.42c1.94-10.84,3.87-21.68,5.81-32.51"/>
		<path class="st1" d="M-395.75,3259.57c-6.48-112.02,45.43-220.25,110.07-315.32c15.49-22.78,31.84-45.1,48.96-67.25
			c222.29-287.51,653.56-485.91,1097.97-521.29c175.58-13.98,353.47-8.3,536.07-2.2c95.14,3.21,192.47,5.18,284.95-4.89
			c50.36-5.48,97.76-14.1,142.08-25.75c129.58-34.05,237.48-93.46,320.82-177.62c10.02-10.12,19.69-20.76,29.21-31.75
			c93.3-107.75,152.48-248.73,264.21-358.89c109.79-108.26,215.88-143.86,362.12-228.29c157.49-90.92,140.23-162.39,240.57-203.02
			c14.61-5.91,31.59-11.06,51.65-15.68c164.77-38.61,238.69,49.28,386.12,109.1c114.33,46.39,207.89,119.53,307,179.38
			c53.44,32.37,108.53,60.29,168.99,79.55c203.78,64.9,267.21,164.1,461.56,230.24c43.71,14.87,84.06,26.32,122.65,35.99
			c133.78,33.5,248.09,39.6,427.07,35.34c1.76-11.06,3.52-22.12,5.28-33.18"/>
		<path class="st1" d="M-436.59,3255.78c-7.18-112.36,46.95-220.86,114.16-315.77c16.08-22.7,33.03-44.94,50.79-66.97
			c229.9-285.3,666.48-479.32,1114.09-509.98c175.15-12,352.28-4.55,534.05,1.97c94.73,3.42,191.68,5.29,283.67-5.39
			c50.17-5.82,97.3-14.93,141.29-27.16c128.94-35.83,235.28-97.89,316.98-183.02c9.84-10.26,19.33-21,28.67-32.08
			c91.56-108.6,150.24-248.62,261.69-358.4c110.97-109.31,217.66-144.46,365.48-230.19c159.91-92.75,140.17-165.65,241.22-207.35
			c14.67-6.06,31.78-11.34,52.05-16.09c166.75-39.69,240.16,50.13,389.09,111.18c115.26,47.25,209.15,122.07,308.73,183.56
			c53.71,33.25,109.1,62.08,170.06,81.99c205.99,67.3,267.9,170.12,464.36,239.38c44.13,15.56,84.8,27.65,123.69,37.87
			c134.9,35.46,249.8,42.66,431.16,39.26c1.59-11.28,3.17-22.57,4.76-33.85"/>
		<path class="st1" d="M-477.42,3251.99c-7.88-112.7,48.48-221.48,118.25-316.21c16.67-22.63,34.23-44.77,52.62-66.68
			C-69.05,2586,372.85,2396.3,823.65,2370.43c174.72-10.03,351.09-0.8,532.02,6.13c94.31,3.63,190.88,5.4,282.39-5.89
			c49.98-6.17,96.84-15.77,140.5-28.57c128.31-37.62,233.09-102.32,313.14-188.42c9.66-10.39,18.97-21.24,28.13-32.41
			c89.82-109.46,148.21-248.31,259.17-357.91c112.38-110.14,219.44-145.05,368.84-232.09c162.33-94.57,140.12-168.9,241.87-211.69
			c14.74-6.2,31.97-11.63,52.46-16.51c168.73-40.78,241.63,50.97,392.07,113.27c116.19,48.11,210.41,124.61,310.46,187.73
			c53.97,34.14,109.68,63.86,171.12,84.43c208.21,69.7,268.59,176.14,467.16,248.53c44.55,16.24,85.55,28.99,124.72,39.76
			c136.02,37.41,251.51,45.72,435.25,43.18c1.41-11.51,2.82-23.01,4.23-34.52"/>
		<path class="st1" d="M-518.26,3248.21c-8.58-113.03,50-222.1,122.33-316.66c17.25-22.55,35.43-44.6,54.45-66.4
			c245.11-280.92,692.35-466.31,1146.33-487.36c174.3-8.08,349.9,2.95,530,10.29c93.9,3.85,190.09,5.51,281.1-6.39
			c49.78-6.51,96.38-16.6,139.71-29.98c127.67-39.41,230.89-106.75,309.3-193.81c9.48-10.52,18.6-21.48,27.59-32.73
			c88.08-110.31,145.96-248.22,256.65-357.42c113.55-111.2,221.22-145.65,372.2-233.98c164.75-96.39,140.06-172.16,242.52-216.02
			c14.8-6.34,32.16-11.91,52.87-16.92c170.71-41.86,243.1,51.82,395.04,115.35c117.12,48.98,211.66,127.15,312.18,191.91
			c54.24,35.02,110.25,65.65,172.19,86.87c210.42,72.1,269.29,182.16,469.96,257.67c44.98,16.93,86.3,30.32,125.76,41.65
			c137.13,39.37,253.21,48.78,439.33,47.11c1.23-11.73,2.47-23.46,3.71-35.19"/>
		<path class="st1" d="M-559.09,3244.42c-9.28-113.37,51.52-222.72,126.42-317.1c17.84-22.48,36.62-44.44,56.27-66.11
			c252.7-278.77,705.3-459.89,1162.46-476.05c173.89-6.15,348.71,6.71,527.98,14.46c93.49,4.06,189.29,5.62,279.82-6.89
			c49.59-6.85,95.92-17.44,138.92-31.39c127.03-41.2,228.69-111.18,305.45-199.21c9.29-10.66,18.24-21.72,27.05-33.06
			c86.34-111.16,143.7-248.13,254.13-356.92c114.73-112.26,223-146.24,375.56-235.88c167.17-98.22,140.01-175.41,243.18-220.36
			c14.87-6.48,32.35-12.19,53.27-17.34c172.69-42.94,244.58,52.66,398.02,117.43c118.05,49.84,212.92,129.69,313.91,196.08
			c54.5,35.9,110.83,67.44,173.25,89.32c212.63,74.51,269.98,188.18,472.76,266.82c45.4,17.61,87.05,31.65,126.79,43.53
			c138.25,41.32,254.92,51.84,443.42,51.03c1.06-11.95,2.12-23.9,3.18-35.85"/>
		<path class="st1" d="M-599.93,3240.64c-9.98-113.71,53.04-223.35,130.51-317.55c18.43-22.41,37.82-44.28,58.1-65.83
			c260.3-276.63,718.26-453.52,1178.58-464.74c173.48-4.23,347.52,10.46,525.96,18.62c93.07,4.28,188.47,5.55,278.54-7.39
			c49.38-7.29,95.45-18.28,138.13-32.8c126.38-43,226.49-115.61,301.61-204.61c9.11-10.79,17.88-21.96,26.51-33.39
			c84.6-112.02,141.44-248.04,251.6-356.43c115.91-113.32,224.78-146.84,378.92-237.77c169.59-100.05,139.96-178.66,243.83-224.69
			c14.93-6.62,32.55-12.48,53.68-17.75c174.67-44.02,246.18,53.19,401,119.52c119.08,50.46,214.18,132.23,315.64,200.25
			c54.77,36.79,111.4,69.23,174.32,91.76c214.83,76.92,270.68,194.19,475.55,275.96c45.83,18.29,87.8,32.99,127.83,45.42
			c139.36,43.28,256.63,54.9,447.5,54.95c0.88-12.17,1.77-24.35,2.65-36.52"/>
		<path class="st1" d="M-640.76,3236.85c-10.68-114.05,54.56-223.98,134.59-318c19.01-22.33,39.02-44.11,59.93-65.54
			c267.89-274.51,731.83-429.24,1194.7-453.44c172.85-9.03,346.33,14.21,523.93,22.79c92.66,4.49,187.67,5.67,277.26-7.89
			c49.19-7.63,94.99-19.12,137.34-34.21c125.73-44.8,224.28-120.04,297.77-210.01c8.93-10.93,17.52-22.2,25.97-33.72
			c82.86-112.87,139.19-247.95,249.08-355.94c117.08-114.38,226.56-147.44,382.28-239.67c172-101.88,139.91-181.91,244.48-229.03
			c15-6.76,32.74-12.76,54.09-18.16c176.65-45.11,247.64,54.06,403.97,121.6c120,51.34,215.43,134.77,317.36,204.43
			c55.03,37.67,111.97,71.02,175.38,94.2c217.04,79.34,271.39,200.2,478.35,285.11c46.26,18.98,88.54,34.32,128.86,47.31
			c140.48,45.24,258.33,57.96,451.59,58.87c0.71-12.4,1.42-24.79,2.13-37.19"/>
		<path class="st1" d="M-681.6,3233.07c-11.38-114.39,56.08-224.61,138.68-318.44c19.6-22.26,40.21-43.96,61.76-65.26
			c275.49-272.41,744.56-424.55,1210.82-442.13c172.56-6.5,345.14,17.96,521.91,26.95c92.25,4.71,186.87,5.79,275.98-8.39
			c49-7.96,94.53-19.97,136.55-35.63c125.08-46.61,222.07-124.48,293.93-215.41c8.74-11.06,17.16-22.44,25.43-34.04
			c81.12-113.72,136.93-247.86,246.56-355.45c118.26-115.44,228.34-148.04,385.63-241.57c174.42-103.71,139.86-185.16,245.13-233.36
			c15.07-6.9,32.93-13.05,54.5-18.58c178.63-46.19,249.11,54.93,406.95,123.69c120.92,52.22,216.69,137.31,319.09,208.6
			c55.3,38.55,112.55,72.81,176.45,96.64c219.24,81.76,272.09,206.21,481.15,294.25c46.68,19.66,89.29,35.66,129.9,49.19
			c141.59,47.2,260.04,61.02,455.67,62.79c0.53-12.62,1.07-25.24,1.6-37.86"/>
		<path class="st1" d="M-722.43,3229.28c-12.09-114.73,57.6-225.25,142.77-318.89c20.19-22.19,41.41-43.8,63.59-64.97
			c283.09-270.33,757.35-420.02,1226.94-430.82c172.25-3.96,343.95,21.72,519.89,31.11c91.83,4.92,186.07,5.91,274.7-8.89
			c48.81-8.3,94.06-20.81,135.76-37.04c124.42-48.42,219.86-128.91,290.09-220.8c8.56-11.2,16.8-22.69,24.9-34.37
			c79.38-114.58,134.68-247.78,244.04-354.95c119.44-116.5,229.93-148.94,388.99-243.46c176.63-105.88,139.81-188.41,245.78-237.7
			c15.13-7.04,33.12-13.33,54.9-18.99c180.61-47.27,250.57,55.79,409.92,125.77c121.84,53.1,217.94,139.85,320.81,212.77
			c55.56,39.44,113.12,74.6,177.52,99.08c221.43,84.18,272.8,212.22,483.95,303.4c47.11,20.34,90.01,37.07,130.93,51.08
			c142.61,49.42,261.75,64.08,459.76,66.71c0.36-12.84,0.72-25.68,1.08-38.52"/>
		<path class="st1" d="M-763.27,3225.5c-12.79-115.07,59.12-225.89,146.85-319.33c20.77-22.12,42.61-43.64,65.41-64.69
			c290.69-268.26,770.28-428.57,1243.06-419.51c171.91,3.29,342.76,25.47,517.87,35.28c91.42,5.13,185.28,6.03,273.42-9.39
			c48.62-8.63,93.59-21.65,134.97-38.45c123.76-50.23,217.64-133.35,286.25-226.2c8.37-11.33,16.44-22.93,24.36-34.7
			c77.64-115.43,132.42-247.69,241.52-354.46c120.61-117.56,231.73-149.5,392.35-245.36c179.07-107.67,139.77-191.65,246.43-242.03
			c15.2-7.18,33.31-13.61,55.31-19.4c182.58-48.35,252.03,56.66,412.9,127.85c122.77,53.98,219.2,142.4,322.54,216.95
			c55.83,40.32,113.69,76.39,178.58,101.52c223.63,86.6,273.51,218.23,486.75,312.54c47.54,21.02,90.76,38.39,131.97,52.97
			c143.73,51.34,263.45,67.14,463.85,70.63c0.18-13.06,0.37-26.13,0.55-39.19"/>
		<path class="st1" d="M-804.1,3221.71c-13.49-115.4,60.64-226.54,150.94-319.78c21.36-22.06,43.8-43.48,67.24-64.4
			c298.29-266.21,783.32-422.46,1259.18-408.2c171.54,5.14,341.57,29.22,515.85,39.44c91.01,5.35,184.48,6.15,272.14-9.89
			c48.42-8.97,93.12-22.5,134.18-39.86c123.1-52.05,215.42-137.78,282.41-231.6c8.19-11.47,16.08-23.17,23.82-35.03
			c75.9-116.28,130.16-247.6,239-353.97c121.79-118.62,233.53-150.06,395.71-247.25c181.51-109.46,139.72-194.9,247.08-246.37
			c15.26-7.32,33.51-13.9,55.72-19.82c184.56-49.44,253.5,57.53,415.87,129.94c123.69,54.86,220.46,144.94,324.27,221.12
			c56.09,41.21,114.26,78.18,179.65,103.96c225.82,89.03,274.38,223.88,489.55,321.69c48,21.63,91.51,39.72,133,54.85
			c144.85,53.27,265.16,70.2,467.93,74.55c0.01-13.29,0.02-26.57,0.02-39.86"/>
		<path class="st1" d="M-844.94,3217.93c-14.19-115.74,62.16-227.19,155.03-320.22c21.95-21.99,45-43.33,69.07-64.12
			c305.9-264.18,796.4-416.41,1275.31-396.89c171.17,6.98,340.38,32.97,513.82,43.61c90.59,5.56,183.68,6.26,270.86-10.39
			c48.23-9.31,92.65-23.34,133.39-41.27c122.43-53.87,213.2-142.22,278.57-237c8-11.6,15.71-23.41,23.28-35.36
			c74.16-117.13,127.91-247.51,236.48-353.48c122.97-119.68,235.33-150.62,399.07-249.15c183.95-111.24,139.77-197.96,247.74-250.7
			c15.34-7.43,33.7-14.18,56.13-20.23c186.54-50.52,254.96,58.39,418.85,132.02c124.61,55.74,221.71,147.48,325.99,225.3
			c56.36,42.09,114.83,79.97,180.71,106.4c228.01,91.46,275.06,229.96,492.34,330.83c48.42,22.32,92.26,41.04,134.04,56.74
			c145.97,55.19,266.87,73.26,472.02,78.48c-0.17-13.51-0.33-27.02-0.5-40.53"/>
		<path class="st1" d="M-885.77,3214.14c-14.89-116.08,63.51-228.02,159.11-320.67c22.49-21.96,46.2-43.18,70.9-63.83
			c313.51-262.16,809.49-410.41,1291.43-385.58c170.82,8.8,339.19,36.72,511.8,47.77c90.18,5.78,182.89,6.38,269.58-10.89
			c48.04-9.64,92.18-24.19,132.6-42.68c121.76-55.7,210.82-146.76,274.73-242.4c7.8-11.75,15.35-23.65,22.74-35.69
			c72.42-117.99,125.65-247.42,233.96-352.99c124.14-120.74,237.13-151.18,402.43-251.05c186.39-113.03,139.7-201.24,248.39-255.04
			c15.41-7.58,33.89-14.47,56.53-20.65c188.52-51.6,256.42,59.26,421.83,134.11c125.53,56.62,222.97,150.02,327.72,229.47
			c56.62,42.97,115.35,81.87,181.78,108.84c230.04,94.27,275.75,236.03,495.14,339.98c48.85,23.02,93.01,42.37,135.08,58.63
			c147.09,57.12,268.57,76.32,476.1,82.4c-0.34-13.73-0.68-27.46-1.03-41.19"/>
		<path class="st1" d="M-926.61,3210.35c-15.59-116.42,65.09-228.61,163.2-321.11c23.09-21.88,47.35-43.07,72.73-63.55
			c320.62-260.78,822.61-404.46,1307.55-374.27c170.48,10.61,338,40.48,509.78,51.94c89.77,5.99,182.09,6.5,268.3-11.39
			c47.85-9.98,91.68-25.1,131.81-44.09c120.99-57.72,208.64-151.16,270.89-247.79c7.61-11.88,14.99-23.89,22.2-36.01
			c70.68-118.84,123.4-247.33,231.44-352.49c125.32-121.8,238.93-151.73,405.79-252.94c188.83-114.82,139.64-204.53,249.04-259.37
			c15.47-7.72,34.08-14.75,56.94-21.06c190.5-52.68,257.89,60.13,424.8,136.19c126.46,57.5,224.23,152.56,329.45,233.64
			c56.89,43.86,115.93,83.63,182.84,111.28c232.27,96.58,276.43,242.11,497.94,349.12c49.27,23.72,93.76,43.69,136.11,60.51
			c148.21,59.04,270.28,79.38,480.19,86.32c-0.52-13.95-1.03-27.91-1.55-41.86"/>
		<path class="st1" d="M-967.44,3206.57c-16.29-116.76,66.67-229.21,167.29-321.56c23.69-21.8,48.57-42.9,74.55-63.26
			c328.5-258.48,835.75-398.56,1323.67-362.97c170.14,12.41,336.81,44.23,507.76,56.1c89.35,6.21,181.29,6.62,267.02-11.89
			c47.65-10.31,91.22-25.92,131.02-45.5c120.35-59.45,206.46-155.56,267.05-253.19c7.43-12.01,14.63-24.13,21.66-36.34
			c68.94-119.69,121.14-247.25,228.92-352c126.5-122.86,240.73-152.29,409.15-254.84c191.27-116.6,139.57-207.82,249.69-263.71
			c15.53-7.87,34.27-15.03,57.35-21.47c192.48-53.77,259.35,61,427.78,138.27c127.38,58.38,225.48,155.1,331.17,237.82
			c57.15,44.74,116.51,85.39,183.91,113.72c234.5,98.89,277.11,248.19,500.74,358.27c49.69,24.42,94.5,45.02,137.15,62.4
			c149.33,60.97,271.99,82.44,484.27,90.24c-0.69-14.18-1.39-28.35-2.08-42.53"/>
		<path class="st1" d="M-1008.27,3202.78c-16.99-117.1,68.25-229.81,171.37-322.01c331.59-296.47,886.49-458.94,1416.18-414.64
			c169.82,14.2,335.62,47.98,505.73,60.26c88.94,6.42,180.5,6.74,265.74-12.39c191.39-42.95,315.08-174.35,393.44-305.51
			s129.04-273.18,247.52-388.18c127.67-123.92,242.53-152.85,412.51-256.73c220.98-135.05,119.34-236.69,308.1-289.93
			c194.46-54.85,260.82,61.86,430.75,140.36c197.69,91.32,324.49,275.49,517.87,358.15c236.74,101.19,277.79,254.27,503.54,367.41
			c225.74,113.14,350.62,147.32,626.54,158.45c-0.87-14.4-1.74-28.8-2.6-43.2"/>
	</g>
	<g class="st0">
		<path class="st1" d="M3954.27,832.99c-44.78,129.68-5.55,271.34-1.83,408.48c11.03,406.63-311.43,770.17-695.9,904.28
			s-812.24,76.16-1198.33-53.53c-175.64-58.99-363.88-133.12-540.2-76.34c-177.87,57.29-288.18,230.41-436.43,344.04
			c-146.31,112.14-336.12,166.1-519.68,147.74c-201.48-20.15-386.47-122.24-586.39-154.38c-211.18-33.96-426.11,11.72-635.08,57.17
			c-113.8,24.76-227.61,49.51-341.41,74.27"/>
		<path class="st1" d="M3997.08,843.43c-38.86,115.03-15.31,238.85-8.81,360.17c0.87,15.72,1.46,31.41,1.57,47.03
			c3.98,402.76-321.84,760.81-708.1,891.01c-59.93,20.24-120.88,35.87-182.52,47.34c-159.65,29.69-323.94,31.46-487.73,13.84
			c-84.85-9.13-169.59-23.46-253.34-41.62c-94.24-20.36-186.96-45.45-277.12-74.07c-63.59-20.05-128.6-41.84-193.9-58.78
			c-115.21-29.81-231.57-44.36-343.78-6.99c-29.63,9.85-57.45,22.85-83.95,38.2c-132.23,76.59-229.69,210.4-354.86,304.47
			c-89.67,67.39-187.78,114.64-296.45,137.42c-75.04,15.74-150.99,19.2-226.1,10.49c-42.59-4.88-84.5-13.44-126.25-24.14
			c-155.29-39.63-302.81-111.33-461.13-138.5c-156.36-27.23-310.47-13.01-466.77,12.59c-56.89,9.38-113.32,20.47-169.33,31.7
			c-103.63,20.77-207.22,42.08-312.17,63.4c-10.37,2.55-20.73,5.1-31.1,7.66"/>
		<path class="st1" d="M4039.9,853.86c-38.09,115.27-17.18,238.73-13.29,359.27c0.56,15.6,0.8,31.16,0.64,46.65
			c-3.96,398.89-332.24,751.46-720.3,877.75c-60.13,19.64-121.24,34.71-183.02,45.62c-160.03,28.26-324.45,28.76-488.54,10.69
			c-85.02-9.36-170.02-23.7-253.96-41.36c-94.7-19.78-187.5-43.72-277.57-70.45c-63.59-18.87-128.44-39.01-193.36-54.49
			c-114.57-27.18-229.91-39.21-341.8-0.72c-29.52,10.12-57.31,23.31-83.85,38.76c-132.69,77.28-230.5,209-357.33,302.54
			c-92.82,68.46-187.31,117-297.98,139.86c-76.37,15.79-152.23,18.14-227.44,8.22c-42.57-5.5-84.52-14.7-126.58-25.93
			c-156.1-41.4-302.86-115.59-461.8-144.96c-158.02-29.2-309.36-19.02-466.98,2.95c-57.31,8.1-113.93,18.13-170.12,28.45
			c-103.99,19.08-207.92,39.24-314.57,59.41c-10.19,2.81-20.37,5.62-30.56,8.43"/>
		<path class="st1" d="M4082.72,864.3c-37.32,115.51-19.37,238.63-17.77,358.36c0.21,15.48,0.16,30.91-0.29,46.28
			c-11.43,395-342.64,742.1-732.49,864.48c-60.32,19.05-121.61,33.54-183.52,43.91c-160.4,26.83-324.95,26.06-489.35,7.55
			c-85.2-9.6-170.44-23.94-254.58-41.1c-95.17-19.2-188.07-41.9-278.02-66.83c-63.61-17.64-128.29-36.18-192.81-50.2
			c-113.93-24.55-228.25-34.05-339.82,5.56c-29.41,10.39-57.16,23.77-83.76,39.32c-133.14,77.98-231.34,207.57-359.81,300.6
			c-95.99,69.51-186.83,119.36-299.51,142.3c-77.71,15.84-153.47,17.08-228.78,5.95c-42.55-6.12-84.54-15.95-126.92-27.72
			c-156.91-43.16-302.87-120.06-462.46-151.42c-159.65-31.37-308.26-25.03-467.2-6.68c-57.72,6.83-114.54,15.79-170.92,25.2
			c-104.36,17.39-208.62,36.4-316.96,55.43c-10.01,3.07-20.01,6.13-30.02,9.2"/>
		<path class="st1" d="M4125.53,874.73c-36.55,115.75-21.33,238.51-22.24,357.46c-0.12,15.36-0.48,30.67-1.22,45.91
			c-18.9,391.09-353.05,732.75-744.69,851.22c-60.52,18.45-121.97,32.38-184.03,42.2c-160.77,25.4-325.46,23.35-490.16,4.4
			c-85.37-9.83-170.87-24.19-255.21-40.84c-95.63-18.62-188.65-40.08-278.46-63.22c-63.64-16.4-128.13-33.35-192.27-45.91
			c-113.29-21.93-226.58-28.9-337.85,11.84c-29.3,10.66-57.02,24.22-83.66,39.89c-133.6,78.68-232.2,206.11-362.29,298.67
			c-99.17,70.56-186.36,121.72-301.04,144.74c-79.05,15.89-154.68,15.83-230.12,3.68c-42.51-6.84-84.56-17.21-127.25-29.51
			c-157.72-44.93-302.89-124.54-463.13-157.88c-161.28-33.56-307.16-31.05-467.42-16.32c-58.14,5.55-115.14,13.45-171.72,21.95
			c-104.73,15.7-209.32,33.56-319.36,51.44c-9.82,3.32-19.65,6.65-29.47,9.97"/>
		<path class="st1" d="M4168.35,885.17c-35.78,115.99-23.3,238.38-26.72,356.55c-0.44,15.24-1.12,30.42-2.15,45.53
			c-26.34,387.17-363.45,723.39-756.89,837.95c-60.72,17.86-122.34,31.22-184.53,40.48c-161.15,23.97-325.96,20.65-490.97,1.26
			c-85.54-10.06-171.29-24.43-255.83-40.58c-96.09-18.04-189.23-38.25-278.91-59.6c-63.67-15.16-127.97-30.52-191.72-41.62
			c-112.64-19.3-224.92-23.75-335.87,18.11c-29.19,10.93-56.87,24.68-83.56,40.45c-134.06,79.38-233.08,204.63-364.77,296.73
			c-102.37,71.59-185.88,124.07-302.57,147.18c-80.38,15.93-155.9,14.73-231.45,1.41c-42.48-7.48-84.58-18.46-127.58-31.3
			c-158.53-46.7-302.91-129.04-463.79-164.35c-162.91-35.75-306.09-37.41-467.64-25.95c-58.56,4.15-115.75,11.11-172.52,18.7
			c-105.1,14.01-210.02,30.72-321.75,47.46c-9.64,3.58-19.29,7.16-28.93,10.74"/>
		<path class="st1" d="M4211.16,895.6c-35.01,116.22-25.26,238.25-31.2,355.65c-0.76,15.11-1.76,30.17-3.08,45.16
			c-33.77,383.23-373.86,714.04-769.09,824.69c-60.91,17.26-122.7,30.05-185.03,38.77c-161.52,22.54-326.47,17.95-491.78-1.89
			c-85.72-10.3-171.72-24.67-256.45-40.32c-96.56-17.46-189.81-36.42-279.36-55.98c-63.7-13.91-127.82-27.69-191.18-37.33
			c-112-16.67-223.26-18.6-333.9,24.39c-29.08,11.21-56.73,25.14-83.46,41.02c-134.52,80.08-233.98,203.13-367.25,294.8
			c-105.58,72.62-185.4,126.43-304.1,149.62c-81.72,15.98-157.13,13.63-232.79-0.85c-42.45-8.12-84.57-19.81-127.91-33.1
			c-159.24-48.81-302.93-133.55-464.45-170.81c-164.54-37.96-304.98-43.48-467.85-35.59c-58.97,2.86-116.36,8.77-173.31,15.45
			c-105.47,12.32-210.72,27.87-324.15,43.47c-9.46,3.84-18.93,7.68-28.39,11.52"/>
		<path class="st1" d="M4253.98,906.04c-34.24,116.46-27.22,238.12-35.68,354.74c-1.09,14.99-2.4,29.92-4.01,44.78
			c-41.19,379.28-384.26,704.68-781.28,811.42c-61.11,16.66-123.07,28.89-185.53,37.05c-161.89,21.11-326.98,15.25-492.58-5.03
			c-85.89-10.53-172.11-25.09-257.07-40.06c-96.98-17.09-190.4-34.59-279.81-52.36c-63.74-12.67-127.66-24.86-190.63-33.04
			c-111.36-14.05-221.6-13.45-331.92,30.66c-28.97,11.48-56.58,25.59-83.36,41.58c-134.98,80.77-234.9,201.61-369.73,292.86
			c-108.79,73.64-184.93,128.79-305.63,152.06c-83.05,16.03-158.36,12.53-234.13-3.12c-42.42-8.76-84.58-21.08-128.25-34.89
			c-160.03-50.62-302.95-138.06-465.12-177.27c-166.18-40.17-303.87-49.54-468.07-45.22c-59.38,1.56-116.97,6.43-174.11,12.2
			c-105.84,10.62-211.42,25.03-326.55,39.48c-9.28,4.1-18.57,8.19-27.85,12.29"/>
		<path class="st1" d="M4296.79,916.47c-33.47,116.7-29.17,237.98-40.15,353.84c-1.41,14.87-3.03,29.67-4.94,44.41
			c-48.58,375.31-394.66,695.33-793.48,798.16c-61.31,16.07-123.43,27.72-186.03,35.34c-162.26,19.68-327.48,12.54-493.39-8.18
			c-86.06-10.76-172.53-25.35-257.69-39.8c-97.44-16.53-190.99-32.76-280.26-48.75c-63.78-11.42-127.49-22.16-190.09-28.75
			c-110.69-11.65-219.93-8.3-329.95,36.94c-28.86,11.75-56.44,26.05-83.27,42.14c-135.44,81.47-235.84,200.06-372.21,290.93
			c-112.02,74.64-184.45,131.15-307.17,154.5c-84.39,16.08-159.58,11.43-235.47-5.39c-42.4-9.4-84.6-22.34-128.58-36.68
			c-160.83-52.42-302.96-142.59-465.78-183.73c-167.81-42.4-302.76-55.6-468.29-54.86c-59.8,0.27-117.57,4.09-174.91,8.95
			c-106.21,8.93-212.12,22.19-328.94,35.5c-9.1,4.35-18.2,8.71-27.31,13.06"/>
		<path class="st1" d="M4339.61,926.9c-32.7,116.94-31.11,237.84-44.63,352.93c-1.73,14.74-3.67,29.42-5.87,44.03
			c-55.96,371.34-405.28,685.1-805.68,784.89c-61.54,15.34-123.8,26.56-186.53,33.62c-162.64,18.26-327.99,9.84-494.2-11.32
			c-86.24-11-172.95-25.61-258.32-39.54c-97.9-15.97-191.59-30.92-280.7-45.13c-63.82-10.17-127.34-19.35-189.54-24.46
			c-110.06-9.05-218.27-3.14-327.97,43.22c-28.75,12.02-56.3,26.51-83.17,42.71c-135.9,82.17-236.79,198.5-374.69,288.99
			c-115.26,75.63-183.98,133.5-308.7,156.94c-85.73,16.13-160.81,10.34-236.81-7.66c-42.37-10.04-84.61-23.61-128.91-38.47
			c-161.62-54.23-302.98-147.13-466.44-190.19c-169.44-44.63-301.65-61.66-468.5-64.49c-60.21-1.02-118.18,1.75-175.71,5.7
			c-106.57,7.24-212.82,19.35-331.34,31.51c-8.92,4.61-17.84,9.22-26.76,13.83"/>
		<path class="st1" d="M4382.42,937.34c-31.92,117.18-33.06,237.7-49.11,352.03c-2.05,14.62-4.3,29.17-6.8,43.66
			c-63.32,367.34-415.7,675.67-817.87,771.63c-61.73,14.73-124.16,25.39-187.04,31.91c-163.01,16.83-328.5,7.14-495.01-14.47
			c-86.41-11.23-173.38-25.87-258.94-39.28c-98.37-15.41-192.19-29.08-281.15-41.51c-63.86-8.92-127.18-16.53-189-20.17
			c-109.42-6.44-216.51,2.24-325.99,49.49c-28.62,12.35-56.15,26.96-83.07,43.27c-136.36,82.87-237.75,196.93-377.17,287.06
			c-118.51,76.62-183.5,135.86-310.23,159.38c-87.06,16.18-162.03,9.25-238.14-9.93c-42.34-10.67-84.62-24.87-129.24-40.27
			c-162.42-56.03-303-151.68-467.11-196.66c-171.07-46.88-300.53-67.72-468.72-74.13c-60.62-2.31-118.79-0.59-176.5,2.45
			c-106.94,5.55-213.52,16.51-333.74,27.53c-8.74,4.87-17.48,9.74-26.22,14.6"/>
		<path class="st1" d="M4425.24,947.77c-31.15,117.42-34.99,237.55-53.59,351.12c-2.37,14.49-4.94,28.91-7.73,43.28
			c-70.65,363.34-426.11,666.25-830.07,758.36c-61.93,14.12-124.53,24.23-187.54,30.19c-163.38,15.4-329,4.44-495.82-17.62
			c-86.59-11.46-173.8-26.13-259.56-39.02c-98.83-14.85-192.79-27.24-281.6-37.89c-63.9-7.67-127.03-13.71-188.45-15.88
			c-108.78-3.84-214.84,7.41-324.02,55.77c-28.51,12.63-56.01,27.42-82.97,43.83c-136.82,83.57-238.73,195.33-379.64,285.12
			c-121.76,77.59-183.03,138.22-311.76,161.82c-88.4,16.23-163.26,8.17-239.48-12.2c-42.31-11.3-84.64-26.14-129.58-42.06
			c-163.21-57.82-303.01-156.24-467.77-203.12c-172.71-49.13-299.42-73.77-468.94-83.76c-61.03-3.6-119.39-2.93-177.3-0.79
			c-107.31,3.86-214.23,13.67-336.13,23.54c-8.56,5.13-17.12,10.25-25.68,15.38"/>
		<path class="st1" d="M4468.05,958.21c-30.38,117.66-36.93,237.4-58.07,350.22c-2.69,14.37-5.57,28.66-8.66,42.91
			c-77.96,359.33-436.51,656.83-842.27,745.1c-62.13,13.52-124.89,23.07-188.04,28.48c-163.76,13.97-329.51,1.73-496.63-20.76
			c-86.76-11.7-174.22-26.39-260.18-38.76c-99.29-14.29-193.39-25.39-282.05-34.28c-63.95-6.41-126.88-10.89-187.91-11.59
			c-108.15-1.23-213.17,12.57-322.04,62.05c-28.39,12.9-55.86,27.88-82.87,44.4c-137.27,84.27-239.72,193.72-382.12,283.19
			c-125.03,78.55-182.55,140.58-313.29,164.26c-89.73,16.28-164.48,7.08-240.82-14.47c-42.28-11.93-84.65-27.4-129.91-43.85
			c-164.01-59.62-303.03-160.81-468.44-209.58c-174.34-51.4-298.3-79.81-469.16-93.4c-61.43-4.88-120-5.27-178.1-4.04
			c-107.68,2.17-214.93,10.83-338.53,19.56c-8.38,5.38-16.76,10.77-25.14,16.15"/>
		<path class="st1" d="M4510.87,968.64c-29.61,117.9-38.85,237.25-62.54,349.31c-3.01,14.24-6.21,28.41-9.59,42.53
			c-85.25,355.31-446.92,647.41-854.47,731.83c-62.33,12.91-125.26,21.9-188.54,26.77c-164.13,12.54-330.01-0.97-497.44-23.91
			c-86.93-11.93-174.65-26.64-260.8-38.5c-99.75-13.73-194-23.53-282.5-30.66c-64-5.15-126.73-8.07-187.36-7.3
			c-107.51,1.37-211.49,17.74-320.07,68.32c-28.28,13.18-55.72,28.33-82.77,44.96c-137.73,84.96-240.72,192.1-384.6,281.26
			c-128.3,79.5-182.08,142.93-314.82,166.69c-91.07,16.33-165.71,6-242.16-16.74c-42.25-12.56-84.67-28.66-130.24-45.64
			c-164.81-61.41-303.04-165.39-469.1-216.04c-175.97-53.67-297.18-85.85-469.37-103.03c-61.84-6.17-120.61-7.61-178.89-7.29
			c-108.05,0.48-215.63,7.98-340.93,15.57c-8.2,5.64-16.4,11.28-24.6,16.92"/>
		<path class="st1" d="M4553.68,979.08c-28.84,118.14-40.77,237.1-67.02,348.41c-3.33,14.12-6.84,28.16-10.52,42.16
			c-92.51,351.29-457.32,638-866.66,718.57c-62.52,12.31-125.62,20.74-189.04,25.05c-164.5,11.11-330.52-3.67-498.24-27.05
			c-87.11-12.16-175.07-26.89-261.43-38.24c-100.21-13.16-194.61-21.67-282.95-27.04c-64.05-3.89-126.58-5.25-186.82-3.01
			c-106.88,3.98-209.82,22.9-318.09,74.6c-28.17,13.45-55.57,28.79-82.68,45.52c-138.19,85.66-241.73,190.46-387.08,279.32
			c-131.58,80.44-181.6,145.29-316.35,169.13c-92.41,16.38-166.93,4.92-243.5-19c-42.22-13.19-84.68-29.92-130.58-47.43
			c-165.6-63.19-303.05-169.98-469.76-222.5c-177.59-55.95-296.06-91.89-469.59-112.67c-62.25-7.45-121.21-9.95-179.69-10.54
			c-108.42-1.21-216.33,5.14-343.32,11.58c-8.02,5.9-16.04,11.8-24.06,17.69"/>
		<path class="st1" d="M4596.5,989.51c-28.07,118.38-42.68,236.94-71.5,347.5c-3.65,13.99-7.47,27.9-11.46,41.79
			c-99.75,347.25-467.72,628.59-878.86,705.3c-62.72,11.7-125.99,19.57-189.54,23.34c-164.87,9.68-331.03-6.37-499.05-30.2
			c-87.28-12.4-175.5-27.15-262.05-37.98c-100.68-12.6-195.22-19.81-283.39-23.42c-64.1-2.63-126.42-2.43-186.27,1.28
			c-106.25,6.59-208.15,28.07-316.12,80.88c-28.06,13.72-55.43,29.25-82.58,46.09c-138.65,86.36-242.74,188.81-389.56,277.39
			c-134.86,81.37-181.12,147.65-317.89,171.57c-93.74,16.43-168.16,3.84-244.83-21.27c-42.19-13.82-84.7-31.18-130.91-49.23
			c-166.4-64.98-303.06-174.58-470.43-228.96c-179.22-58.24-294.94-97.92-469.81-122.3c-62.66-8.74-121.82-12.29-180.49-13.79
			c-108.79-2.9-217.03,2.3-345.72,7.6c-7.84,6.16-15.68,12.31-23.51,18.47"/>
		<path class="st1" d="M4639.31,999.95c-27.3,118.61-44.59,236.79-75.98,346.6c-3.96,13.86-8.1,27.65-12.39,41.41
			c-106.96,343.22-478.12,619.19-891.06,692.04c-62.91,11.1-126.35,18.41-190.05,21.62c-165.25,8.25-331.53-9.08-499.86-33.34
			c-87.46-12.63-175.92-27.4-262.67-37.72c-101.14-12.03-195.84-17.94-283.84-19.81c-64.16-1.36-126.27,0.39-185.73,5.57
			c-105.61,9.2-206.48,33.23-314.14,87.15c-27.95,14-55.29,29.7-82.48,46.65c-139.11,87.06-243.77,187.14-392.04,275.45
			c-138.16,82.29-180.65,150.01-319.42,174.01c-95.08,16.48-169.39,2.77-246.17-23.54c-42.17-14.45-84.71-32.44-131.24-51.02
			c-167.2-66.76-303.07-179.18-471.09-235.43c-180.84-60.54-293.83-103.95-470.03-131.94c-63.07-10.02-122.43-14.63-181.29-17.04
			c-109.15-4.59-217.73-0.54-348.11,3.61c-7.66,6.41-15.31,12.83-22.97,19.24"/>
		<path class="st1" d="M4682.13,1010.38c-26.53,118.85-46.49,236.63-80.46,345.69c-4.28,13.74-8.73,27.4-13.32,41.04
			c-114.14,339.18-488.52,609.79-903.25,678.77c-63.11,10.5-126.72,17.24-190.55,19.91c-165.62,6.82-332.04-11.78-500.67-36.49
			c-87.63-12.86-176.35-27.65-263.29-37.46c-101.61-11.46-196.45-16.07-284.29-16.19c-64.21-0.09-126.12,3.21-185.18,9.86
			c-104.98,11.82-204.81,38.39-312.16,93.43c-27.83,14.27-55.14,30.16-82.38,47.22c-139.57,87.76-244.8,185.47-394.52,273.52
			c-141.46,83.19-180.17,152.36-320.95,176.45c-96.41,16.53-170.61,1.69-247.51-25.81c-42.14-15.07-84.73-33.7-131.57-52.81
			c-168-68.54-303.08-183.79-471.76-241.89c-182.47-62.84-292.71-109.98-470.24-141.57c-63.48-11.3-123.04-16.97-182.08-20.29
			c-109.52-6.29-218.43-3.38-350.51-0.37c-7.48,6.67-14.95,13.34-22.43,20.01"/>
		<path class="st1" d="M4724.95,1020.82c-25.76,119.09-48.39,236.48-84.93,344.79c-4.59,13.61-9.36,27.14-14.25,40.66
			c-121.3,335.14-498.92,600.4-915.45,665.51c-63.3,9.89-127.08,16.08-191.05,18.19c-165.99,5.4-332.54-14.48-501.48-39.63
			c-87.8-13.1-176.77-27.9-263.91-37.19c-102.07-10.89-197.07-14.2-284.74-12.57c-64.27,1.19-125.98,6.03-184.64,14.15
			c-104.35,14.43-203.14,43.55-310.19,99.7c-27.72,14.54-55,30.61-82.28,47.78c-140.03,88.45-245.84,183.78-397,271.58
			c-144.77,84.09-179.7,154.72-322.48,178.89c-97.75,16.58-171.84,0.62-248.85-28.08c-42.11-15.69-84.74-34.96-131.91-54.6
			c-168.81-70.32-303.08-188.41-472.42-248.35c-184.08-65.16-291.59-116-470.46-151.21c-63.89-12.57-123.64-19.31-182.88-23.54
			c-109.89-7.98-219.13-6.22-352.91-4.36c-7.3,6.93-14.59,13.86-21.89,20.78"/>
		<path class="st1" d="M4767.76,1031.25c-24.99,119.33-50.27,236.32-89.41,343.88c-4.91,13.48-9.98,26.89-15.18,40.29
			c-128.43,331.11-509.31,591.01-927.65,652.24c-63.5,9.29-127.45,14.92-191.55,16.48c-166.37,3.97-333.05-17.19-502.29-42.78
			c-87.98-13.33-177.2-28.15-264.53-36.93c-102.53-10.32-197.69-12.31-285.19-8.95c-64.33,2.47-125.83,8.86-184.09,18.44
			c-103.72,17.05-201.47,48.7-308.21,105.98c-27.61,14.82-54.85,31.07-82.18,48.34c-140.49,89.15-246.89,182.08-399.48,269.65
			c-148.08,84.98-179.22,157.08-324.01,181.33c-99.09,16.63-173.07-0.44-250.19-30.35c-42.08-16.32-84.76-36.21-132.24-56.39
			c-169.61-72.09-303.08-193.04-473.08-254.81C152.77,2210.18,48,2155.64-132.2,2116.81c-64.29-13.85-124.25-21.65-183.68-26.79
			c-110.26-9.67-219.83-9.06-355.3-8.34c-7.12,7.19-14.23,14.37-21.35,21.55"/>
		<path class="st1" d="M4810.58,1041.69c-24.21,119.57-52.15,236.16-93.89,342.98c-5.22,13.36-10.61,26.64-16.11,39.91
			c-135.54,327.07-519.71,581.63-939.85,638.98c-63.69,8.69-127.81,13.75-192.05,14.76c-166.74,2.54-333.56-19.89-503.1-45.93
			c-88.15-13.56-177.63-28.39-265.16-36.67c-103-9.74-198.31-10.43-285.63-5.34c-64.38,3.75-125.68,11.69-183.55,22.73
			c-103.09,19.67-199.8,53.86-306.24,112.26c-27.5,15.09-54.71,31.53-82.09,48.91c-140.94,89.85-247.94,180.37-401.95,267.71
			c-151.4,85.86-178.75,159.44-325.54,183.77c-100.42,16.68-174.29-1.51-251.53-32.62c-42.06-16.94-84.78-37.47-132.57-58.19
			c-170.41-73.86-303.08-197.67-473.75-261.27c-187.32-69.81-289.35-128.04-470.9-170.48c-64.7-15.13-124.86-23.99-184.48-30.04
			c-110.63-11.36-220.53-11.91-357.7-12.33c-6.94,7.44-13.87,14.88-20.81,22.33"/>
		<path class="st1" d="M4853.39,1052.12c-23.44,119.81-54.03,236.01-98.37,342.07c-5.53,13.23-11.23,26.38-17.04,39.54
			c-142.61,323.04-530.1,572.26-952.04,625.71c-63.89,8.09-128.18,12.59-192.56,13.05c-167.11,1.11-334.06-22.59-503.91-49.07
			c-88.32-13.79-178.05-28.64-265.78-36.41c-103.46-9.17-198.93-8.53-286.08-1.72c-64.44,5.04-125.53,14.51-183,27.02
			c-102.46,22.29-198.14,59.01-304.26,118.53c-27.39,15.36-54.56,31.98-81.99,49.47c-141.4,90.55-249,178.66-404.43,265.78
			c-154.72,86.72-178.27,161.8-327.07,186.21c-101.76,16.73-175.52-2.57-252.86-34.88c-42.03-17.56-84.79-38.73-132.9-59.98
			c-171.22-75.63-303.08-202.31-474.41-267.74c-188.93-72.14-288.24-134.05-471.11-180.11c-65.11-16.4-125.46-26.33-185.27-33.29
			c-111-13.05-221.24-14.75-360.1-16.32c-6.75,7.7-13.51,15.4-20.26,23.1"/>
		<path class="st1" d="M4896.21,1062.55c-22.67,120.05-55.9,235.86-102.85,341.17c-5.84,13.11-11.86,26.13-17.97,39.16
			c-149.67,319.02-540.49,562.88-964.24,612.44c-64.08,7.5-128.54,11.42-193.06,11.34c-167.48-0.32-334.57-25.29-504.71-52.22
			c-88.5-14.03-178.48-28.88-266.4-36.15c-103.93-8.59-199.55-6.64-286.53,1.9c-64.5,6.33-125.38,17.34-182.46,31.31
			c-101.83,24.91-196.47,64.17-302.29,124.81c-27.28,15.63-54.42,32.44-81.89,50.03c-141.86,91.25-250.06,176.93-406.91,263.84
			c-158.05,87.58-177.8,164.15-328.61,188.65c-103.09,16.78-176.75-3.64-254.2-37.15c-42-18.18-84.81-39.98-133.24-61.77
			c-172.02-77.4-303.07-206.96-475.07-274.2c-190.54-74.48-287.12-140.06-471.33-189.75c-65.52-17.67-126.07-28.67-186.07-36.54
			c-111.37-14.74-221.94-17.59-362.49-20.3c-6.57,7.96-13.15,15.91-19.72,23.87"/>
		<path class="st1" d="M4939.02,1072.99c-21.9,120.29-57.76,235.71-107.32,340.26c-6.15,12.98-12.48,25.88-18.9,38.79
			c-156.69,315.01-550.88,553.52-976.44,599.18c-64.28,6.9-128.91,10.26-193.56,9.62c-167.86-1.75-335.08-28-505.52-55.36
			c-88.67-14.26-178.9-29.13-267.02-35.89c-104.39-8.02-200.17-4.73-286.98,5.52c-64.56,7.62-125.23,20.17-181.91,35.6
			c-101.2,27.54-194.8,69.32-300.31,131.09c-27.17,15.9-54.28,32.9-81.79,50.6c-142.32,91.95-251.13,175.19-409.39,261.91
			c-161.38,88.43-177.32,166.51-330.14,191.09c-104.43,16.83-177.98-4.7-255.54-39.42c-41.98-18.79-84.83-41.24-133.57-63.56
			c-172.83-79.17-303.06-211.61-475.74-280.66c-192.14-76.83-286.01-146.07-471.55-199.38c-65.93-18.95-126.68-31.01-186.87-39.79
			c-111.73-16.43-222.64-20.43-364.89-24.29c-6.39,8.21-12.79,16.43-19.18,24.64"/>
		<path class="st1" d="M4981.84,1083.42c-21.13,120.53-59.62,235.56-111.8,339.36c-6.46,12.86-13.1,25.63-19.83,38.41
			c-163.7,311-561.27,544.15-988.63,585.91c-64.47,6.3-129.27,9.09-194.06,7.91c-168.23-3.18-335.58-30.7-506.33-58.51
			c-88.85-14.49-179.33-29.37-267.64-35.63c-104.86-7.44-200.78-2.83-287.43,9.13c-64.61,8.92-125.08,23-181.37,39.89
			c-100.57,30.17-193.14,74.47-298.34,137.36c-27.05,16.17-54.13,33.35-81.69,51.16c-142.78,92.64-252.2,173.45-411.87,259.97
			c-164.72,89.26-176.84,168.87-331.67,193.53c-105.77,16.88-179.21-5.76-256.88-41.69c-41.95-19.41-84.84-42.49-133.9-65.36
			c-173.64-80.93-303.05-216.27-476.4-287.12c-193.75-79.19-284.9-152.07-471.77-209.02c-66.34-20.22-127.28-33.35-187.67-43.04
			c-112.1-18.12-223.34-23.27-367.29-28.27c-6.21,8.47-12.43,16.94-18.64,25.42"/>
		<path class="st1" d="M5024.65,1093.86c-20.36,120.77-61.47,235.42-116.28,338.45c-6.77,12.73-13.72,25.37-20.76,38.04
			c-170.68,307.01-571.66,534.8-1000.83,572.65c-64.67,5.7-129.64,7.93-194.56,6.19c-168.6-4.61-336.09-33.4-507.14-61.65
			c-89.02-14.73-179.76-29.61-268.27-35.37c-105.32-6.86-201.4-0.91-287.88,12.75c-64.67,10.22-124.93,25.83-180.82,44.18
			c-99.94,32.8-191.47,79.62-296.36,143.64c-26.94,16.44-53.99,33.81-81.6,51.73c-143.24,93.34-253.27,171.7-414.35,258.04
			c-168.07,90.09-176.37,171.23-333.2,195.97c-107.1,16.93-180.44-6.81-258.22-43.96c-41.93-20.03-84.86-43.74-134.23-67.15
			c-174.44-82.69-303.04-220.93-477.07-293.58c-195.35-81.55-283.79-158.07-471.98-218.65c-66.75-21.49-127.89-35.69-188.46-46.28
			c-112.47-19.81-224.04-26.11-369.68-32.26c-6.03,8.73-12.06,17.46-18.1,26.19"/>
		<path class="st1" d="M5067.47,1104.29c-19.59,121-63.31,235.28-120.76,337.55c-7.08,12.61-14.34,25.12-21.69,37.66
			c-177.63,303.03-582.05,525.44-1013.03,559.38c-64.86,5.11-130,6.76-195.06,4.48c-168.98-6.04-336.59-36.1-507.95-64.8
			c-89.19-14.96-180.18-29.85-268.89-35.11c-105.79-6.28-202.02,1-288.32,16.37c-64.73,11.52-124.78,28.67-180.28,48.46
			c-99.31,35.43-189.8,84.77-294.38,149.92c-26.83,16.71-53.84,34.27-81.5,52.29c-143.7,94.04-254.35,169.94-416.83,256.1
			c-171.41,90.91-175.89,173.58-334.73,198.41c-108.44,16.98-181.68-7.87-259.55-46.23c-41.9-20.64-84.88-45-134.57-68.94
			c-175.25-84.45-303.02-225.6-477.73-300.04C275.25,2165.87,189.52,2085.72,0,2021.5c-67.17-22.76-128.5-38.03-189.26-49.53
			c-112.84-21.5-224.74-28.95-372.08-36.24c-5.85,8.99-11.7,17.97-17.55,26.96"/>
		<path class="st1" d="M5110.28,1114.73c-18.82,121.24-65.15,235.14-125.23,336.64c-7.39,12.48-14.96,24.87-22.62,37.29
			c-184.57,299.07-592.44,516.1-1025.23,546.12c-65.06,4.51-130.37,5.6-195.57,2.76c-169.35-7.47-337.1-38.81-508.76-67.94
			c-89.37-15.19-180.61-30.09-269.51-34.85c-106.26-5.69-202.64,2.92-288.77,19.99c-64.78,12.83-124.63,31.5-179.73,52.75
			c-98.68,38.06-188.14,89.92-292.41,156.19c-26.72,16.99-53.7,34.72-81.4,52.85c-144.16,94.74-255.43,168.17-419.31,254.17
			c-174.77,91.72-175.42,175.94-336.26,200.84c-109.77,17.03-182.91-8.92-260.89-48.5c-41.88-21.25-84.9-46.25-134.9-70.73
			c-176.06-86.21-303-230.27-478.39-306.51c-198.54-86.29-281.57-170.07-472.42-237.92c-67.58-24.03-129.11-40.37-190.06-52.78
			c-113.21-23.2-225.44-31.79-374.48-40.23c-5.67,9.24-11.34,18.49-17.01,27.73"/>
		<path class="st1" d="M5153.1,1125.16c-18.05,121.48-66.99,235-129.71,335.74c-7.7,12.36-15.58,24.62-23.56,36.92
			c-191.48,295.12-602.83,506.75-1037.42,532.85c-65.25,3.92-130.73,4.44-196.07,1.05c-169.72-8.89-337.61-41.51-509.57-71.09
			c-89.54-15.43-181.04-30.33-270.13-34.59c-106.72-5.11-203.25,4.85-289.22,23.6c-64.84,14.14-124.48,34.34-179.19,57.04
			c-98.05,40.7-186.48,95.07-290.43,162.47c-26.61,17.25-53.55,35.18-81.3,53.42c-144.61,95.44-256.51,166.39-421.79,252.24
			c-178.12,92.52-174.94,178.3-337.79,203.28c-111.11,17.08-184.15-9.97-262.23-50.76c-41.85-21.87-84.92-47.5-135.23-72.52
			c-176.88-87.96-302.98-234.95-479.06-312.97c-200.13-88.67-280.46-176.06-472.64-247.56c-67.99-25.3-129.71-42.71-190.86-56.03
			c-113.58-24.89-226.14-34.64-376.87-44.22c-5.49,9.5-10.98,19-16.47,28.51"/>
		<path class="st1" d="M5195.91,1135.6c-17.28,121.72-68.82,234.88-134.19,334.83c-8,12.24-16.2,24.37-24.49,36.54
			c-198.38,291.18-613.22,497.41-1049.62,519.59c-65.45,3.33-131.1,3.27-196.57-0.66c-170.09-10.32-338.11-44.21-510.37-74.24
			c-89.72-15.66-181.46-30.56-270.75-34.33c-107.19-4.52-203.86,6.78-289.67,27.22c-64.89,15.46-124.33,37.17-178.64,61.33
			c-97.41,43.33-184.81,100.21-288.46,168.74c-26.5,17.52-53.41,35.64-81.2,53.98c-145.07,96.13-257.6,164.61-424.26,250.3
			c-181.48,93.31-174.47,180.66-339.33,205.72c-112.45,17.13-185.38-11.02-263.57-53.03c-41.83-22.48-84.94-48.75-135.56-74.32
			c-177.69-89.72-302.95-239.63-479.72-319.43c-201.72-91.06-279.35-182.05-472.85-257.19c-68.4-26.56-130.32-45.05-191.65-59.28
			c-113.95-26.58-226.84-37.48-379.27-48.2c-5.31,9.76-10.62,19.52-15.93,29.28"/>
		<path class="st1" d="M5238.73,1146.03c-16.5,121.96-70.64,234.75-138.67,333.93c-8.31,12.11-16.81,24.13-25.42,36.17
			c-205.25,287.27-623.61,488.08-1061.82,506.32c-65.64,2.73-131.47,2.11-197.07-2.38c-170.47-11.75-338.62-46.91-511.18-77.38
			c-89.89-15.89-181.89-30.8-271.38-34.07c-107.65-3.94-204.48,8.72-290.12,30.84c-64.94,16.78-124.17,40.01-178.1,65.62
			c-96.78,45.97-183.15,105.36-286.48,175.02c-26.39,17.79-53.27,36.09-81.1,54.54c-145.53,96.83-258.68,162.82-426.74,248.37
			c-184.85,94.09-173.99,183.01-340.86,208.16c-113.78,17.18-186.62-12.07-264.91-55.3c-41.81-23.09-84.96-50-135.9-76.11
			c-178.5-91.47-302.92-244.32-480.39-325.89c-203.3-93.45-278.25-188.04-473.07-266.83c-68.82-27.83-130.93-47.39-192.45-62.53
			c-114.31-28.27-227.54-40.32-381.66-52.19c-5.13,10.02-10.26,20.03-15.39,30.05"/>
		<path class="st1" d="M5281.54,1156.47c-15.73,122.2-72.46,234.63-143.15,333.02c-8.61,11.99-17.43,23.88-26.35,35.79
			c-212.12,283.37-634,478.75-1074.01,493.06c-65.83,2.14-131.83,0.94-197.57-4.09c-170.84-13.18-339.13-49.62-511.99-80.53
			c-90.06-16.13-182.32-31.03-272-33.81c-108.12-3.35-205.09,10.65-290.56,34.46c-64.99,18.1-124.02,42.85-177.55,69.91
			c-96.14,48.61-181.49,110.5-284.51,181.3c-26.28,18.06-53.12,36.55-81.01,55.11c-145.99,97.53-259.77,161.03-429.22,246.43
			c-188.21,94.86-173.52,185.37-342.39,210.6c-115.12,17.23-187.86-13.11-266.24-57.57c-41.79-23.7-84.97-51.25-136.23-77.9
			c-179.32-93.22-302.89-249.01-481.05-332.35c-204.88-95.85-277.15-194.03-473.29-276.46c-69.23-29.1-131.53-49.73-193.25-65.78
			c-114.68-29.96-228.25-43.16-384.06-56.17c-4.95,10.27-9.9,20.55-14.85,30.82"/>
		<path class="st1" d="M5324.36,1166.9c-14.96,122.44-74.28,234.52-147.62,332.12c-8.92,11.87-18.04,23.63-27.28,35.42
			c-218.96,279.49-644.39,469.43-1086.21,479.79c-66.03,1.55-132.2-0.22-198.07-5.81c-171.21-14.61-339.63-52.32-512.8-83.67
			c-90.24-16.36-182.74-31.26-272.62-33.55c-108.58-2.76-205.69,12.6-291.01,38.07c-65.04,19.42-123.87,45.68-177.01,74.2
			c-95.5,51.25-179.83,115.65-282.53,187.57c-26.18,18.33-52.98,37.01-80.91,55.67c-146.45,98.23-260.87,159.23-431.7,244.5
			c-191.58,95.62-173.04,187.73-343.92,213.04c-116.45,17.28-189.1-14.16-267.58-59.84c-41.77-24.31-84.99-52.5-136.56-79.69
			c-180.13-94.97-302.86-253.7-481.71-338.81c-206.46-98.25-276.05-200.02-473.5-286.1c-69.65-30.36-132.14-52.07-194.05-69.03
			c-115.05-31.65-228.95-46-386.46-60.16c-4.77,10.53-9.54,21.06-14.3,31.59"/>
		<path class="st1" d="M5367.17,1177.34c-14.19,122.68-76.1,234.41-152.1,331.21c-9.23,11.75-18.66,23.39-28.21,35.04
			c-225.8,275.64-654.78,460.11-1098.41,466.53c-66.22,0.96-132.56-1.39-198.58-7.52c-171.59-16.04-340.14-55.02-513.61-86.82
			c-90.41-16.59-183.17-31.5-273.24-33.29c-109.05-2.17-206.3,14.54-291.46,41.69c-65.09,20.75-123.71,48.52-176.47,78.49
			c-94.86,53.89-178.17,120.79-280.55,193.85c-26.07,18.6-52.83,37.46-80.81,56.23c-146.91,98.93-261.96,157.42-434.18,242.56
			c-194.96,96.38-172.56,190.09-345.45,215.48c-117.79,17.33-190.34-15.2-268.92-62.11c-41.75-24.92-85.01-53.75-136.89-81.49
			c-180.95-96.72-302.82-258.4-482.38-345.28c-208.03-100.65-274.95-206-473.72-295.73c-70.06-31.63-132.75-54.41-194.84-72.28
			c-115.42-33.34-229.65-48.84-388.85-64.14c-4.59,10.79-9.17,21.58-13.76,32.37"/>
		<path class="st1" d="M5409.99,1187.77c-13.42,122.92-77.91,234.3-156.58,330.31c-9.53,11.63-19.27,23.14-29.14,34.67
			c-232.62,271.8-665.17,450.79-1110.6,453.26c-66.42,0.37-132.93-2.55-199.08-9.24c-171.96-17.47-340.64-57.72-514.42-89.96
			c-90.58-16.83-183.6-31.73-273.86-33.03c-109.51-1.58-206.9,16.49-291.91,45.31c-65.13,22.08-123.56,51.36-175.92,82.78
			c-94.22,56.54-176.51,125.93-278.58,200.13c-25.96,18.87-52.69,37.92-80.71,56.8c-147.37,99.62-263.06,155.61-436.66,240.63
			c-198.33,97.12-172.09,192.45-346.98,217.92c-119.13,17.38-191.58-16.25-270.26-64.38c-41.73-25.53-85.04-55-137.23-83.28
			c-181.77-98.47-302.79-263.11-483.04-351.74c-209.6-103.06-273.85-211.99-473.94-305.37c-70.48-32.89-133.36-56.75-195.64-75.53
			c-115.79-35.03-230.35-51.68-391.25-68.13c-4.41,11.05-8.81,22.09-13.22,33.14"/>
		<path class="st1" d="M5452.81,1198.2c-12.65,123.16-79.72,234.2-161.06,329.4c-9.83,11.51-19.89,22.9-30.07,34.29
			c-239.44,267.99-675.57,441.48-1122.8,440c-66.61-0.22-133.29-3.71-199.58-10.95c-172.33-18.9-341.15-60.43-515.23-93.11
			c-90.76-17.06-184.02-31.96-274.48-32.77c-109.98-0.98-207.5,18.44-292.36,48.93c-65.18,23.41-123.4,54.2-175.38,87.07
			c-93.58,59.18-174.85,131.07-276.6,206.4c-25.85,19.14-52.54,38.38-80.61,57.36c-147.83,100.32-264.15,153.8-439.14,238.69
			c-201.71,97.86-171.61,194.8-348.51,220.36c-120.46,17.43-192.83-17.29-271.6-66.64c-41.71-26.14-85.06-56.25-137.56-85.07
			c-182.59-100.21-302.74-267.81-483.7-358.2c-211.17-105.48-272.75-217.97-474.16-315c-70.89-34.16-133.96-59.09-196.44-78.78
			c-116.16-36.72-231.05-54.53-393.65-72.12c-4.23,11.3-8.45,22.61-12.68,33.91"/>
		<path class="st1" d="M5495.62,1208.64c-11.88,123.39-81.53,234.11-165.53,328.5c-10.14,11.39-20.5,22.65-31,33.92
			c-246.24,264.19-685.96,432.18-1135,426.73c-66.81-0.81-133.66-4.88-200.08-12.67c-172.71-20.33-341.66-63.13-516.03-96.25
			c-90.93-17.29-184.45-32.19-275.11-32.51c-110.44-0.39-208.09,20.4-292.8,52.54c-65.22,24.75-123.24,57.04-174.83,91.36
			c-92.94,61.83-173.2,136.21-274.63,212.68c-25.74,19.41-52.4,38.83-80.52,57.93c-148.28,101.02-265.25,151.97-441.62,236.76
			c-205.09,98.59-171.14,197.16-350.04,222.8c-121.8,17.48-194.07-18.33-272.94-68.91c-41.69-26.74-85.08-57.5-137.89-86.86
			c-183.41-101.96-302.7-272.52-484.37-364.66c-212.73-107.9-271.66-223.95-474.37-324.64c-71.31-35.42-134.57-61.43-197.23-82.03
			c-116.53-38.42-231.75-57.37-396.04-76.1c-4.05,11.56-8.09,23.12-12.14,34.68"/>
		<path class="st1" d="M5538.44,1219.07c-11.11,123.63-83.34,234.02-170.01,327.59c-10.44,11.27-21.11,22.41-31.93,33.54
			c-253.04,260.42-696.36,422.88-1147.2,413.47c-67-1.4-134.02-6.04-200.58-14.38c-173.08-21.75-342.16-65.83-516.84-99.4
			c-91.11-17.53-184.88-32.42-275.73-32.25c-110.91,0.21-208.69,22.36-293.25,56.16c-65.25,26.08-123.09,59.88-174.29,95.65
			c-92.29,64.47-171.54,141.35-272.65,218.96c-25.63,19.67-52.26,39.29-80.42,58.49c-148.74,101.72-266.35,150.15-444.1,234.82
			c-208.48,99.32-170.66,199.52-351.58,225.24c-123.13,17.53-195.32-19.37-274.27-71.18c-41.68-27.35-85.1-58.75-138.23-88.65
			c-184.23-103.7-302.65-277.23-485.03-371.12c-214.29-110.32-270.57-229.93-474.59-334.27c-71.73-36.68-135.18-63.77-198.03-85.28
			c-116.9-40.11-232.45-60.21-398.44-80.09c-3.86,11.82-7.73,23.64-11.59,35.46"/>
		<path class="st1" d="M5581.25,1229.51c-10.34,123.87-85.14,233.93-174.49,326.69c-10.75,11.16-21.73,22.17-32.86,33.17
			c-259.84,256.67-706.75,413.58-1159.39,400.2c-67.2-1.99-134.39-7.21-201.08-16.09c-173.45-23.18-342.67-68.54-517.65-102.55
			c-91.28-17.76-185.3-32.64-276.35-31.99c-111.37,0.8-209.28,24.32-293.7,59.78c-65.29,27.42-122.93,62.72-173.74,99.94
			c-91.64,67.12-169.89,146.49-270.68,225.23c-25.52,19.94-52.11,39.75-80.32,59.05c-149.2,102.42-267.45,148.32-446.57,232.89
			c-211.87,100.03-170.19,201.88-353.11,227.68c-124.47,17.58-196.57-20.4-275.61-73.45c-41.66-27.96-85.12-60-138.56-90.45
			c-185.05-105.44-302.6-281.95-485.7-377.59c-215.85-112.75-269.47-235.91-474.81-343.91c-72.14-37.95-135.78-66.11-198.83-88.53
			c-117.26-41.8-233.15-63.05-400.84-84.07c-3.68,12.08-7.37,24.15-11.05,36.23"/>
		<path class="st1" d="M5624.07,1239.94c-9.57,124.11-86.95,233.85-178.97,325.78c-11.05,11.04-22.34,21.93-33.79,32.8
			c-266.63,252.93-717.15,404.29-1171.59,386.94c-67.39-2.57-134.75-8.37-201.59-17.81c-173.82-24.61-343.17-71.24-518.46-105.69
			c-91.45-17.99-185.73-32.87-276.97-31.73c-111.84,1.4-209.86,26.28-294.15,63.4c-65.32,28.76-122.77,65.57-173.2,104.23
			c-90.99,69.77-168.23,151.63-268.7,231.51c-25.42,20.21-51.97,40.2-80.22,59.62c-149.66,103.12-268.55,146.48-449.05,230.95
			c-215.26,100.74-169.71,204.23-354.64,230.12c-125.81,17.63-197.82-21.44-276.95-75.72c-41.64-28.56-85.14-61.24-138.89-92.24
			c-185.87-107.18-302.55-286.66-486.36-384.05c-217.4-115.18-268.38-241.89-475.03-353.54c-72.56-39.21-136.39-68.45-199.63-91.77
			c-117.63-43.49-233.85-65.89-403.23-88.06c-3.5,12.33-7.01,24.67-10.51,37"/>
		<path class="st1" d="M5666.88,1250.38c-8.79,124.35-88.75,233.78-183.45,324.88c-11.35,10.92-22.95,21.69-34.72,32.42
			c-273.42,249.22-727.55,395-1183.79,373.67c-67.59-3.16-135.12-9.54-202.09-19.52c-174.2-26.04-343.68-73.94-519.27-108.84
			c-91.63-18.23-186.15-33.09-277.59-31.47c-112.3,2-210.45,28.25-294.6,67.01c-65.35,30.11-122.61,68.41-172.65,108.52
			c-90.34,72.41-166.58,156.76-266.73,237.78c-25.31,20.48-51.82,40.66-80.12,60.18c-150.12,103.81-269.65,144.64-451.53,229.02
			c-218.65,101.44-169.24,206.59-356.17,232.55c-127.14,17.68-199.07-22.48-278.29-77.99c-41.63-29.17-85.23-62.39-139.22-94.03
			c-186.91-108.56-302.5-291.38-487.02-390.51c-218.95-117.62-267.52-247.46-475.24-363.18c-73.06-40.33-137-70.79-200.42-95.02
			c-118-45.18-234.55-68.73-405.63-92.04c-3.32,12.59-6.65,25.18-9.97,37.77"/>
		<path class="st1" d="M5709.7,1260.81c-8.02,124.59-90.56,233.71-187.92,323.97c-11.66,10.81-23.56,21.45-35.66,32.05
			c-280.21,245.53-738,386.62-1195.98,360.41c-67.79-3.61-135.48-10.7-202.59-21.24c-174.57-27.47-344.19-76.64-520.08-111.98
			c-91.8-18.46-186.58-33.32-278.22-31.21c-112.76,2.6-211.03,30.21-295.05,70.63c-65.38,31.45-122.45,71.25-172.11,112.81
			c-89.69,75.06-165.08,161.71-264.75,244.06c-25.24,20.7-51.68,41.12-80.02,60.74c-150.58,104.51-270.75,142.8-454.01,227.08
			c-222.04,102.13-168.76,208.95-357.7,234.99c-128.48,17.73-200.32-23.51-279.63-80.26c-41.61-29.77-85.24-63.64-139.56-95.82
			c-187.72-110.33-302.44-296.11-487.69-396.97c-220.5-120.06-266.42-253.47-475.46-372.82c-73.48-41.6-137.6-73.13-201.22-98.27
			c-118.37-46.87-235.26-71.57-408.02-96.03c-3.14,12.85-6.29,25.7-9.43,38.54"/>
		<path class="st1" d="M5752.51,1271.25c-7.25,124.83-92.36,233.64-192.4,323.07c-11.96,10.69-24.18,21.21-36.59,31.67
			c-286.99,241.86-748.4,377.26-1208.18,347.14c-67.99-4.21-135.85-11.86-203.09-22.95c-174.94-28.9-344.69-79.35-520.89-115.13
			c-91.98-18.69-187-33.54-278.84-30.95c-113.23,3.2-211.61,32.18-295.49,74.25c-65.41,32.8-122.28,74.09-171.56,117.1
			c-89.04,77.71-163.42,166.87-262.77,250.34c-25.13,20.97-51.53,41.57-79.93,61.31c-151.04,105.21-271.86,140.95-456.49,225.15
			c-225.44,102.81-168.28,211.31-359.23,237.43c-129.81,17.78-201.57-24.55-280.96-82.52c-41.6-30.38-85.26-64.9-139.89-97.61
			c-188.53-112.1-302.38-300.83-488.35-403.43c-222.04-122.5-265.32-259.48-475.68-382.45c-73.89-42.88-138.21-75.47-202.02-101.52
			c-118.74-48.56-235.96-74.42-410.42-100.02c-2.96,13.11-5.92,26.21-8.89,39.32"/>
		<path class="st1" d="M5795.33,1281.68c-6.48,125.07-94.16,233.58-196.88,322.16c-12.26,10.58-24.79,20.98-37.52,31.3
			c-293.78,238.21-758.81,367.91-1220.38,333.88c-68.19-4.8-136.21-13.03-203.59-24.67c-175.32-30.33-345.2-82.05-521.7-118.27
			c-92.15-18.93-187.42-33.59-279.46-30.69c-113.68,4.02-212.18,34.15-295.94,77.87c-65.43,34.15-122.04,77.02-171.02,121.39
			c-88.24,80.52-161.76,172.02-260.8,256.61c-25.02,21.24-51.39,42.03-79.83,61.87c-151.5,105.91-272.96,139.1-458.97,223.22
			c-228.84,103.49-167.81,213.66-360.76,239.87c-131.15,17.83-202.82-25.58-282.3-84.79c-41.59-30.98-85.28-66.15-140.22-99.41
			c-189.34-113.86-302.31-305.56-489.02-409.9c-223.58-124.95-264.22-265.49-475.9-392.09c-74.31-44.15-138.82-77.81-202.82-104.77
			c-119.11-50.25-236.66-77.26-412.82-104c-2.78,13.36-5.56,26.73-8.34,40.09"/>
		<path class="st1" d="M5838.14,1292.12c-5.71,125.31-95.96,233.53-201.36,321.26c-12.57,10.46-25.4,20.74-38.45,30.92
			c-300.57,234.57-769.21,358.55-1232.58,320.61c-68.38-5.4-136.58-14.19-204.09-26.38c-175.69-31.76-345.71-84.75-522.5-121.42
			c-92.32-19.16-187.85-33.83-280.08-30.42c-114.15,4.61-212.75,36.12-296.39,81.48c-65.45,35.49-121.88,79.85-170.47,125.68
			c-87.59,83.14-160.09,177.17-258.82,262.89c-24.91,21.51-51.25,42.49-79.73,62.43c-151.96,106.61-274.07,137.24-461.45,221.28
			c-232.24,104.16-167.33,216.02-362.3,242.31c-132.49,17.88-204.08-26.62-283.64-87.06c-41.57-31.59-85.3-67.41-140.55-101.2
			c-190.15-115.63-302.25-310.29-489.68-416.36c-225.12-127.39-263.12-271.5-476.11-401.72c-74.72-45.42-139.43-80.15-203.61-108.02
			c-119.48-51.94-237.36-80.1-415.21-107.99c-2.6,13.62-5.2,27.24-7.8,40.86"/>
		<path class="st1" d="M5880.96,1302.55c-4.94,125.55-97.77,233.47-205.84,320.35c-12.87,10.35-26.01,20.51-39.38,30.55
			c-307.37,230.96-779.61,349.2-1244.77,307.35c-68.58-6-136.94-15.36-204.6-28.1c-176.06-33.19-346.21-87.45-523.31-124.56
			c-92.5-19.39-188.27-34.07-280.7-30.16c-114.61,5.19-213.32,38.1-296.84,85.1c-65.47,36.84-121.73,82.68-169.93,129.97
			c-86.95,85.77-158.43,182.32-256.85,269.17c-24.8,21.78-51.1,42.94-79.63,63c-152.41,107.3-275.17,135.38-463.93,219.35
			c-235.65,104.82-166.86,218.38-363.83,244.75c-133.82,17.93-205.34-27.65-284.98-89.33c-41.56-32.19-85.32-68.66-140.89-102.99
			c-190.96-117.4-302.18-315.02-490.34-422.82c-226.65-129.85-262.02-277.51-476.33-411.36c-75.14-46.7-140.03-82.49-204.41-111.27
			C34.57,1597.9-83.65,1568.6-263.2,1539.56c-2.42,13.88-4.84,27.76-7.26,41.63"/>
		<path class="st1" d="M5923.77,1312.99c-4.17,125.78-99.57,233.43-210.31,319.45c-13.18,10.23-26.62,20.27-40.31,30.17
			c-314.17,227.36-790.02,339.84-1256.97,294.08c-68.77-6.59-137.31-16.52-205.1-29.81c-176.43-34.62-346.72-90.16-524.12-127.71
			c-92.67-19.62-188.7-34.31-281.32-29.9c-115.07,5.77-213.88,40.07-297.29,88.72c-65.48,38.2-121.57,85.51-169.38,134.26
			c-86.31,88.4-156.77,187.47-254.87,275.44c-24.69,22.05-50.96,43.4-79.53,63.56c-152.87,108-276.28,133.52-466.41,217.41
			c-239.05,105.48-166.38,220.74-365.36,247.19c-135.16,17.98-206.71-28.53-286.32-91.6c-41.61-32.71-85.34-69.92-141.22-104.78
			c-191.78-119.17-302.11-319.76-491.01-429.28c-228.18-132.3-260.92-283.53-476.55-420.99c-75.55-47.97-140.64-84.83-205.21-114.52
			c-120.21-55.32-238.76-85.78-420.01-115.96c-2.24,14.14-4.48,28.27-6.72,42.41"/>
		<path class="st1" d="M5966.59,1323.42c-3.4,126.02-101.38,233.38-214.79,318.54c-13.48,10.12-27.24,20.04-41.24,29.8
			c-320.98,223.78-800.42,330.49-1269.17,280.82c-68.97-7.19-137.67-17.69-205.6-31.52c-176.81-36.04-347.22-92.86-524.93-130.85
			c-92.84-19.86-189.12-34.55-281.95-29.64c-115.54,6.35-214.44,42.04-297.73,92.34c-65.49,39.55-121.42,88.34-168.84,138.55
			c-85.67,91.02-155.11,192.63-252.9,281.72c-24.58,22.32-50.81,43.85-79.44,64.13c-153.33,108.7-277.38,131.66-468.88,215.48
			c-242.46,106.12-165.91,223.09-366.89,249.63c-136.49,18.03-207.95-29.59-287.65-93.87c-41.59-33.33-85.36-71.17-141.55-106.58
			c-192.59-120.93-302.04-324.49-491.67-435.74c-229.71-134.76-259.82-289.54-476.77-430.63
			c-75.96-49.25-141.25-87.17-206.01-117.77c-120.58-57.02-239.46-88.62-422.4-119.94c-2.06,14.39-4.12,28.78-6.18,43.18"/>
		<path class="st1" d="M6009.4,1333.86c-2.63,126.26-103.19,233.34-219.27,317.64c-13.78,10.01-27.85,19.8-42.17,29.42
			c-327.79,220.21-810.83,321.13-1281.36,267.55c-69.17-7.78-138.04-18.85-206.1-33.24c-177.18-37.47-347.73-95.56-525.74-134
			c-93.02-20.09-189.55-34.79-282.57-29.38c-116,6.93-215,44.02-298.18,95.95c-65.5,40.9-121.26,91.17-168.29,142.84
			c-85.03,93.65-153.44,197.78-250.92,288c-24.47,22.59-50.67,44.31-79.34,64.69c-153.79,109.4-278.49,129.79-471.36,213.54
			c-245.87,106.77-165.43,225.45-368.42,252.07c-137.83,18.08-209.19-30.65-288.99-96.14c-41.57-33.95-85.37-72.43-141.88-108.37
			c-193.4-122.7-301.79-329.52-492.34-442.2c-231.02-137.58-258.72-295.55-476.98-440.26c-76.38-50.52-141.85-89.51-206.8-121.02
			c-120.95-58.71-240.16-91.46-424.8-123.93c-1.88,14.65-3.76,29.3-5.64,43.95"/>
		<path class="st1" d="M6052.22,1344.29c-1.86,126.5-104.88,233.47-223.75,316.73c-14.08,9.92-28.44,19.6-43.1,29.05
			c-334.17,217.33-821.23,311.78-1293.56,254.28c-69.36-8.38-138.4-20.02-206.6-34.95c-177.55-38.9-348.24-98.26-526.55-137.15
			c-93.19-20.32-189.97-35.03-283.19-29.12c-116.46,7.51-215.47,46.13-298.63,99.57c-65.44,42.36-121.1,94-167.75,147.13
			c-84.38,96.28-151.78,202.93-248.94,294.27c-24.36,22.86-50.52,44.77-79.24,65.25c-154.25,110.1-279.73,127.6-473.84,211.61
			c-249.45,106.99-164.96,227.81-369.95,254.51c-139.17,18.13-210.43-31.71-290.33-98.4c-41.55-34.57-85.39-73.68-142.22-110.16
			c-194.21-124.47-301.77-334.17-493-448.67c-232.61-139.93-257.61-301.56-477.2-449.9c-76.79-51.8-142.46-91.85-207.6-124.27
			c-121.32-60.4-240.86-94.31-427.2-127.91c-1.7,14.91-3.4,29.81-5.09,44.72"/>
		<path class="st1" d="M6095.04,1354.72c-1.09,126.74-106.75,233.35-228.22,315.83c-14.39,9.8-29.07,19.35-44.03,28.68
			c-341.22,213.47-831.64,302.43-1305.76,241.02c-69.56-8.98-138.77-21.18-207.1-36.67c-177.93-40.33-348.74-100.97-527.36-140.29
			c-93.37-20.56-190.4-35.28-283.81-28.86c-116.93,8.09-216.06,48.04-299.08,103.19c-65.48,43.66-120.95,96.83-167.2,151.42
			c-83.74,98.9-150.12,208.08-246.97,300.55c-24.25,23.14-50.38,45.22-79.14,65.82c-154.71,110.8-280.77,125.88-476.32,209.67
			c-252.78,107.82-164.48,230.17-371.48,256.95c-140.5,18.18-211.67-32.77-291.67-100.67c-41.52-35.19-85.41-74.94-142.55-111.95
			c-195.02-126.24-301.74-338.81-493.66-455.13c-234.2-142.28-256.51-307.57-477.42-459.53c-77.21-53.07-143.07-94.19-208.4-127.52
			c-121.69-62.09-241.56-97.15-429.59-131.9c-1.52,15.16-3.03,30.33-4.55,45.49"/>
		<path class="st1" d="M6137.85,1365.16c-0.31,126.98-108.61,233.24-232.7,314.92c-399.01,262.64-1014.39,347.93-1570.52,217.67
			c-178.3-41.76-349.25-103.67-528.16-143.44c-93.54-20.79-190.82-35.52-284.43-28.6c-210.2,15.53-362.3,135.59-466.18,262.51
			c-103.88,126.92-180.04,269.74-324.04,373.21c-155.17,111.49-281.8,124.16-478.8,207.74c-256.1,108.66-164,232.53-373.02,259.39
			c-215.33,27.67-267.55-106.65-435.89-216.69c-195.83-128-301.72-343.45-494.33-461.59c-235.79-144.63-255.41-313.58-477.63-469.17
			s-349.61-211.48-641.18-266.65c-1.34,15.42-2.67,30.84-4.01,46.27"/>
	</g>
</g>
</svg>
