<svg width="160" height="28" viewBox="0 0 160 28" xmlns="http://www.w3.org/2000/svg">
    <path d="M5.975 27.536v-8.663h4.694l5.82 8.663h6.983l-6.634-9.669c3.453-1.276 5.82-4.022 5.82-8.392v-.077c0-2.553-.815-4.68-2.328-6.188C18.545 1.43 15.868.464 12.415.464H0v27.072h5.975zm6.052-13.923H5.975V5.84h5.936c2.91 0 4.694 1.315 4.694 3.867v.078c0 2.281-1.668 3.828-4.578 3.828zM48.73 27.536v-5.298H33.986v-5.686H46.79v-5.298H33.986V5.762h14.55V.464H28.05v27.072h20.68zm14.976.387c5.859 0 9.971-3.017 9.971-8.393v-.077c0-4.718-3.104-6.69-8.613-8.122-4.694-1.198-5.858-1.779-5.858-3.558v-.077c0-1.315 1.202-2.359 3.491-2.359 2.29 0 4.656 1.006 7.062 2.669l3.103-4.487C70.107 1.315 66.731.077 62.774.077c-5.548 0-9.505 3.249-9.505 8.16v.078c0 5.376 3.53 6.884 9 8.276 4.54 1.16 5.471 1.934 5.471 3.442v.077c0 1.586-1.474 2.553-3.918 2.553-3.104 0-5.665-1.276-8.11-3.287l-3.53 4.215c3.26 2.9 7.41 4.332 11.523 4.332zm27.624-.387v-10.79L101.765.464h-6.79L88.38 11.331 81.901.464h-6.983l10.436 16.398v10.674h5.975zm20.058 0v-17.21l13.152 17.21h5.083V.464h-5.897v16.669L110.999.464h-5.51v27.072h5.898zm37.478.464c5.238 0 8.342-1.856 11.135-4.834l-3.802-3.829c-2.134 1.934-4.035 3.171-7.139 3.171-4.656 0-7.876-3.867-7.876-8.508v-.077c0-4.641 3.298-8.431 7.876-8.431 2.716 0 4.85 1.16 6.945 3.055l3.802-4.37C157.284 1.702 154.219 0 149.098 0c-8.341 0-14.161 6.304-14.161 14v.077c0 7.774 5.936 13.923 13.928 13.923z" fill="#FFF" fill-rule="nonzero"/>
</svg>
